<svg width="309" height="140" viewBox="0 0 309 140" fill="none" xmlns="http://www.w3.org/2000/svg">
<path fill-rule="evenodd" clip-rule="evenodd" d="M88.72 111.329H84.751C84.1089 111.445 83.5836 111.912 83.5253 112.553V127.592C83.5253 127.708 83.642 127.825 83.8171 127.825H86.8522C87.0273 127.825 87.144 127.708 87.144 127.592V121.646H89.4204C93.973 121.646 95.549 118.673 95.549 116.517C95.549 115.467 95.1404 111.329 88.72 111.329ZM103.253 115.409C107.164 115.409 110.024 117.624 110.024 121.704C110.024 125.785 107.164 128 103.253 128C99.3428 128 96.4828 125.785 96.4828 121.704C96.4828 117.682 99.3428 115.409 103.253 115.409ZM103.253 125.727C104.771 125.727 106.405 124.561 106.405 121.763C106.405 118.906 104.771 117.799 103.253 117.799C101.736 117.799 100.102 118.965 100.102 121.763C100.043 124.561 101.677 125.727 103.253 125.727ZM124.441 115.642H135.531C135.647 115.642 135.764 115.759 135.823 115.875V117.74C135.823 117.857 135.706 117.974 135.531 117.974H131.678V127.592C131.678 127.644 131.655 127.696 131.613 127.738C131.598 127.753 131.58 127.767 131.56 127.779C131.542 127.79 131.521 127.8 131.5 127.807C131.466 127.819 131.428 127.825 131.386 127.825H128.526C128.413 127.825 128.324 127.776 128.276 127.71C128.249 127.674 128.235 127.633 128.235 127.592V117.974H124.441C124.266 117.974 124.149 117.857 124.149 117.74V115.875C124.149 115.759 124.266 115.642 124.441 115.642ZM122.281 127.825C122.456 127.825 122.573 127.708 122.573 127.592V125.727C122.573 125.61 122.456 125.493 122.281 125.493H119.655C117.262 125.493 115.627 124.036 115.627 121.821C115.627 119.373 117.378 118.032 119.713 118.032H122.106C122.223 118.032 122.398 117.916 122.398 117.799V115.934C122.398 115.817 122.281 115.7 122.106 115.7H119.188C114.518 115.7 112.067 118.44 112.067 121.704C112.067 124.91 114.402 127.942 119.071 127.942H122.281V127.825ZM187.944 121.413L193.256 127.592C193.314 127.65 193.329 127.723 193.307 127.782C193.285 127.84 193.227 127.883 193.139 127.883H189.462C189.287 127.883 189.17 127.825 189.053 127.708L184.793 122.054H184.676V127.65C184.676 127.767 184.559 127.883 184.384 127.883H181.466C181.291 127.883 181.174 127.767 181.174 127.65V115.934C181.174 115.866 181.213 115.798 181.28 115.753C181.329 115.721 181.392 115.7 181.466 115.7H184.384C184.453 115.7 184.522 115.741 184.567 115.799C184.598 115.838 184.617 115.886 184.617 115.934V116.516V121.238H184.734L188.82 115.817C188.893 115.744 188.966 115.694 189.053 115.667C189.105 115.65 189.163 115.642 189.229 115.642H192.439C192.533 115.642 192.594 115.676 192.62 115.726C192.628 115.741 192.633 115.757 192.635 115.774C192.637 115.795 192.635 115.818 192.628 115.84C192.624 115.852 192.62 115.864 192.614 115.875L192.322 116.225L192.089 116.458L187.944 121.413ZM87.0857 119.023H88.72C90.8795 119.023 91.7551 117.683 91.7551 116.4C91.7551 115.001 90.7628 113.894 88.72 113.894H87.0857V119.023ZM163.197 115.642H155.2H154.383C153.566 115.642 152.866 116.283 152.866 117.041V121.704C152.866 124.094 151.874 125.435 150.181 125.435H150.064C149.947 125.435 149.772 125.552 149.772 125.668V127.417V127.533C149.772 127.65 149.889 127.767 150.006 127.767H150.764C152.574 127.767 155.901 126.951 155.901 121.646V117.916H159.928V127.533C159.928 127.65 160.045 127.767 160.22 127.767H163.138C163.183 127.767 163.224 127.759 163.26 127.746C163.296 127.733 163.327 127.714 163.352 127.692C163.402 127.648 163.43 127.591 163.43 127.533V115.817C163.43 115.803 163.424 115.787 163.413 115.769C163.403 115.754 163.391 115.739 163.375 115.724C163.358 115.707 163.336 115.69 163.313 115.677C163.278 115.656 163.237 115.642 163.197 115.642ZM225.708 116.983V117.857H225.883V127.592C225.883 127.708 225.767 127.825 225.592 127.825H222.673C222.498 127.825 222.381 127.708 222.381 127.592V120.888L222.44 118.382H222.323L217.887 125.027C217.654 125.377 217.245 125.377 217.011 125.027L212.575 118.382H212.459L212.517 120.888V127.592C212.517 127.627 212.507 127.662 212.487 127.694C212.442 127.768 212.348 127.825 212.225 127.825H209.307C209.209 127.825 209.13 127.789 209.079 127.737C209.038 127.695 209.015 127.644 209.015 127.592V122.288V116.983C209.015 116.225 209.716 115.584 210.533 115.584H210.941H213.042C213.218 115.584 213.393 115.584 213.568 115.817L217.362 121.355L221.156 115.817C221.272 115.642 221.389 115.584 221.506 115.584H224.249C225.008 115.584 225.708 116.225 225.708 116.983ZM200.026 115.409C203.937 115.409 206.797 117.624 206.797 121.704C206.797 125.785 203.937 128 200.026 128C196.116 128 193.256 125.785 193.256 121.704C193.256 117.682 196.116 115.409 200.026 115.409ZM203.178 121.763C203.178 124.561 201.544 125.727 200.026 125.727C198.45 125.727 196.816 124.561 196.875 121.763C196.875 118.965 198.509 117.799 200.026 117.799C201.544 117.799 203.178 118.906 203.178 121.763ZM147.613 125.493H144.811C142.476 125.493 140.55 124.269 140.433 122.754H147.729C148.547 122.754 149.247 122.113 149.247 121.355V121.063C149.072 119.14 148.255 115.467 143.352 115.467C139.85 115.467 136.873 117.857 136.873 121.763C136.873 126.076 140.784 127.883 144.694 127.883H147.671C147.73 127.883 147.805 127.853 147.864 127.808C147.92 127.765 147.963 127.708 147.963 127.65V125.668C147.905 125.552 147.788 125.493 147.613 125.493ZM145.803 120.539C145.862 118.499 144.402 117.682 143.118 117.682C141.601 117.682 140.433 118.906 140.433 120.539H145.803ZM176.971 125.202C176.971 125.202 175.22 125.377 173.878 125.377C171.543 125.377 169.617 124.328 169.5 122.754H176.796C177.614 122.754 178.255 122.113 178.314 121.355C178.197 119.548 177.555 115.467 172.419 115.467C168.917 115.467 165.94 117.857 165.94 121.763C165.94 126.076 169.851 127.883 173.761 127.883C175.279 127.883 176.971 127.708 176.971 127.708C177.015 127.708 177.067 127.692 177.115 127.666C177.195 127.621 177.263 127.548 177.263 127.475V125.435C177.263 125.26 177.146 125.202 176.971 125.202ZM174.87 120.539C174.929 118.499 173.469 117.682 172.185 117.682C170.668 117.682 169.559 118.906 169.5 120.539H174.87Z" fill="#919191"/>
<path d="M146.27 44.5266C146.854 34.9668 153.041 27.5055 160.103 27.9718C161.387 28.0301 162.73 28.4381 163.897 29.0211C164.656 26.9226 169.261 35.0411 169.32 33.1175C171.672 41.3629 170.538 28.0301 170.538 27.9718C170.538 25.6984 170.312 20.1873 169.32 18.4968C168.678 17.3893 164.948 15.5007 163.897 14.8012C163.664 14.6264 160.512 13.5155 160.278 13.3989C157.885 11.9999 153.449 11.9999 148.897 13.6904C144.928 15.1477 141.073 17.3864 139.73 19.6598C137.396 22.9824 131.762 27.1291 131.762 31.909C131.762 32.317 133.201 34.9221 133.259 35.3302C133.551 41.101 134.909 52.2273 138.411 57.1821C141.271 61.3791 148.663 57.2924 151.873 60.0904C148.138 56.7095 145.862 50.9386 146.27 44.5266Z" fill="#E0E0E0"/>
<path fill-rule="evenodd" clip-rule="evenodd" d="M155.489 12.2606C155.685 12.2466 155.88 12.2332 156.076 12.2332C174.637 11.4173 188.003 32.9268 176.563 50.9388C176.474 51.0862 176.371 51.2337 176.268 51.3812C176.166 51.5252 176.066 51.6693 175.979 51.8133C172.01 57.584 164.597 59.3912 159.52 55.8353C154.441 52.2796 153.566 44.7598 157.593 38.9891C157.944 38.5811 158.235 38.1729 158.586 37.765C158.644 37.6483 158.761 37.5318 158.877 37.4151C162.905 32.8685 165.006 27.389 165.064 22.7256V22.5508C165.064 20.2774 164.597 18.179 163.547 16.4886C162.905 15.3809 162.029 14.4483 160.979 13.6905C160.745 13.574 160.512 13.3992 160.278 13.2825C159.08 12.5753 157.322 12.2235 155.289 12.2745C155.356 12.2701 155.423 12.2652 155.489 12.2606ZM154.85 12.2916C154.998 12.2838 155.144 12.2781 155.289 12.2745C155.143 12.284 154.997 12.2916 154.85 12.2916ZM136.815 33.3348C137.048 39.0474 139.149 45.0513 142.651 49.9478C146.448 55.5477 150.763 59.1216 155.084 62.701C157.871 65.0089 160.659 67.3187 163.313 70.1751C169.734 76.8785 170.901 86.3218 165.765 91.5098C160.512 96.8143 150.706 95.7066 143.877 89.0032C143.527 88.595 142.36 87.3128 142.184 87.1378C131.27 74.2554 116.853 32.4605 143.527 16.1971C145.044 15.2645 146.679 14.4483 148.313 13.8072C144.636 15.2645 141.776 17.4796 140.492 19.6946C138.157 23.0172 136.756 27.3309 136.756 32.1107C136.756 32.5189 136.815 32.9268 136.815 33.3348Z" fill="#919191"/>
</svg>
