<svg width="600" height="172" viewBox="0 0 600 172" fill="none" xmlns="http://www.w3.org/2000/svg">
<path fill-rule="evenodd" clip-rule="evenodd" d="M44.1562 87H41V151.954H44.1562V87ZM262.673 148.938C264.809 151.134 267.826 152.232 271.726 152.232C273.582 152.232 275.377 151.939 277.11 151.35C278.842 150.763 280.267 149.945 281.381 148.892L279.803 146.665C277.697 148.583 275.098 149.541 272.004 149.541C268.908 149.541 266.557 148.676 264.947 146.943C263.337 145.212 262.533 142.707 262.533 139.427V106.486H278.41V103.795H262.533V93.217H259.47V103.795H250.371V106.486H259.47V139.891C259.47 143.727 260.538 146.743 262.673 148.938ZM507.215 152.232C503.315 152.232 500.298 151.134 498.162 148.938C496.027 146.743 494.959 143.727 494.959 139.891V106.486H485.86V103.795H494.959V93.217H498.022V103.795H513.899V106.486H498.022V139.427C498.022 142.707 498.826 145.212 500.437 146.943C502.046 148.676 504.397 149.541 507.493 149.541C510.587 149.541 513.187 148.583 515.292 146.665L516.87 148.892C515.756 149.945 514.331 150.763 512.6 151.35C510.866 151.939 509.071 152.232 507.215 152.232ZM549.792 107.367C547.223 106.595 544.577 106.208 541.854 106.208C537.088 106.208 533.498 107.121 531.085 108.945C528.671 110.77 527.464 113.167 527.464 116.136C527.464 118.488 528.145 120.344 529.506 121.704C530.867 123.065 532.554 124.07 534.565 124.719C536.576 125.369 539.315 126.035 542.783 126.715C546.497 127.396 549.498 128.122 551.789 128.895C554.078 129.669 556.013 130.89 557.591 132.561C559.17 134.231 559.959 136.551 559.959 139.52C559.959 143.417 558.381 146.511 555.224 148.799C552.067 151.088 547.518 152.232 541.576 152.232C537.677 152.232 534.009 151.645 530.573 150.469C527.139 149.295 524.461 147.748 522.543 145.83L524.028 143.417C526.009 145.15 528.562 146.604 531.688 147.778C534.812 148.954 538.141 149.541 541.669 149.541C546.868 149.541 550.705 148.659 553.182 146.896C555.656 145.133 556.896 142.675 556.896 139.52C556.896 137.293 556.229 135.53 554.898 134.231C553.566 132.932 551.912 131.973 549.932 131.354C547.95 130.737 545.29 130.118 541.947 129.498C538.048 128.756 534.938 127.999 532.616 127.225C530.295 126.452 528.33 125.2 526.721 123.467C525.11 121.736 524.307 119.323 524.307 116.229C524.307 112.58 525.807 109.533 528.81 107.089C531.811 104.646 536.191 103.424 541.947 103.424C544.918 103.424 547.89 103.873 550.86 104.769C553.831 105.667 556.245 106.857 558.103 108.342L556.523 110.755C554.604 109.27 552.36 108.142 549.792 107.367ZM471.896 110.801C474.774 113.802 476.214 118.147 476.214 123.838V151.954H479.278V123.653C479.278 117.157 477.544 112.162 474.079 108.666C470.611 105.172 465.877 103.424 459.874 103.424C455.106 103.424 451.007 104.507 447.571 106.672C444.137 108.838 441.645 111.807 440.098 115.58V103.795H437.127V151.954H440.19V125.972C440.19 119.973 441.923 115.194 445.39 111.636C448.855 108.079 453.591 106.301 459.595 106.301C464.918 106.301 469.019 107.801 471.896 110.801ZM386.527 139.242C388.384 142.459 390.937 144.964 394.187 146.758C397.436 148.553 401.071 149.449 405.096 149.449C408.376 149.449 411.409 148.845 414.194 147.639C416.979 146.432 419.269 144.655 421.064 142.304L423.015 144.345C420.847 146.882 418.217 148.831 415.123 150.191C412.027 151.552 408.685 152.232 405.096 152.232C400.391 152.232 396.196 151.197 392.515 149.123C388.832 147.052 385.938 144.159 383.834 140.448C381.729 136.736 380.678 132.53 380.678 127.828C380.678 123.128 381.652 118.92 383.602 115.209C385.552 111.497 388.259 108.606 391.727 106.532C395.191 104.46 399.061 103.424 403.332 103.424C407.54 103.424 411.362 104.445 414.798 106.486C418.232 108.528 420.94 111.374 422.922 115.023C424.901 118.674 425.893 122.818 425.893 127.457V128.292H383.648C383.71 132.375 384.67 136.026 386.527 139.242ZM419.997 115.719C421.762 118.72 422.767 122.075 423.015 125.787H383.742C383.928 122.075 384.887 118.72 386.62 115.719C388.353 112.719 390.674 110.383 393.584 108.713C396.492 107.043 399.742 106.208 403.332 106.208C406.921 106.208 410.156 107.043 413.034 108.713C415.912 110.383 418.233 112.719 419.997 115.719ZM366.761 123.838C366.761 118.147 365.368 113.802 362.583 110.801C359.797 107.801 355.835 106.301 350.698 106.301C344.942 106.301 340.361 108.096 336.958 111.682C333.553 115.271 331.852 120.034 331.852 125.972V151.954H328.787V123.838C328.787 118.147 327.395 113.802 324.609 110.801C321.824 107.801 317.893 106.301 312.818 106.301C307 106.301 302.404 108.079 299.031 111.636C295.657 115.194 293.971 119.973 293.971 125.972V151.954H290.907V103.795H293.878V115.394C295.363 111.682 297.762 108.759 301.074 106.625C304.385 104.491 308.362 103.424 313.004 103.424C317.646 103.424 321.546 104.538 324.702 106.765C327.859 108.992 329.963 112.239 331.016 116.508C332.438 112.487 334.883 109.302 338.351 106.95C341.816 104.6 345.994 103.424 350.884 103.424C356.764 103.424 361.391 105.157 364.765 108.62C368.138 112.086 369.824 117.096 369.824 123.653V151.954H366.761V123.838ZM220.42 124.719C222.431 125.369 225.17 126.035 228.638 126.715C232.352 127.396 235.353 128.122 237.644 128.895C239.933 129.669 241.867 130.89 243.445 132.561C245.024 134.231 245.813 136.551 245.813 139.52C245.813 143.417 244.235 146.511 241.078 148.799C237.922 151.088 233.372 152.232 227.431 152.232C223.531 152.232 219.863 151.645 216.428 150.469C212.993 149.295 210.315 147.748 208.397 145.83L209.883 143.417C211.863 145.15 214.416 146.604 217.542 147.778C220.667 148.954 223.995 149.541 227.523 149.541C232.723 149.541 236.56 148.659 239.036 146.896C241.511 145.133 242.75 142.675 242.75 139.52C242.75 137.293 242.083 135.53 240.753 134.231C239.421 132.932 237.767 131.973 235.786 131.354C233.805 130.737 231.145 130.118 227.802 129.498C223.902 128.756 220.792 127.999 218.471 127.225C216.149 126.452 214.185 125.2 212.575 123.467C210.965 121.736 210.161 119.323 210.161 116.229C210.161 112.58 211.661 109.533 214.664 107.089C217.665 104.646 222.046 103.424 227.802 103.424C230.772 103.424 233.744 103.873 236.715 104.769C239.686 105.667 242.1 106.857 243.957 108.342L242.378 110.755C240.459 109.27 238.215 108.142 235.646 107.367C233.077 106.595 230.432 106.208 227.709 106.208C222.942 106.208 219.353 107.121 216.939 108.945C214.525 110.77 213.318 113.167 213.318 116.136C213.318 118.488 213.999 120.344 215.36 121.704C216.722 123.065 218.408 124.07 220.42 124.719ZM171.176 146.758C167.926 144.964 165.373 142.459 163.517 139.242C161.659 136.026 160.699 132.375 160.638 128.292H202.882V127.457C202.882 122.818 201.891 118.674 199.911 115.023C197.93 111.374 195.222 108.528 191.787 106.486C188.352 104.445 184.529 103.424 180.321 103.424C176.05 103.424 172.181 104.46 168.716 106.532C165.248 108.606 162.541 111.497 160.591 115.209C158.642 118.92 157.667 123.128 157.667 127.828C157.667 132.53 158.719 136.736 160.823 140.448C162.927 144.159 165.821 147.052 169.504 149.123C173.186 151.197 177.38 152.232 182.085 152.232C185.674 152.232 189.017 151.552 192.112 150.191C195.206 148.831 197.836 146.882 200.004 144.345L198.054 142.304C196.258 144.655 193.969 146.432 191.184 147.639C188.398 148.845 185.365 149.449 182.085 149.449C178.061 149.449 174.425 148.553 171.176 146.758ZM200.004 125.787C199.756 122.075 198.751 118.72 196.986 115.719C195.223 112.719 192.901 110.383 190.023 108.713C187.146 107.043 183.91 106.208 180.321 106.208C176.731 106.208 173.481 107.043 170.573 108.713C167.663 110.383 165.342 112.719 163.609 115.719C161.876 118.72 160.917 122.075 160.731 125.787H200.004ZM108.479 103.795L130.482 151.954H133.546L155.55 103.795H152.301L132.061 148.521L111.821 103.795H108.479ZM100.216 123.838C100.216 118.147 98.7764 113.802 95.8984 110.801C93.0205 107.801 88.9199 106.301 83.5967 106.301C77.5928 106.301 72.8574 108.079 69.3916 111.636C65.9248 115.194 64.1924 119.973 64.1924 125.972V151.954H61.1289V103.795H64.0996V115.58C65.6465 111.807 68.1387 108.838 71.5732 106.672C75.0088 104.507 79.1084 103.424 83.876 103.424C89.8789 103.424 94.6133 105.172 98.0811 108.666C101.546 112.162 103.28 117.157 103.28 123.653V151.954H100.216V123.838Z" fill="black" fill-opacity="0.7"/>
<path fill-rule="evenodd" clip-rule="evenodd" d="M313.441 2H302.446V44.8789C302.446 50.1306 303.854 54.129 306.668 56.8743C309.483 59.6194 313.471 60.9921 318.631 60.9921C320.683 60.9921 322.633 60.7235 324.479 60.1864C326.327 59.6493 327.896 58.8436 329.186 57.7694L326.106 49.8024C324.465 51.1153 322.413 51.7717 319.95 51.7717C317.839 51.7717 316.227 51.16 315.112 49.9366C313.998 48.7133 313.441 46.9378 313.441 44.6104V2ZM472.106 60.1864C473.979 59.6493 475.569 58.8436 476.878 57.7694L473.756 49.8024C472.092 51.1153 470.011 51.7717 467.514 51.7717C465.374 51.7717 463.738 51.16 462.609 49.9366C461.479 48.7133 460.915 46.9378 460.915 44.6104V21.0754H475.066V12.0259H460.915V2H449.768V12.0259H441.92V21.0754H449.768V44.8789C449.768 50.1306 451.194 54.129 454.048 56.8743C456.901 59.6194 460.944 60.9921 466.176 60.9921C468.257 60.9921 470.233 60.7235 472.106 60.1864ZM505.103 12.4663C511.999 12.4663 517.273 14.137 520.926 17.4786C524.578 20.8201 526.404 25.8619 526.404 32.6041V60.371H516.061V54.6047C514.717 56.6747 512.803 58.2567 510.318 59.3508C507.835 60.445 504.84 60.9921 501.333 60.9921C497.827 60.9921 494.759 60.3859 492.129 59.1735C489.499 57.961 487.468 56.2755 486.036 54.1168C484.604 51.9581 483.889 49.5186 483.889 46.798C483.889 42.5398 485.452 39.1245 488.578 36.5518C491.705 33.9791 496.629 32.6927 503.35 32.6927H515.447V31.983C515.447 28.6711 514.468 26.1281 512.51 24.3538C510.553 22.5795 507.646 21.6924 503.788 21.6924C501.158 21.6924 498.572 22.1064 496.03 22.9344C493.487 23.7624 491.34 24.9156 489.587 26.3942L485.291 18.3214C487.746 16.4288 490.697 14.9799 494.146 13.9744C497.593 12.969 501.246 12.4663 505.103 12.4663ZM503.615 52.9192C506.362 52.9192 508.802 52.2834 510.936 51.0119C513.068 49.7404 514.573 47.9218 515.449 45.5561V40.0559H504.142C497.83 40.0559 494.674 42.1554 494.674 46.3545C494.674 48.3653 495.463 49.9622 497.041 51.145C498.618 52.3278 500.811 52.9192 503.615 52.9192ZM416.828 12.4663C422.755 12.4663 427.507 14.2336 431.087 17.7682C434.666 21.3028 436.455 26.5447 436.455 33.4941V60.9921H425.453V34.9319C425.453 30.7383 424.485 27.5782 422.549 25.4514C420.613 23.3247 417.855 22.2613 414.275 22.2613C410.228 22.2613 407.029 23.5044 404.683 25.9906C402.335 28.4768 401.162 32.0563 401.162 36.7292V60.9921H390.16V13.0055H400.634V19.206C402.453 16.9894 404.741 15.312 407.499 14.1737C410.257 13.0355 413.366 12.4663 416.828 12.4663ZM372.639 17.4786C368.986 14.137 363.712 12.4663 356.815 12.4663C352.959 12.4663 349.306 12.969 345.858 13.9744C342.41 14.9799 339.459 16.4288 337.004 18.3214L341.3 26.3942C343.053 24.9156 345.2 23.7624 347.743 22.9344C350.285 22.1064 352.871 21.6924 355.501 21.6924C359.358 21.6924 362.266 22.5795 364.223 24.3538C366.181 26.1281 367.16 28.6711 367.16 31.983V32.6927H355.062C348.342 32.6927 343.418 33.9791 340.291 36.5518C337.165 39.1245 335.602 42.5398 335.602 46.798C335.602 49.5186 336.317 51.9581 337.749 54.1168C339.181 56.2755 341.212 57.961 343.842 59.1735C346.472 60.3859 349.54 60.9921 353.046 60.9921C356.553 60.9921 359.548 60.445 362.031 59.3508C364.516 58.2567 366.43 56.6747 367.773 54.6047V60.371H378.117V32.6041C378.117 25.8619 376.291 20.8201 372.639 17.4786ZM355.314 52.9192C358.062 52.9192 360.501 52.2834 362.635 51.0119C364.768 49.7404 366.272 47.9218 367.148 45.5561V40.0559H355.841C349.529 40.0559 346.373 42.1554 346.373 46.3545C346.373 48.3653 347.162 49.9622 348.74 51.145C350.317 52.3278 352.51 52.9192 355.314 52.9192ZM280.345 21.0754H271.836C268.611 21.0754 266.163 21.5596 264.491 22.5443C262.82 23.5289 261.984 24.827 261.984 26.4383C261.984 28.2286 262.879 29.4968 264.668 30.2427C266.456 30.9888 269.227 31.6899 272.979 32.3464C276.732 32.9432 279.811 33.6295 282.215 34.4053C284.619 35.1812 286.687 36.4941 288.416 38.3441C290.146 40.1942 291.011 42.8199 291.011 46.2216C291.011 50.6976 289.105 54.2782 285.294 56.9637C281.482 59.6493 276.293 60.9921 269.726 60.9921C265.914 60.9921 262.19 60.4848 258.555 59.4702C254.919 58.4557 252.017 57.1726 249.847 55.621L254.068 47.1168C256.18 48.5491 258.716 49.6979 261.677 50.5632C264.639 51.4286 267.556 51.8613 270.429 51.8613C276.996 51.8613 280.28 50.1008 280.28 46.5797C280.28 44.9087 279.444 43.745 277.773 43.0885C276.102 42.4321 273.419 41.8055 269.726 41.2087C265.854 40.6119 262.703 39.9256 260.27 39.1498C257.836 38.374 255.726 37.0163 253.937 35.0767C252.148 33.1371 251.254 30.4367 251.254 26.9754C251.254 22.4398 253.116 18.8144 256.839 16.099C260.562 13.3836 265.591 12.0259 271.924 12.0259H285.022L280.345 21.0754ZM234.462 17.7682C230.882 14.2336 226.13 12.4663 220.203 12.4663C216.741 12.4663 213.632 13.0355 210.874 14.1737C208.116 15.312 205.828 16.9894 204.009 19.206V13.0055H193.535V60.9921H204.537V36.7292C204.537 32.0563 205.71 28.4768 208.058 25.9906C210.404 23.5044 213.603 22.2613 217.65 22.2613C221.23 22.2613 223.988 23.3247 225.924 25.4514C227.86 27.5782 228.828 30.7383 228.828 34.9319V60.9921H239.83V33.4941C239.83 26.5447 238.041 21.3028 234.462 17.7682ZM158.516 60.9921C153.764 60.9921 149.48 59.9571 145.667 57.8871C141.854 55.8171 138.876 52.934 136.734 49.2376C134.593 45.5413 133.522 41.3571 133.522 36.6848C133.522 32.0126 134.593 27.8431 136.734 24.1763C138.876 20.5096 141.854 17.6412 145.667 15.5712C149.48 13.5013 153.764 12.4663 158.516 12.4663C163.326 12.4663 167.639 13.5013 171.452 15.5712C175.266 17.6412 178.243 20.5096 180.385 24.1763C182.526 27.8431 183.597 32.0126 183.597 36.6848C183.597 41.3571 182.526 45.5413 180.385 49.2376C178.243 52.934 175.266 55.8171 171.452 57.8871C167.639 59.9571 163.326 60.9921 158.516 60.9921ZM168.549 47.4191C165.908 50.1396 162.564 51.4998 158.516 51.4998C154.468 51.4998 151.139 50.1396 148.527 47.4191C145.917 44.6985 144.611 41.1205 144.611 36.6849C144.611 32.2492 145.917 28.6712 148.527 25.9506C151.139 23.2301 154.468 21.8699 158.516 21.8699C162.564 21.8699 165.908 23.2301 168.549 25.9506C171.188 28.6712 172.509 32.2492 172.509 36.6849C172.509 41.1205 171.188 44.6985 168.549 47.4191Z" fill="black"/>
<path fill-rule="evenodd" clip-rule="evenodd" d="M124.214 21.2775C124.819 19.8392 125.516 18.4438 126.302 17.0912C127.328 15.3269 128.476 13.6783 129.743 12.1454C127.29 9.82294 124.455 7.97412 121.238 6.59882C117.035 4.80157 112.389 3.90295 107.298 3.90295C101.023 3.90295 95.3555 5.29584 90.2939 8.08154C85.2324 10.8673 81.252 14.7164 78.3506 19.6289C75.4502 24.5414 74 30.0828 74 36.2534C74 42.424 75.4355 47.9655 78.3066 52.878C81.1777 57.7905 85.1436 61.6396 90.2051 64.4253C95.2666 67.2111 100.935 68.6039 107.209 68.6039C112.3 68.6039 116.962 67.7053 121.194 65.9081C124.088 64.6793 126.671 63.0724 128.941 61.0875C127.987 59.8368 127.107 58.5135 126.302 57.1176C125.292 55.3671 124.432 53.5482 123.721 51.6606C119.354 56.1266 114.058 58.3596 107.831 58.3596C103.568 58.3596 99.75 57.4161 96.376 55.5289C93.002 53.6418 90.3682 51.0209 88.4736 47.666C86.5791 44.3111 85.6318 40.507 85.6318 36.2534C85.6318 31.9999 86.5791 28.1958 88.4736 24.8409C90.3682 21.486 93.002 18.8651 96.376 16.978C99.75 15.0908 103.568 14.1473 107.831 14.1473C114.294 14.1473 119.755 16.524 124.214 21.2775ZM295.513 12.0259L290.835 21.0754H327.249V12.0259H295.513Z" fill="#FF5200"/>
</svg>
