<svg width="309" height="140" viewBox="0 0 309 140" fill="none" xmlns="http://www.w3.org/2000/svg">
<rect width="309" height="140" fill="black" fill-opacity="0"/>
<rect width="204.351" height="44" fill="black" fill-opacity="0" transform="translate(52 53)"/>
<rect width="204.351" height="44" fill="black" fill-opacity="0" transform="translate(52 53)"/>
<path d="M125.956 54.8928V53.0063H134.389C134.389 68.6116 134.389 78.963 134.389 84.0607C134.389 91.7073 126.767 95.7059 119.391 95.7059C112.015 95.7059 103.906 90.8147 103.906 85.5166C103.906 85.5166 107.286 85.5166 114.046 85.5166C115.926 87.2383 117.708 88.0992 119.391 88.0992C121.915 88.0992 125.956 86.6054 125.956 84.0607V82.166C124.103 83.3728 121.914 84.0588 119.468 84.0588C110.153 84.0588 102.601 77.1061 102.601 68.5294C102.601 59.9528 110.153 53 119.468 53C121.914 53 124.103 53.686 125.956 54.8928ZM68.8671 84.0588C59.5517 84.0588 52 77.1061 52 68.5294C52 59.9528 59.5517 53 68.8671 53C78.1825 53 85.7342 59.9528 85.7342 68.5294C85.7342 77.1061 78.1825 84.0588 68.8671 84.0588ZM68.8671 77.5882C73.1665 77.5882 76.6519 73.5325 76.6519 68.5294C76.6519 63.5264 73.1665 59.4706 68.8671 59.4706C64.5677 59.4706 61.0823 63.5264 61.0823 68.5294C61.0823 73.5325 64.5677 77.5882 68.8671 77.5882ZM170.07 84.0588C160.754 84.0588 153.203 77.1061 153.203 68.5294C153.203 59.9528 160.754 53 170.07 53C179.385 53 186.937 59.9528 186.937 68.5294C186.937 77.1061 179.385 84.0588 170.07 84.0588ZM170.07 77.5882C174.369 77.5882 177.854 73.5325 177.854 68.5294C177.854 63.5264 174.369 59.4706 170.07 59.4706C165.77 59.4706 162.285 63.5264 162.285 68.5294C162.285 73.5325 165.77 77.5882 170.07 77.5882ZM119.468 76.2941C123.768 76.2941 127.253 72.8177 127.253 68.5294C127.253 64.2411 123.768 60.7647 119.468 60.7647C115.169 60.7647 111.684 64.2411 111.684 68.5294C111.684 72.8177 115.169 76.2941 119.468 76.2941ZM137.633 82.7759C137.633 79.189 137.633 73.6039 137.633 66.0206C137.633 54.6458 146.222 53 153.076 53V60.7288C150.77 60.7288 146.553 62.0264 146.553 66.0206C146.553 68.6834 146.553 74.2685 146.553 82.7759H137.633ZM199.263 53V70.4706C199.263 74.0442 202.167 76.9412 205.75 76.9412C209.333 76.9412 212.237 74.0442 212.237 70.4706V53H221.968V67.8824C221.968 71.1829 221.269 74.0805 219.97 76.477C218.67 78.8735 216.77 80.769 214.367 82.0653C211.964 83.3616 209.059 84.0588 205.75 84.0588C202.441 84.0588 199.536 83.3616 197.133 82.0653C194.73 80.769 192.83 78.8735 191.53 76.477C190.231 74.0805 189.532 71.1829 189.532 67.8824V53H199.263ZM239.484 53C248.8 53 256.351 59.9528 256.351 68.5294C256.351 77.1061 248.8 84.0588 239.484 84.0588C237.039 84.0588 234.85 83.3728 232.997 82.166V95.7078H224.563V53.0063H232.997V54.8928C234.85 53.686 237.039 53 239.484 53ZM239.484 76.2941C243.784 76.2941 247.269 72.8177 247.269 68.5294C247.269 64.2411 243.784 60.7647 239.484 60.7647C235.185 60.7647 231.699 64.2411 231.699 68.5294C231.699 72.8177 235.185 76.2941 239.484 76.2941Z" fill="#0085CA"/>
<path d="M87.032 73.7061H99.358V97.0001H90.924V80.1761H87.032V73.7061Z" fill="#A3A3A3"/>
</svg>
