<svg width="309" height="140" viewBox="0 0 309 140" fill="none" xmlns="http://www.w3.org/2000/svg">
<rect width="309" height="140" fill="black" fill-opacity="0"/>
<path fill-rule="evenodd" clip-rule="evenodd" d="M132.929 49.3999V92.6001C132.929 95.5315 130.463 98 127.536 98H84.3928C81.4653 98 79 95.5315 79 92.6001V49.3999C79 46.4685 81.4653 44 84.3928 44H127.536C130.463 44 132.929 46.4685 132.929 49.3999ZM229.384 77.0173L230 83.8059C230 83.8059 225.224 84.4229 221.68 84.4229C212.897 84.4229 208.583 81.9543 208.583 73.4688V66.6802C208.583 58.9658 211.972 55.7258 221.68 55.7258C225.378 55.7258 229.538 56.343 229.538 56.343L228.921 63.1316C228.921 63.1316 225.686 62.6687 222.296 62.6687C217.519 62.6687 216.749 64.2114 216.749 67.9143V72.3887C216.749 75.9373 217.673 77.4802 222.296 77.4802C226.148 77.4802 229.384 77.0173 229.384 77.0173ZM181.156 63.2856L180.694 56.3428H205.963L205.501 63.2856H197.489V83.96H189.168V63.2856H181.156ZM158.968 81.1829H164.207L168.675 70.6914H169.138L170.062 83.96H178.074L176.225 56.3428H168.521L161.896 72.0798H161.434L154.346 56.3428H146.796L144.947 83.96H152.805L153.575 70.6914H154.038L158.968 81.1829ZM120.602 74.8572C120.602 82.8801 115.98 90.9028 105.964 90.9028C95.7949 90.9028 91.3265 82.8801 91.3265 75.0115C91.3265 63.7485 99.1847 50.9429 105.964 50.9429C112.898 50.9429 120.602 63.5942 120.602 74.8572Z" fill="#E30613"/>
</svg>
