<svg width="309" height="140" viewBox="0 0 309 140" fill="none" xmlns="http://www.w3.org/2000/svg">
<rect width="309" height="140" fill="black" fill-opacity="0"/>
<rect width="189.992" height="56.8068" fill="black" fill-opacity="0" transform="translate(60 42.0386)"/>
<path fill-rule="evenodd" clip-rule="evenodd" d="M246.954 64.4822C246.568 64.4822 246.231 64.8186 246.231 65.2028V72.0257H237.6V65.2028C237.6 64.8186 237.261 64.4822 236.875 64.4822H234.513C234.128 64.4822 233.838 64.8186 233.838 65.2028V82.7397C233.838 83.1232 234.128 83.4616 234.513 83.4616H236.875C237.261 83.4616 237.6 83.1232 237.6 82.7397V75.4365H246.231V82.7397C246.231 83.1232 246.568 83.4616 246.954 83.4616H249.316C249.654 83.4616 249.992 83.1232 249.992 82.7397V65.2028C249.992 64.8186 249.654 64.4822 249.316 64.4822H246.954ZM228.631 56.6501C229.065 56.6501 229.403 56.9862 229.403 57.3704V59.5332C229.403 59.9175 229.065 60.2535 228.631 60.2535H213.925C213.54 60.2535 213.202 59.9175 213.202 59.5332V57.3704C213.202 56.9862 213.54 56.6501 213.925 56.6501H228.631ZM133.338 56.6501C132.952 56.6501 132.615 56.9862 132.615 57.3704V75.4366C132.615 80.2896 134.158 83.5087 140.234 83.5087H140.956C149.635 83.5087 150.937 77.7912 150.937 74.8603C150.937 72.2666 149.972 66.1157 141.342 66.1157H136.521V60.2535H147.658C148.044 60.2535 148.382 59.9175 148.382 59.5332V57.3704C148.382 56.9862 148.044 56.6501 147.658 56.6501H133.338ZM141.486 69.6709C145.007 69.6709 146.983 71.593 146.983 74.8603C146.983 78.1276 145.007 79.9058 141.486 79.9058H140.234C137.581 79.9058 136.521 78.8009 136.521 75.8217V69.6709H141.486ZM196.188 64.8187C195.946 64.9139 195.754 65.2029 195.754 65.4421V67.6053C195.754 67.7966 195.898 68.0374 196.043 68.133C196.236 68.2299 196.428 68.2785 196.621 68.2299C197.924 67.7966 199.418 67.3653 201.877 67.3653C204.914 67.3653 205.445 68.2785 205.445 70.4394V70.8236L201.25 71.1118C194.501 71.5929 194.162 75.9656 194.162 77.3116C194.162 81.2996 196.284 83.7491 201.346 83.7491C202.938 83.7491 204.722 83.2687 206.265 82.3081L206.603 83.0288C206.699 83.2687 206.941 83.4617 207.23 83.4617H208.628C208.965 83.4617 209.304 83.1731 209.304 82.788V70.488C209.304 65.9718 206.892 63.8098 201.877 63.8098C199.755 63.8098 197.682 64.1933 196.188 64.8187ZM198.165 77.3116C198.165 75.9655 198.405 74.5732 201.202 74.3317L205.397 73.947L205.445 78.9921C204.095 79.8085 203.034 80.2417 201.394 80.2417C199.804 80.2417 198.165 79.6175 198.165 77.3116ZM167.023 83.0287C167.12 83.2687 167.361 83.4616 167.65 83.4616H169.337C169.675 83.4616 170.012 83.173 170.012 82.7879V65.2028C170.012 64.8186 169.723 64.4822 169.29 64.4822H166.975C166.541 64.4822 166.251 64.8186 166.251 65.2028V77.5507C164.998 78.8956 162.732 80.0492 161.044 80.0492C158.682 80.0492 157.524 78.7525 157.524 75.4365V65.2028C157.524 64.8186 157.187 64.4822 156.801 64.4822H154.486C154.101 64.4822 153.763 64.8186 153.763 65.2028V76.6391C153.763 80.8177 156.03 83.749 160.417 83.749C163.118 83.749 165.48 82.308 166.636 81.2996L167.023 83.0287ZM226.461 83.0287C226.558 83.2687 226.798 83.4616 227.088 83.4616H228.775C229.114 83.4616 229.451 83.173 229.451 82.7879V65.2028C229.451 64.8186 229.161 64.4822 228.728 64.4822H226.413C225.979 64.4822 225.691 64.8186 225.691 65.2028V77.5507C224.436 78.8956 222.17 80.0492 220.483 80.0492C218.12 80.0492 216.962 78.7525 216.962 75.4365V65.2028C216.962 64.8186 216.625 64.4822 216.24 64.4822H213.925C213.54 64.4822 213.202 64.8186 213.202 65.2028V76.6391C213.202 80.8177 215.468 83.749 219.856 83.749C222.556 83.749 224.919 82.308 226.076 81.2996L226.461 83.0287ZM175.985 76.7818C175.743 79.3285 175.068 79.9539 172.899 80.1931C172.562 80.2417 172.225 80.5773 172.225 80.962V82.8832C172.225 83.2687 172.562 83.6047 172.899 83.6047C177.142 83.6047 179.265 81.5858 179.698 76.5897L180.132 72.121C180.42 68.9983 181.048 68.0373 183.892 68.0373H187.027V82.7397C187.027 83.1232 187.365 83.4616 187.75 83.4616H190.064C190.402 83.4616 190.788 83.1232 190.788 82.7397V65.2028C190.788 64.8186 190.402 64.4822 190.064 64.4822H183.7C178.443 64.4822 176.901 67.5092 176.467 71.785L175.985 76.7818V76.7818Z" fill="#17170E"/>
<rect width="56.8863" height="56.8068" fill="black" fill-opacity="0" transform="translate(60 42.0386)"/>
<path fill-rule="evenodd" clip-rule="evenodd" d="M88.4431 42.0386C104.142 42.0386 116.886 54.7648 116.886 70.442C116.886 86.1192 104.142 98.8454 88.4431 98.8454C72.744 98.8454 60 86.1192 60 70.442C60 54.7648 72.744 42.0386 88.4431 42.0386V42.0386Z" fill="url(#paint0_linear)"/>
<mask id="mask0" mask-type="alpha" maskUnits="userSpaceOnUse" x="60" y="42" width="57" height="57">
<path fill-rule="evenodd" clip-rule="evenodd" d="M88.4431 42.0386C104.142 42.0386 116.886 54.7648 116.886 70.442C116.886 86.1192 104.142 98.8454 88.4431 98.8454C72.744 98.8454 60 86.1192 60 70.442C60 54.7648 72.744 42.0386 88.4431 42.0386V42.0386Z" fill="white"/>
</mask>
<g mask="url(#mask0)">
<path d="M67.1416 51.5678C80.8706 50.3997 95.9541 50.3382 109.745 51.5678C104.512 45.6658 96.9392 41.9771 88.4432 41.9771C79.9472 42.0385 72.3746 45.7273 67.1416 51.5678V51.5678Z" fill="black"/>
<path d="M109.991 88.9473C96.6313 89.9924 80.7475 90.0539 66.8337 88.9473C72.0668 95.0337 79.7624 98.8454 88.4431 98.8454C97.0623 98.8454 104.819 95.0337 109.991 88.9473V88.9473Z" fill="black"/>
<path d="M60.9235 63.249C79.4546 62.9416 97.4932 62.8801 115.963 63.249C116.578 65.5852 116.886 67.9829 116.886 70.4421C116.886 72.5938 116.64 74.7456 116.209 76.7129C97.4932 77.2663 79.0237 77.1433 60.6772 76.7129C60.2463 74.6841 60 72.5938 60 70.4421C60 67.9214 60.3078 65.5237 60.9235 63.249V63.249Z" fill="black"/>
<path fill-rule="evenodd" clip-rule="evenodd" d="M130.246 55.1335C130.246 70.6878 117.563 83.291 101.987 83.291C86.3499 83.291 73.729 70.6878 73.729 55.1335C73.729 39.5793 86.4114 26.9761 101.987 26.9761C117.625 26.9761 130.246 39.5793 130.246 55.1335Z" fill="url(#paint1_radial)"/>
</g>
<defs>
<linearGradient id="paint0_linear" x1="59.9727" y1="98.868" x2="116.902" y2="98.868" gradientUnits="userSpaceOnUse">
<stop stop-color="#D89141"/>
<stop offset="0.1" stop-color="#FBB034"/>
<stop offset="0.3" stop-color="#FFC233"/>
<stop offset="0.4893" stop-color="#FFDD2F"/>
<stop offset="0.65" stop-color="#FFF32A"/>
<stop offset="0.737" stop-color="#FFE42F"/>
<stop offset="0.8871" stop-color="#F2C837"/>
<stop offset="1" stop-color="#E6B13B"/>
</linearGradient>
<radialGradient id="paint1_radial" cx="0" cy="0" r="1" gradientUnits="userSpaceOnUse" gradientTransform="translate(101.998 55.1082) scale(28.2327 28.1318)">
<stop stop-color="white" stop-opacity="0.7"/>
<stop offset="1" stop-color="white" stop-opacity="0.01"/>
</radialGradient>
</defs>
</svg>
