<svg width="309" height="140" viewBox="0 0 309 140" fill="none" xmlns="http://www.w3.org/2000/svg">
<path fill-rule="evenodd" clip-rule="evenodd" d="M56.5546 90.5249H91.3004C91.6058 90.5249 91.8493 90.7792 91.8493 91.0943V97.4306C91.8493 97.7481 91.6058 97.9999 91.3004 97.9999H56.5546C56.2467 97.9999 56 97.7481 56 97.4306V91.0943C56 90.7792 56.2467 90.5249 56.5546 90.5249ZM73.9275 42C77.7299 42 78.9254 44.7304 79.9235 47.462C80.3475 48.6197 90.2254 75.7407 90.52 76.553C90.6027 76.7813 90.5484 77.1521 90.1995 77.2868C89.8494 77.4216 84.7164 79.4206 84.4338 79.5282C84.1499 79.6357 83.8307 79.4763 83.7253 79.1954C83.6206 78.9152 81.4938 73.0015 81.2528 72.3391H66.6198C66.3782 73.0015 64.2294 78.924 64.131 79.1954C64.0319 79.4674 63.724 79.6503 63.425 79.5282C63.1234 79.4092 57.9678 77.4051 57.663 77.2868C57.3684 77.1767 57.2321 76.8383 57.3375 76.553C57.7003 75.537 67.4261 48.8538 67.9245 47.462C68.8867 44.7721 70.1264 42 73.9275 42ZM212.839 72.0887C212.839 75.8933 210.525 78.2643 206.069 78.2643C204.12 78.2643 202.223 77.9366 200.28 77.2237L200.281 59.5414C201.528 59.2016 204.147 58.7791 205.831 58.7791C207.54 58.7791 209.742 58.9903 211.263 59.3301L211.168 62.1079C209.831 61.9447 208.308 61.8789 207.108 61.8789C205.837 61.8789 204.682 61.963 204.009 62.0592L204.017 66.8177C205.101 66.5609 205.8 66.4641 206.804 66.4641C210.894 66.4641 212.839 68.7586 212.839 72.0887ZM166.212 82.3257H162.703V77.4982C162.258 77.7626 161.368 78.1504 159.861 78.1504C156.658 78.1504 154.683 75.7522 154.683 71.2074C154.683 66.3148 156.868 64.1354 160.458 64.1354C161.369 64.1354 161.966 64.2278 162.703 64.5814V58.8113H166.212V64.5814C166.952 64.2278 167.545 64.1354 168.458 64.1354C172.047 64.1354 174.23 66.2281 174.23 71.1252C174.23 75.6668 172.033 78.1504 169.049 78.1504C167.549 78.1504 166.658 77.7626 166.212 77.4982V82.3257ZM136.254 77.9257V67.3597C135.322 67.2218 135.166 67.1921 134.417 67.1921C133.671 67.1921 133.487 67.2218 132.551 67.3597V72.2379C132.551 76.1614 131.487 77.3969 128.659 78.1933L127.698 76.1266C128.409 75.6546 128.669 75.0416 128.863 74.5298C129.059 73.9491 129.092 73.4069 129.092 71.6027V64.9716C131.026 64.3934 132.478 64.1448 134.417 64.1448C136.356 64.1448 137.845 64.3934 139.778 64.9716V77.9257H136.254ZM187.311 76.6333L185.058 78.1933C184.771 78.101 184.071 77.5784 183.718 77.0603C183.137 77.4462 182.939 77.5575 182.492 77.7549C181.746 78.0579 180.807 78.2243 179.904 78.2243C177.474 78.2243 175.495 76.7674 175.495 74.094C175.495 71.2522 177.35 69.5271 180.873 69.5271C181.552 69.5271 182.136 69.6283 182.655 69.7681V69.1096C182.655 67.3597 182.385 67.0188 180.053 67.0188C179.306 67.0188 178.275 67.139 177.283 67.2775L176.761 64.6825C178.217 64.3118 179.743 64.1448 181.294 64.1448C183.492 64.1448 184.685 64.5762 185.399 65.5846C185.915 66.3014 186.141 67.0188 186.141 68.9748V72.5966C186.141 74.3793 186.382 75.2156 187.311 76.6333ZM225.887 76.6333L223.633 78.1933C223.348 78.101 222.641 77.5784 222.289 77.0603C221.709 77.4462 221.515 77.5575 221.065 77.7549C220.321 78.0579 219.38 78.2243 218.476 78.2243C216.052 78.2243 214.069 76.7674 214.069 74.094C214.069 71.2522 215.923 69.5271 219.446 69.5271C220.126 69.5271 220.708 69.6283 221.226 69.7681V69.1096C221.226 67.3597 220.956 67.0188 218.628 67.0188C217.882 67.0188 216.845 67.139 215.857 67.2775L215.335 64.6825C216.793 64.3118 218.311 64.1448 219.867 64.1448C222.067 64.1448 223.257 64.5762 223.972 65.5846C224.492 66.3014 224.712 67.0188 224.712 68.9748V72.5966C224.712 74.3793 224.954 75.2156 225.887 76.6333ZM142.46 64.3599H145.981V68.761C146.906 68.5364 147.398 68.4251 148.239 68.4251C151.552 68.4251 153.324 70.2141 153.324 73.1064C153.324 76.3018 151.322 78.2408 147.581 78.2408C145.95 78.2408 144.116 77.9245 142.446 77.2172L142.46 64.3599ZM235.126 77.9258V72.4347H231.138V77.9258H227.62V64.4827H231.138V69.5645H235.126V64.4827H238.651V77.9258H235.126ZM249.16 77.9256C249.16 77.9256 247.971 75.0093 247.344 73.7377C246.81 72.673 246.636 72.4231 245.629 72.4231L245.15 72.4307V77.9256H241.613V64.4825H245.15V69.5618H245.741C246.653 69.5618 246.819 69.2455 247.159 68.5363C247.489 67.8442 247.752 67.297 248.081 66.6189C248.391 65.9812 248.642 65.4397 249.007 65.074C249.475 64.597 249.968 64.3275 250.923 64.2699C251.499 64.2352 252.057 64.2377 252.563 64.3041L252.383 66.7511C252.383 66.7511 251.911 66.6321 251.564 66.9472C251.211 67.2572 251.034 67.5381 250.43 68.8526C249.806 70.1944 249.227 70.6379 248.501 70.7739V70.8359C249.589 71.0965 250.075 71.824 250.607 72.8805C251.076 73.8098 253 77.9256 253 77.9256H249.16ZM122.654 77.9246C122.654 77.9246 122.166 76.2772 121.56 74.2339H114.839C114.201 76.2785 113.679 77.9246 113.679 77.9246H109.791L116.291 59.1339C117.022 58.9036 117.353 58.7803 118.283 58.7803C119.133 58.7803 119.939 58.9163 120.583 59.1339L126.713 77.9246H122.654ZM195.46 71.203C195.46 72.4543 194.454 73.4602 193.215 73.4602C191.975 73.4602 190.966 72.4543 190.966 71.203C190.966 69.9637 191.975 68.949 193.215 68.949C194.454 68.949 195.46 69.9637 195.46 71.203ZM73.8985 50.8567L68.9479 65.7523H78.9255L73.9597 50.8567H73.8985ZM209.09 72.3555C209.09 70.4152 208.129 69.5454 206.275 69.4752C205.293 69.4404 204.432 69.5739 204.017 69.6422V75.0789C204.959 75.3345 205.551 75.3332 206.275 75.3332C208.099 75.3332 209.09 74.1521 209.09 72.3555ZM158.301 71.2073C158.301 73.6802 159.055 75.1883 160.898 75.1883C161.579 75.1883 161.94 75.1542 162.703 74.903V67.4811C161.862 67.0782 161.409 67.0845 160.728 67.0845C159.112 67.0845 158.301 68.5079 158.301 71.2073ZM170.615 71.125C170.615 68.4212 169.805 67.0845 168.186 67.0845C167.507 67.0845 167.053 67.0782 166.212 67.4811V74.903C166.979 75.1542 167.338 75.1883 168.017 75.1883C169.632 75.1883 170.615 73.596 170.615 71.125ZM182.836 75.0834C182.706 74.6386 182.655 73.958 182.655 72.9141V71.9462C182.457 71.876 182.034 71.8127 181.614 71.8127C179.869 71.8127 178.965 72.2714 178.965 73.6182C178.965 74.9157 179.68 75.4123 180.941 75.4123C181.552 75.4123 182.062 75.3516 182.836 75.0834ZM221.411 75.0834C221.281 74.6386 221.226 73.958 221.226 72.9141V71.9462C221.033 71.876 220.612 71.8127 220.189 71.8127C218.444 71.8127 217.54 72.2714 217.54 73.6182C217.54 74.9157 218.249 75.4123 219.512 75.4123C220.126 75.4123 220.636 75.3516 221.411 75.0834ZM149.681 73.2697C149.681 72.0006 149.14 71.2124 147.523 71.2124C146.978 71.2124 146.897 71.2421 145.979 71.4199V75.2972C146.719 75.5047 146.952 75.5047 147.523 75.5047C149.216 75.5047 149.681 74.5969 149.681 73.2697ZM115.826 71.0852H120.625C120.625 71.0852 119.554 67.261 119.394 66.7088C118.987 65.2866 118.361 62.7859 118.361 62.7859H118.25C118.25 62.7859 117.571 65.1974 117.119 66.7309C116.948 67.3192 115.826 71.0852 115.826 71.0852Z" fill="#919191"/>
</svg>
