<svg width="309" height="140" viewBox="0 0 309 140" fill="none" xmlns="http://www.w3.org/2000/svg">
<path d="M146.6 54.6L137.7 63.5L142.6 68.3L151.4 59.5L154.9 56L158.3 59.5L167.2 68.3L172.1 63.5L163.2 54.6H175.7V47.7H163.2L172.1 38.8L167.2 34L158.3 42.8V30.3H151.4V42.8L142.6 34L137.7 38.8L146.6 47.7H134V54.6H146.6Z" fill="#F5CF00"/>
<path fill-rule="evenodd" clip-rule="evenodd" d="M120 107.2V17H189.7V107.2H120ZM158.3 100.5H183.101V23.7H126.7V100.5H151.4V86.0999V73.5999L145.101 79.8999L140.3 75L146.601 68.7L150 65.3L151.4 63.8999L153.4 61.8L154.9 60.3999L156.3 61.8L158.3 63.8999L163.2 68.7L169.5 75L164.601 79.8999L158.3 73.5999V84.2V100.5Z" fill="#F5CF00"/>
<path d="M120.1 139.2V117.5H125.7V139.2H120.1Z" fill="black"/>
<path d="M129.9 139.2V134.9C139.3 128.1 141 126.6 141 124.4C141 122.9 139.6 122.2 138.1 122.2C135.9 122.1 133.8 123 132.3 124.5L129.2 120.8C131.5 118.3 134.9 117.2 138 117.2C143.1 117.2 146.7 120.1 146.7 124.4C146.7 127.7 144.4 130.6 138.9 134.3H146.9V139.2H129.9Z" fill="black"/>
<path fill-rule="evenodd" clip-rule="evenodd" d="M150.9 139.2V117.5H163.2C167.5 117.5 169.601 120.3 169.601 123.1C169.601 125.8 167.9 127.6 165.9 128C168.2 128.4 170 130.6 170 133.3C170 136.5 167.9 139.2 163.601 139.2H150.9ZM163.9 124C163.9 123 163.1 122.2 162 122.2H156.5V125.8H162C162.5 125.9 163 125.7 163.3 125.4C163.7 125 163.9 124.5 163.9 124ZM162.2 130.6C163.5 130.6 164.3 131.5 164.3 132.5V132.6C164.3 133.7 163.5 134.5 162.2 134.5H156.5V130.6H162.2Z" fill="black"/>
<path d="M173.9 139.2V117.5H189.7V122.4H179.4V125.8H189.5V130.7H179.4V139.2H173.9Z" fill="black"/>
</svg>
