<svg width="309" height="140" viewBox="0 0 309 140" fill="none" xmlns="http://www.w3.org/2000/svg">
<path fill-rule="evenodd" clip-rule="evenodd" d="M242.014 64.7638H246.624C254.837 64.6108 258.005 73.2504 254.724 79.1122C253.213 81.9677 250.226 83.7065 247.022 83.5949H238.201C237.145 83.6332 236.121 83.225 235.376 82.4687C234.631 81.7123 234.231 80.6764 234.274 79.6103V59.9938C234.233 58.9775 234.594 57.9865 235.277 57.2389C235.961 56.4916 236.91 56.0492 237.917 56.0095C238.968 55.9347 240.003 56.3054 240.773 57.0322C241.543 57.759 241.979 58.7763 241.976 59.8408C242.014 60.488 242.028 61.1257 242.031 61.7717C242.032 62.2841 242.028 62.8014 242.023 63.3327C242.018 63.7973 242.014 64.2724 242.014 64.7638ZM155.702 70.1662C155.673 73.9872 154.09 77.6281 151.324 80.2363C148.559 82.8444 144.854 84.1904 141.077 83.9589C137.319 84.0834 133.672 82.6637 130.969 80.0246C128.267 77.3854 126.739 73.7521 126.736 69.9555C126.888 61.6222 133.167 55.9135 142.044 56.0285C145.715 56.0637 149.221 57.5756 151.784 60.2292C154.348 62.883 155.758 66.4592 155.702 70.1662ZM94.9048 68.8061C98.6987 70.7216 100.008 72.9054 99.4575 76.373C99.0056 80.2233 95.8572 83.1757 92.0215 83.3459C88.1582 83.6247 84.2832 83.7016 80.4121 83.5759C78.5142 83.5031 77.0222 81.9113 77.0545 79.9936V59.9941C77.0071 58.216 78.3357 56.7067 80.0896 56.5458C84.4509 56.039 88.8628 56.1938 93.1785 57.0055C95.6736 57.3798 97.627 59.3681 97.9778 61.8906C98.6326 64.4914 97.4724 67.2118 95.1514 68.5187C95.136 68.5319 95.1209 68.5456 95.106 68.5595L95.0781 68.5868L95.0508 68.6152C94.9961 68.6735 94.9473 68.7375 94.9048 68.8061ZM60.4941 76.5837V72.7524L62.4858 72.7907C62.4858 72.7907 66.147 72.8481 68.1768 72.7907C70.2066 72.7331 71.9707 71.871 71.9707 69.9172C71.9707 67.9631 70.2444 67.0436 68.1768 67.0436H60.5889V63.2123H62.4858C63.8667 63.2123 65.177 63.2934 66.4871 63.3744L66.4981 63.3752L66.5083 63.3759C67.8184 63.457 69.1289 63.538 70.51 63.538C71.436 63.6117 72.3518 63.2992 73.0437 62.673C73.7354 62.0468 74.1428 61.1616 74.1712 60.2238C74.3159 59.2573 74.0332 58.2753 73.3977 57.5378C72.7625 56.8002 71.8384 56.3815 70.8704 56.3925C66.1851 56.2775 61.4995 56.2585 56.814 56.3925C55.7507 56.3476 54.7207 56.7721 53.9922 57.5558C53.2637 58.3393 52.9089 59.404 53.02 60.4728V79.4572C52.9236 80.5954 53.335 81.7177 54.1421 82.5182C54.9495 83.3185 56.0681 83.7133 57.1934 83.5949H70.2825C71.2625 83.7253 72.2495 83.413 72.9807 82.7411C73.7119 82.0693 74.1128 81.1061 74.0762 80.1086C74.0303 79.079 73.5632 78.1149 72.7864 77.4465C72.0095 76.7783 70.9927 76.4658 69.9788 76.5837H60.4941ZM195.273 72.7907L193.281 72.7524V76.5837H202.766C203.78 76.4658 204.797 76.7783 205.573 77.4465C206.35 78.1149 206.817 79.079 206.863 80.1086C206.9 81.1061 206.499 82.0693 205.768 82.7411C205.037 83.413 204.05 83.7253 203.07 83.5949H189.98C188.855 83.7133 187.737 83.3185 186.929 82.5182C186.122 81.7177 185.711 80.5954 185.807 79.4572V60.4728C185.696 59.404 186.051 58.3393 186.779 57.5558C187.508 56.7721 188.538 56.3476 189.601 56.3925C194.287 56.2585 198.972 56.2775 203.657 56.3925C204.625 56.3815 205.55 56.8002 206.185 57.5378C206.82 58.2753 207.103 59.2573 206.958 60.2238C206.93 61.1616 206.522 62.0468 205.831 62.673C205.139 63.2992 204.223 63.6117 203.297 63.538C201.916 63.538 200.605 63.457 199.295 63.3759L199.285 63.3752C198.658 63.3364 198.031 63.2975 197.396 63.2675C196.701 63.2346 195.997 63.2123 195.273 63.2123H193.376V67.0436H200.964C203.031 67.0436 204.758 67.9631 204.758 69.9172C204.758 71.871 202.994 72.7331 200.964 72.7907C198.934 72.8481 195.273 72.7907 195.273 72.7907ZM110.157 79.7826V76.2004C110.336 76.2004 110.514 76.2013 110.69 76.2028C110.852 76.204 111.013 76.2057 111.173 76.2079C111.529 76.2128 111.88 76.2194 112.226 76.226H112.23C113.707 76.2541 115.099 76.2804 116.454 76.162C121.362 75.7067 125.052 71.4411 124.839 66.4687C125.245 61.4435 121.577 57.0217 116.606 56.5456C113.211 56.3542 109.777 56.3542 106.382 56.3542C105.249 56.2758 104.141 56.7145 103.362 57.549C102.583 58.3837 102.215 59.5268 102.36 60.6642V79.6486C102.229 80.7416 102.57 81.8388 103.296 82.6601C104.023 83.4814 105.064 83.9477 106.154 83.9396C107.254 84.0051 108.328 83.5839 109.097 82.7858C109.865 81.9877 110.252 80.8915 110.157 79.7826ZM158.434 71.4899C159.202 78.8456 165.537 84.3078 172.851 83.9206C173.101 83.9206 173.35 83.9299 173.602 83.9191C173.867 83.9079 174.134 83.8749 174.407 83.7866C176.716 83.6786 178.952 82.9369 180.875 81.6408C182.497 80.5307 183.015 78.3554 182.07 76.6218C181.111 74.8749 178.947 74.2201 177.195 75.1469C176.911 75.2638 176.638 75.4042 176.365 75.5453C176.265 75.5966 176.166 75.6479 176.065 75.6982C175.944 75.7592 175.821 75.8185 175.696 75.8747C173.229 77.0275 170.315 76.55 168.336 74.6679C166.491 72.5671 166.031 69.5715 167.16 67.0053C168.258 64.5793 170.804 63.1694 173.42 63.5378C174.67 63.7746 175.882 64.1806 177.024 64.7448C178.746 65.6181 180.843 65.0497 181.899 63.423C182.842 61.8078 182.489 59.7407 181.065 58.538C180.764 58.2748 180.44 58.0412 180.098 57.84C179.925 57.7387 179.748 57.6454 179.566 57.561C176.58 56.122 173.219 55.6791 169.968 56.2966C162.734 57.4579 157.666 64.134 158.434 71.4899ZM224.372 63.6721V79.9553C224.469 81.5151 223.59 82.9697 222.172 83.5949C220.875 84.2504 219.321 84.1015 218.169 83.2118C217.073 82.4047 216.487 81.068 216.633 79.7062V63.4614H212.175C211.197 63.5246 210.236 63.1784 209.518 62.5043C208.801 61.8305 208.389 60.8879 208.381 59.8981C208.367 58.8996 208.771 57.9416 209.493 57.2595C210.215 56.5773 211.189 56.2348 212.175 56.3158H229.058C230.383 56.2177 231.652 56.8764 232.345 58.0224C233.037 59.1681 233.037 60.6088 232.345 61.7548C231.652 62.9006 230.383 63.5593 229.058 63.4614H224.96C224.753 63.4936 224.553 63.5651 224.372 63.6721ZM134.75 70.0224C134.75 66.3989 137.659 63.4614 141.248 63.4614C144.699 63.6498 147.403 66.5314 147.403 70.0224C147.403 73.5136 144.699 76.3952 141.248 76.5837C137.659 76.5837 134.75 73.6462 134.75 70.0224ZM84.7561 77.2541C86.6531 77.2541 88.2654 77.2541 89.9348 77.0051C91.073 76.8901 91.5662 76.0663 91.6421 74.936C91.718 73.8058 91.3765 72.6564 90.1436 72.4648C88.9126 72.2643 87.6631 72.2131 86.4016 72.1613C85.8552 72.1388 85.3064 72.1164 84.7561 72.0817V77.2541ZM85.9504 67.2123L85.9358 67.2138H85.9336C85.5483 67.2441 85.1567 67.2748 84.7561 67.3117V62.81C85.1621 62.8332 85.5628 62.8493 85.96 62.8652C86.8806 62.9023 87.7817 62.9387 88.6829 63.059C89.6204 63.1789 90.2979 64.0236 90.2192 64.9748C90.3574 65.8762 89.7607 66.7248 88.8726 66.8903C87.9277 67.0563 86.9634 67.1325 85.9504 67.2123ZM110.157 69.6872H113.647C113.988 69.717 114.33 69.717 114.671 69.6872C116.208 69.3998 116.929 68.4611 117.004 66.6413C117.08 64.8212 116.397 63.5187 114.994 63.3654C113.383 63.2758 111.768 63.2758 110.157 63.3654V69.6872ZM245.979 76.9286H242.014L242.071 71.4689C243.656 71.3676 245.247 71.3676 246.832 71.4689C248.103 71.6222 248.653 72.944 248.464 74.6681C248.392 75.9836 247.282 76.9938 245.979 76.9286Z" fill="#919191"/>
</svg>
