<svg width="309" height="140" viewBox="0 0 309 140" fill="none" xmlns="http://www.w3.org/2000/svg">
<path fill-rule="evenodd" clip-rule="evenodd" d="M170.776 65.5422C170.776 69.033 172.573 71.824 176.925 72.5569L187.078 74.2312C188.276 74.4397 188.685 75.1726 188.685 75.9055C188.685 77.0925 187.929 77.9287 185.155 77.9287C183.766 77.9287 182.79 77.7551 182.128 77.4062C181.496 77.0222 181.212 76.4648 181.183 75.6267H170.462C170.494 82.9534 177.965 84 184.808 84C194.802 84 199.28 81.1389 199.28 75.0693C199.28 70.8477 196.505 68.5437 192.027 67.811L181.403 66.0664C180.519 65.9263 180.235 65.4739 180.235 64.7761C180.235 63.7295 181.151 62.9966 183.798 62.9966C184.776 62.9966 185.785 63.135 186.573 63.519C187.394 63.8679 187.929 64.4956 187.929 65.509H198.271C197.956 60.2388 193.825 57.3442 183.798 57.3442C176.484 57.3442 170.776 59.0886 170.776 65.5422ZM92.6471 83.1289H83.7543V58.2156H102.105C108.411 58.2156 110.744 61.3555 110.744 66.9045C110.744 71.6838 108.474 75.3831 102.168 75.3831H92.6471V83.1289ZM137.608 58.2156H113.676V83.1289H137.608V77.0574H122.567V73.707H136.535V67.6375H122.567V64.2869H137.608V58.2156ZM141.328 83.1289H150.219V75.3831H159.742C166.047 75.3831 168.318 71.6838 168.318 66.9045C168.318 61.3555 165.984 58.2156 159.679 58.2156H141.328V83.1289ZM202.18 58.2156H211.071V83.1289H202.18V58.2156ZM240.237 81.1738C242.445 79.3611 243.453 76.7085 244.02 73.4282H233.993C233.268 76.4297 231.598 77.7202 228.79 77.7202C225.543 77.7202 223.306 75.7319 223.306 70.6721C223.306 65.6123 225.606 63.6243 229.233 63.6243C232.67 63.6243 233.741 66.2068 233.993 67.9863H244.02C242.854 58.1104 234.593 57.3442 229.233 57.3442C223.842 57.3442 213.846 57.7615 213.846 70.6721C213.846 83.583 223.842 84 229.233 84C234.656 84 238.061 82.9885 240.237 81.1738ZM246.196 70.6721C246.196 83.583 256.192 84 261.582 84C266.973 84 276.969 83.583 276.969 70.6721C276.969 57.7615 266.973 57.3442 261.582 57.3442C256.192 57.3442 246.196 57.7615 246.196 70.6721ZM261.582 63.6243C257.956 63.6243 255.654 65.6123 255.654 70.6721C255.654 75.7319 257.956 77.7202 261.582 77.7202C265.209 77.7202 267.511 75.7319 267.511 70.6721C267.511 65.6123 265.209 63.6243 261.582 63.6243ZM92.6471 64.0784H98.3854C100.622 64.0784 101.475 64.8445 101.475 66.7292C101.475 68.5437 100.622 69.3118 98.3854 69.3118H92.6471V64.0784ZM155.957 64.0784H150.219V69.3118H155.957C158.196 69.3118 159.049 68.5437 159.049 66.7292C159.049 64.8445 158.196 64.0784 155.957 64.0784Z" fill="#919191"/>
<path fill-rule="evenodd" clip-rule="evenodd" d="M49.9194 27C42.6113 27 34.0428 32.25 34.0428 37.0476C34.0428 38.7461 35.4691 40.2051 38.4137 40.4419C38.0552 41.9988 37.8128 43.8125 37.8128 45.8752C37.8128 45.9995 37.8135 46.1235 37.8148 46.2473C33.6452 46.1992 31.0237 44.1208 31.0237 41.1089C31.0237 40.1941 31.2064 39.5752 31.2705 39.3579L31.2794 39.3274L31.1312 39.2703C30.9254 39.6248 30.1044 41.2271 30.1044 42.8699C30.1044 45.7424 32.8508 48.4199 37.9294 48.718C38.1185 50.9956 38.5331 53.1482 39.1406 55.1475H39.062C32.0597 55.1475 29.4612 51.9021 29.1479 50.0913H29.0052C28.8457 53.5059 32.3324 57.3425 39.9752 57.5083C40.8821 59.7429 42.0455 61.7424 43.4099 63.459C43.1542 63.467 42.901 63.4709 42.6503 63.4709C38.2761 63.4709 34.5303 62.2156 32.6286 60.5598L32.5063 60.6501C33.2644 61.9998 36.8545 65.3225 43.729 65.3225C44.168 65.3225 44.6091 65.3125 45.0519 65.293C46.9018 67.1245 49.022 68.5034 51.3097 69.3411C48.6759 69.6272 45.9032 69.5405 43.0619 68.9536L43.0062 69.1345C43.061 69.1545 43.1247 69.1785 43.1971 69.2058C44.2073 69.5859 46.907 70.6021 50.8834 70.6021C60.5232 70.6021 67.0399 64.6394 69.6644 60.1094L69.4753 59.9822C68.5504 61.1082 67.3865 62.2434 66.0205 63.3196C65.7173 61.5833 65.2958 59.8735 64.7757 58.2024C66.8163 56.6499 68.557 54.9016 69.8619 53.0171C70.2449 54.8362 70.4053 56.6665 70.3186 58.4629L70.5521 58.5237C70.8506 57.5767 71.0173 56.2717 71.0322 54.1672C71.0322 53.2957 70.953 52.4036 70.7993 51.5017C71.8534 49.5718 72.4463 47.5244 72.4463 45.4172C72.4463 43.9719 72.1201 43.0471 72.0571 42.844L71.8939 42.8809C71.9237 45.0837 71.3193 47.1895 70.2398 49.1558C69.6677 47.281 68.7983 45.3994 67.6728 43.5974C68.5807 41.9053 69.086 40.1511 69.086 38.3916C69.086 35.5635 67.2826 34.0701 66.9842 33.843L66.8656 33.9426C67.0936 34.3506 67.4957 35.2681 67.4957 36.7432C67.4957 38.2812 67.0154 39.8582 66.1496 41.4106C64.8504 39.7288 63.3231 38.1565 61.6061 36.7747C62.1659 35.6194 62.473 34.4456 62.473 33.2856C62.473 29.9463 59.2943 28.1279 57.0887 27.7532L57.048 27.8823C57.7337 28.1001 60.2469 29.2612 60.2469 32.239C60.2469 33.1855 59.9625 34.1868 59.4392 35.2012C57.9092 34.2034 56.2619 33.3555 54.5184 32.7024C54.8898 31.9585 55.0906 31.2183 55.0906 30.511C55.0906 28.2166 52.8775 27 49.9194 27ZM69.2602 50.7236C68.655 48.7983 67.8074 46.9077 66.7471 45.1064C65.4413 46.9949 63.6488 48.7795 61.5239 50.3757C62.4609 52.1699 63.3047 54.0474 64.022 55.9878C66.1053 54.4194 67.9077 52.6499 69.2602 50.7236ZM62.8222 56.8479C62.0199 54.9673 61.1208 53.1296 60.1492 51.3513C57.6815 53.0061 54.855 54.4146 51.8716 55.4653C52.8628 57.3701 53.9057 59.2104 54.9836 60.9319C57.7474 59.8604 60.4341 58.4795 62.8222 56.8479ZM53.5877 61.4448C52.4081 59.7356 51.294 57.8977 50.2666 55.9912C47.4237 56.8538 44.4742 57.385 41.5847 57.4934C42.5415 59.6399 43.7412 61.6213 45.1385 63.3481C47.838 63.0908 50.7339 62.4355 53.5877 61.4448ZM46.7814 65.1687C49.5322 64.8962 52.3115 64.27 54.9742 63.3533C56.1581 64.8989 57.3955 66.3042 58.6678 67.5156C56.8126 68.2429 54.822 68.8113 52.7294 69.1492C50.5534 68.2915 48.5481 66.9197 46.7814 65.1687ZM56.2578 62.8855C58.9311 61.8564 61.4587 60.5364 63.6872 58.9927C64.2983 60.6011 64.8345 62.2349 65.281 63.8845C63.6073 65.1101 61.6722 66.24 59.5353 67.1592C58.426 65.9001 57.3285 64.459 56.2578 62.8855ZM38.9566 38.4978C38.7597 39.0935 38.5749 39.7417 38.4137 40.4419C38.5526 40.4531 38.6949 40.4617 38.8406 40.4673C38.9834 40.4729 39.1295 40.4756 39.2788 40.4756L39.436 40.4749C39.1932 41.9475 39.0306 43.6394 39.0306 45.5337C39.0306 45.7637 39.0334 45.9934 39.039 46.2231C41.2624 46.1208 43.4731 45.7085 45.5812 45.0676C44.9989 43.2732 44.5215 41.5134 44.1651 39.833C44.3011 39.7974 44.4365 39.7605 44.5711 39.7224C44.6488 39.7004 44.7263 39.678 44.8036 39.655C44.9501 39.6118 45.0957 39.5669 45.2405 39.5205C45.7586 41.1577 46.3526 42.8611 47.0111 44.593C49.3764 43.7407 51.5788 42.6111 53.4819 41.3291C52.3342 39.8894 51.1643 38.5405 49.995 37.2986C50.3382 37.0789 50.6684 36.8516 50.984 36.6179C52.2369 37.7319 53.5012 39.0098 54.7391 40.427C56.4311 39.1328 57.8171 37.7241 58.7755 36.3115C57.3008 35.238 55.7145 34.3008 54.0344 33.533C53.3202 34.606 52.2732 35.6638 50.984 36.6179C50.4465 36.1401 49.9111 35.6921 49.381 35.2764C50.4842 34.4819 51.3951 33.6018 52.0043 32.7058C50.2262 32.0671 48.3586 31.6162 46.4203 31.3879L46.4443 31.2236C48.5119 31.2236 50.5079 31.5068 52.4078 32.022C52.6852 31.4663 52.8368 30.9116 52.8368 30.3745C52.8368 29.5142 52.1417 27.6812 48.5183 27.6812C42.9598 27.6812 35.7906 32.095 35.7906 35.8218C35.7906 37.3171 36.8954 38.2908 38.9566 38.4978ZM39.8237 38.5391C39.6821 39.1345 39.5505 39.7803 39.436 40.4749C41.0549 40.4607 42.6495 40.2292 44.1651 39.833C44.1174 39.6079 44.0719 39.3843 44.0284 39.1621C44.0083 39.0588 43.9886 38.9561 43.9695 38.8535C43.9122 38.5474 43.8592 38.2444 43.8107 37.9448C44.1023 37.8618 44.3923 37.7712 44.6799 37.6733C44.8552 38.2781 45.0423 38.8943 45.2405 39.5205C46.9835 38.9626 48.5982 38.1929 49.995 37.2986C49.7313 37.0186 49.4676 36.7439 49.2043 36.4749L48.9447 36.2112C48.8168 36.0823 48.6891 35.9548 48.5614 35.8286C48.696 35.7437 48.8286 35.6575 48.9588 35.5698C49.1024 35.4734 49.2431 35.3755 49.381 35.2764C48.0027 34.1958 46.659 33.3315 45.4027 32.717L45.2433 32.8296C46.3262 33.7144 47.4391 34.7188 48.5614 35.8286C47.3935 36.5649 46.065 37.2021 44.6799 37.6733C44.2655 36.2439 43.9166 34.8804 43.6419 33.6106L43.4232 33.675C43.43 34.9861 43.5637 36.4221 43.8107 37.9448C42.4839 38.3223 41.1257 38.5391 39.8237 38.5391ZM39.8237 38.5391C39.5182 38.5391 39.2291 38.5251 38.9566 38.4978C39.8113 35.9116 40.8932 34.3167 41.2641 33.77L41.3307 33.6714L41.5012 33.7378L41.4586 33.8284C41.1794 34.4209 40.4195 36.0337 39.8237 38.5391ZM40.6438 55.103C43.4411 54.948 46.2779 54.3921 49.0074 53.5327C48.0571 51.5784 47.2021 49.5803 46.4634 47.5977C44.071 48.2971 41.604 48.7085 39.211 48.7432C39.4559 50.9277 39.9444 53.0696 40.6438 55.103ZM50.626 52.9834C53.5561 51.916 56.3235 50.5095 58.7369 48.8909C57.6124 47.0225 56.4156 45.2336 55.1776 43.5461C53.0466 44.978 50.5895 46.2036 48.0034 47.1045C48.8088 49.0691 49.6885 51.0466 50.626 52.9834ZM65.253 42.8223C63.9818 44.6057 62.2275 46.3303 60.1398 47.8962C59.0127 46.0017 57.7903 44.2219 56.5176 42.5854C58.3448 41.1865 59.8579 39.6338 60.9016 38.0198C62.5367 39.4661 63.9975 41.0859 65.253 42.8223Z" fill="#919191"/>
</svg>
