<svg width="309" height="140" viewBox="0 0 309 140" fill="none" xmlns="http://www.w3.org/2000/svg">
<rect width="309" height="140" fill="black" fill-opacity="0"/>
<path fill-rule="evenodd" clip-rule="evenodd" d="M154.812 56.3428C154.875 55.6953 155.066 55.3716 155.259 55.3716C155.515 55.3716 155.834 55.5659 156.026 56.084L166.315 78.3169H170.992L155.775 44.8145C155.76 44.7808 155.745 44.7463 155.73 44.7112C155.7 44.6372 155.672 44.5598 155.644 44.481L155.581 44.301C155.361 43.6685 155.129 43 154.431 43C153.856 43 153.281 43.0647 152.705 43.1294C152.384 43.1658 152.062 43.2021 151.74 43.2271C151.627 43.2358 151.513 43.2432 151.4 43.2485C151.259 43.2554 151.118 43.2593 150.978 43.2593C150.363 43.2593 149.301 43.1931 148.252 43.1277L148.246 43.127C147.223 43.063 146.214 43 145.646 43C145.36 43 145.09 43.0317 144.89 43.135C144.688 43.24 144.558 43.4187 144.558 43.7126C144.558 44.0774 144.789 44.2656 145.175 44.395C145.432 44.481 145.757 44.541 146.128 44.6094C148.572 45.0598 153.006 45.8772 153.006 56.9087C153.006 63.0276 152.655 69.5027 152.036 78.3096L154.612 78.3174H152.037L152.008 78.719L151.879 80.5288L151.798 81.6589C151.513 85.937 149.64 86.2529 148.311 86.4773C147.546 86.6062 146.961 86.7048 146.961 87.5095C146.961 87.5476 146.96 87.584 146.959 87.6187C146.956 87.6755 146.952 87.7283 146.948 87.7766C146.939 87.8862 146.932 87.9734 146.95 88.0386C146.976 88.1355 147.056 88.1833 147.264 88.1833C148.415 88.1833 149.679 88.0337 153.007 88.0337C154.163 88.0337 155.787 88.0474 157.077 88.0583L158.168 88.0671C158.513 88.0696 158.788 88.0713 158.961 88.0713C159.857 88.0713 160.561 88.0063 160.561 87.3586C160.561 86.561 159.825 86.5188 158.87 86.4639C157.033 86.3579 154.382 86.2051 154.592 80.5337L154.612 78.3174L154.812 56.3428ZM57.5532 66.9277C57.5532 47.6169 70.5098 44.96 74.9487 44.96C80.6931 44.96 85.1975 47.0344 89.5706 51.1165C90.824 52.2947 91.4109 54.2173 91.9036 55.8315C92.386 57.4128 92.7783 58.698 93.6184 58.698C94.1892 58.698 94.0991 57.7146 94.0381 57.051C94.0225 56.8801 94.0088 56.7305 94.0088 56.6243L93.748 47.8762C93.748 47.4744 93.7729 47.2786 93.6367 47.1877C93.5532 47.1321 93.4087 47.116 93.1606 47.116C92.9536 47.116 92.7925 47.1794 92.6421 47.2661C92.571 47.3071 92.5022 47.3533 92.4319 47.4004C92.3186 47.4763 92.2017 47.5547 92.0654 47.6177C92.0012 47.6475 91.9326 47.6738 91.8582 47.6948C91.7427 47.7271 91.613 47.7468 91.4631 47.7468C90.9316 47.7468 90.0977 47.3169 88.9329 46.7163C86.2334 45.3247 81.7559 43.0166 75.1433 43.0166C61.1086 43.0166 53 54.4209 53 67.9648C53 71.7976 53.6511 75.2947 54.8772 78.3137C57.7754 85.4524 63.8757 89.9321 72.1423 89.9321C81.7983 89.9321 86.4644 87.2004 88.978 85.7285C89.438 85.4592 89.8259 85.2322 90.1592 85.0718C90.4197 84.9424 90.9424 84.5542 91.0066 84.23L91.1167 83.6709C91.4797 81.8306 91.873 79.843 92.0579 78.3174C92.0996 77.9622 92.1313 77.6357 92.1492 77.3425C92.1602 77.1631 92.166 76.9958 92.166 76.842C92.166 76.4529 92.1006 76.1946 91.5779 76.1946C91.155 76.1946 90.71 77.052 90.0107 78.3054L91.1333 78.312L90.0107 78.3179C88.1191 81.6992 84.3667 87.9883 74.166 87.9883C66.6965 87.9883 62.1658 83.7881 59.7625 78.3096H59.759C58.2166 74.7791 57.5532 70.73 57.5532 66.9277ZM215.548 81.3787C215.548 84.8137 212.171 86.6836 209.821 86.6836C206.36 86.6836 205.438 84.9771 205.438 81.2839C205.438 80.0579 205.712 79.0859 206.184 78.3066C207.612 75.9446 210.855 75.3459 213.792 74.804L213.797 74.8032C214.4 74.6919 214.99 74.583 215.548 74.4617V78.3174V81.3787ZM215.486 73.2585C207.132 74.6418 203.555 76.4216 202.029 78.3174C200.879 79.7412 200.891 81.2297 200.902 82.6575C200.904 82.8 200.905 82.9421 200.905 83.0835C200.905 87.6848 204.91 88.4094 207.78 88.4094C211.436 88.4094 213.575 87.1416 216.318 84.8091C217.166 86.9473 219.664 87.9585 222.211 87.9585C222.368 87.9585 222.495 87.8193 222.645 87.6541C222.832 87.4487 223.056 87.2029 223.42 87.1338C223.463 87.1646 223.535 87.2329 223.626 87.3188L223.628 87.321L223.638 87.3308C223.787 87.4714 223.982 87.656 224.181 87.8005C224.365 87.9341 224.551 88.0337 224.704 88.0337C225.456 88.0337 226.902 88.02 230.224 88.02C233.858 88.02 234.669 88.0337 235.735 88.0337C235.851 88.0337 235.957 88.0354 236.054 88.0371C236.739 88.0483 236.951 88.052 236.951 87.3706C236.951 86.9895 236.339 86.9521 235.525 86.9023C233.911 86.8037 231.504 86.6567 231.504 83.6851L231.48 78.3174L231.437 67.9346C231.374 66.8982 234.172 63.6724 239.437 63.6724C244.512 63.6724 246.313 68.6697 246.313 71.9099L246.405 78.3174L246.462 82.2588C246.462 87.0715 245.065 87.0205 244.221 86.9895C243.854 86.9761 243.592 86.9663 243.592 87.3586C243.592 88.0063 244.44 88.1094 245.254 88.1094C246.069 88.1094 247.331 88.02 249.713 88.02C251.74 88.02 251.789 88.0259 251.823 88.03C251.84 88.0322 251.853 88.0337 252.129 88.0337H252.193C252.896 88.0347 255 88.0374 255 87.2837C255 86.6108 254.34 86.5403 253.528 86.4536C252.23 86.3149 250.543 86.1348 250.543 83.3833L250.374 78.3174L250.241 74.3086C250.241 69.3845 249.572 61.0344 241.175 61.0344C236.661 61.0344 233.412 63.9897 232.089 65.1926C231.631 65.6096 231.404 65.8159 231.436 65.6155V61.3391C231.436 60.6909 231.351 60.3594 230.975 60.3594C230.396 60.3594 229.951 60.6189 229.289 61.0049C228.302 61.5801 226.834 62.4365 223.722 63.1345C223.407 63.2 222.891 63.4207 222.891 63.8093C222.891 64.3154 223.486 64.3018 224.234 64.2847C225.497 64.2556 227.197 64.2166 227.197 66.6589L227.251 78.3174L227.273 83.3081C227.273 85.1448 227.273 85.9331 225.61 86.459C225.43 86.3362 224.614 85.7839 224.402 85.7839C224.304 85.7839 224.211 85.8564 224.119 85.9473C224.087 85.9788 224.055 86.0125 224.023 86.0461C223.9 86.177 223.776 86.3081 223.645 86.3081C220.253 86.3081 220.171 82.511 220.171 80.3079V78.3174L220.171 67.4944C220.171 61.9866 215.103 60.8201 211.056 60.8201C203.81 60.6265 200.773 64.8403 200.707 67.821C200.707 68.9873 202.666 69.96 203.775 69.96C205.016 69.96 205.211 69.4412 205.211 68.7285C205.211 68.3999 205.128 68.0159 205.038 67.6021C204.934 67.1189 204.82 66.5955 204.82 66.0723C204.82 62.5071 207.215 62.085 210.349 62.085C214.396 62.085 215.713 65.3149 215.713 68.6843L215.486 73.2585ZM121.785 97.3337C121.473 99.8132 120.25 100.115 119.317 100.345C118.69 100.5 118.195 100.622 118.195 101.351C118.195 102.01 118.754 102.004 119.148 101.999L119.239 101.998C119.957 101.998 120.643 101.934 121.328 101.869C122.013 101.804 122.699 101.739 123.417 101.739C124.739 101.739 126.06 101.812 127.293 101.882L127.3 101.882C128.378 101.942 129.389 101.998 130.271 101.998C130.511 101.998 130.707 101.955 130.858 101.88C131.12 101.752 131.25 101.531 131.25 101.286C131.25 100.639 130.49 100.584 129.554 100.517C128.051 100.408 126.094 100.267 126.094 97.593C126.094 96.3916 126.482 92.0996 126.991 90.2058L122.958 90.1953H126.992C127.077 89.8833 127.166 89.635 127.257 89.4795C127.325 89.3621 127.395 89.2974 127.465 89.2974C127.611 89.2974 127.766 89.3335 127.961 89.3787C128.288 89.4546 128.728 89.5566 129.424 89.5566C138.315 89.5566 143.444 84.0291 145.655 78.3174H145.657C146.545 76.0139 146.961 73.6897 146.961 71.6831C146.961 64.1028 141.987 61.9336 136.308 61.9336C134.382 61.9336 133.269 62.2698 132.57 62.4805C132.251 62.5769 132.018 62.6472 131.834 62.6472C131.442 62.6472 131.247 62.4521 131.247 61.9336C131.247 61.7473 131.534 60.2021 131.833 58.5967C132.156 56.8599 132.492 55.052 132.492 54.8164C132.492 54.1038 132.297 53.9094 131.774 53.9094C131.057 53.9094 128.641 54.5576 128.315 55.7883C128.102 56.6064 127.849 58.2854 127.615 59.8477C127.347 61.627 127.103 63.2554 126.964 63.2896C124.94 63.8733 122.133 64.78 122.133 65.8821C122.133 66.4001 122.329 66.6597 122.851 66.6597C123.016 66.6597 123.258 66.5325 123.608 66.3486C124.226 66.0242 125.179 65.5234 126.637 65.2339L124.659 78.3149L128.416 78.3174L130.359 65.3347C130.554 63.844 132.055 63.584 133.362 63.584C136.038 63.2603 142.579 63.9758 142.579 72.6587C142.579 74.543 142.299 76.4785 141.737 78.3145L143.074 78.3154L141.738 78.3181C140.115 83.6089 136.132 88.0667 129.685 88.0667C128.118 88.0667 127.4 87.7434 127.4 86.1895C127.4 85.7346 127.4 85.2158 127.531 84.2432L128.417 78.3181H124.66L122.864 90.1951L121.785 97.3337ZM99.8145 89.3318C95.3098 89.3318 93.8088 85.8328 93.8088 81.8157C93.8088 80.7395 93.9746 79.5569 94.2839 78.3174C96.1768 70.7717 103.421 61.2002 110.936 61.2002C111.785 61.2002 112.945 61.5354 113.793 61.8591C114.615 62.2354 115.174 62.2351 115.979 62.2346H116.06C116.576 62.2346 117.003 61.3782 117.405 60.5693C117.766 59.8455 118.107 59.1597 118.477 59.1597L118.511 59.1592L118.594 59.157C118.782 59.1509 119.073 59.1416 119.296 59.2021C119.475 59.2512 119.61 59.3457 119.61 59.5242C119.61 59.614 119.459 60.2566 119.216 61.2859L119.21 61.3101C118.401 64.7437 116.591 72.4197 115.962 78.3108C115.824 79.6084 115.743 80.8198 115.743 81.8789C115.743 84.8645 116.873 84.8616 117.349 84.8604H117.376C118.417 84.8604 119.161 83.5991 119.802 82.5132C120.287 81.6924 120.712 80.9719 121.161 80.9719C121.194 80.9719 121.226 80.9712 121.259 80.9702L121.335 80.9675C121.727 80.9534 122.075 80.9407 122.075 81.6196C122.075 82.332 118.942 88.8779 115.481 88.8779C112.479 88.8779 111.974 84.1304 112.169 81.4734L112.038 81.344C109.492 85.0374 104.907 89.3318 99.8145 89.3318ZM97.9878 80.7131C97.9878 79.928 98.0479 79.1223 98.1614 78.3113C99.2178 70.7905 104.89 62.6091 110.545 62.6091C113.548 62.6091 114.454 63.9304 114.454 64.8369C114.454 65.915 113.638 70.0393 112.942 73.5576C112.544 75.5684 112.186 77.3811 112.042 78.3167C112.018 78.4705 112 78.6006 111.989 78.7039C111.979 78.7874 111.975 78.8533 111.975 78.8994C111.975 79.8062 107.781 86.3838 102.689 86.3838C98.3145 86.3838 97.9878 81.75 97.9878 80.7131ZM169.723 85.7148L169.726 85.7217L169.727 85.7239C169.954 86.3079 170.362 87.3589 170.91 87.3589C171.406 87.3589 172.134 85.7617 172.584 84.7725C172.715 84.4856 172.822 84.25 172.894 84.1191L175.628 78.3174L186.246 55.7783C186.887 54.4182 187.462 53.2346 187.91 53.2346C188.294 53.2346 188.614 54.7415 188.614 56.3613L189.169 78.3174L189.27 82.2588C189.309 85.1907 187.428 85.667 185.96 86.0388C185.026 86.2751 184.26 86.4692 184.26 87.2251C184.26 87.3513 184.291 87.4932 184.388 87.6052C184.491 87.7234 184.669 87.8088 184.963 87.8088C185.72 87.8088 186.823 87.7417 187.984 87.6709C189.277 87.592 190.643 87.5088 191.687 87.5088C193.202 87.5088 194.899 87.3938 196.284 87.3L196.306 87.2986C197.25 87.2346 198.047 87.1809 198.539 87.1809C199.242 87.1809 200.074 87.1809 200.074 86.5334C200.074 85.6436 199.182 85.6543 198.078 85.6677C196.367 85.6885 194.149 85.7156 193.954 82.4077L193.819 78.3149L192.898 50.3838C192.728 45.3005 194.982 44.8223 196.538 44.4919C197.342 44.3213 197.959 44.1902 197.959 43.4836C197.959 43.3687 197.937 43.3062 197.895 43.2751C197.838 43.2327 197.745 43.2495 197.624 43.2715C197.536 43.2874 197.434 43.3059 197.32 43.3059C196.296 43.3059 194.959 43.5647 193.488 43.5647C193.355 43.5647 192.927 43.5203 192.424 43.468C191.997 43.4236 191.517 43.3738 191.12 43.3413C190.856 43.3196 190.63 43.3054 190.481 43.3054C189.873 43.2544 189.425 44.2214 189.073 44.9792C188.981 45.1772 188.896 45.3611 188.817 45.5085L174.236 76.4082C174.145 76.5972 174.059 76.7803 173.975 76.957C173.839 77.2458 173.713 77.5178 173.595 77.771L173.589 77.7827C173.502 77.9717 173.419 78.1501 173.34 78.3174H173.337C172.863 79.3389 172.556 79.9341 172.347 79.9341C171.9 79.9341 171.704 79.6936 171 78.333L166.316 78.3174L169.63 85.48C169.657 85.5422 169.688 85.6226 169.723 85.7148Z" fill="#A19FA2"/>
</svg>
