<svg width="309" height="140" viewBox="0 0 309 140" fill="none" xmlns="http://www.w3.org/2000/svg">
<rect width="309" height="140" fill="black" fill-opacity="0"/>
<rect width="171.616" height="107" fill="black" fill-opacity="0" transform="translate(67.1921 15)"/>
<path fill-rule="evenodd" clip-rule="evenodd" d="M156.133 87.8833H149.829V50.0544H156.133V87.8833ZM148.638 87.8833H142.344V56.5315H148.638V87.8833ZM163.608 87.8833H157.305V56.5315H163.608V87.8833Z" fill="#FFD300"/>
<path fill-rule="evenodd" clip-rule="evenodd" d="M149.829 48.6768H156.133V15H149.829V48.6768ZM148.638 55.5459H142.344V22.0127H148.638V55.5459ZM134.858 58.5789L141.162 64.7593V28.9873H134.858V58.5789ZM127.363 52.1782L133.676 57.7559V36.0957H127.363V52.1782ZM172.275 57.7559L178.588 52.1782V36.0957H172.275V57.7559ZM163.608 55.5459H157.305V22.0127H163.608V55.5459ZM164.781 64.7593L171.113 58.5789V28.9873H164.781V64.7593ZM100.948 121.99C103.101 121.99 104.561 121.589 105.349 120.804C106.147 120.01 106.531 118.872 106.531 117.389V110.615C106.531 109.132 106.147 107.994 105.349 107.199C104.561 106.415 103.101 106.004 100.948 106.004H93.9242C91.791 106.004 90.3112 106.406 89.4849 107.152C88.6584 107.927 88.2549 109.075 88.2549 110.615V117.389C88.2549 118.929 88.6584 120.077 89.4849 120.843C90.3112 121.617 91.791 121.99 93.9242 121.99H100.948ZM101.717 112.184C101.717 111.304 101.544 110.663 101.169 110.261C100.804 109.85 99.9874 109.658 98.7288 109.658H96.0286C94.8563 109.658 94.0684 109.869 93.684 110.318C93.29 110.749 93.0883 111.371 93.0883 112.184V115.829C93.0883 116.633 93.29 117.245 93.684 117.695C94.0684 118.135 94.8563 118.355 96.0286 118.355H98.7288C99.9874 118.355 100.795 118.144 101.141 117.762C101.486 117.341 101.679 116.709 101.717 115.848V112.184ZM122.04 121.99C124.173 121.99 125.643 121.589 126.422 120.804C127.219 120.01 127.613 118.872 127.613 117.389V115.829H122.799C122.799 116.7 122.616 117.341 122.251 117.762C121.886 118.145 121.079 118.355 119.801 118.355H117.111C115.938 118.355 115.16 118.135 114.756 117.695C114.362 117.245 114.17 116.633 114.17 115.829V112.184C114.17 111.371 114.362 110.749 114.756 110.319C115.16 109.869 115.938 109.658 117.111 109.658H119.801C121.079 109.658 121.886 109.85 122.251 110.261C122.616 110.663 122.799 111.304 122.799 112.184H127.613V110.615C127.613 109.132 127.219 107.994 126.422 107.199C125.643 106.415 124.173 106.004 122.04 106.004H115.006C112.863 106.004 111.403 106.406 110.567 107.152C109.74 107.927 109.337 109.075 109.337 110.615V117.389C109.337 118.929 109.74 120.077 110.567 120.843C111.403 121.617 112.863 121.99 115.006 121.99H122.04ZM135.243 121.99H130.448L130.419 117.389V110.615L130.448 106.013H135.243V112.127H143.862V106.013H148.695V110.615V117.389V121.99H143.862V115.762H135.243V121.99ZM156.315 115.762H157.679H169.777V112.127H157.679H156.315C156.334 111.352 156.536 110.749 156.93 110.318C157.333 109.869 158.102 109.658 159.284 109.658H161.975H169.777V106.013H164.204H157.161C155.037 106.013 153.567 106.406 152.74 107.152C151.914 107.927 151.501 109.075 151.501 110.615V117.389C151.501 118.929 151.914 120.077 152.74 120.842C153.567 121.598 155.037 121.99 157.161 121.99H164.204H169.777V118.355H161.975H159.284C158.102 118.355 157.333 118.135 156.93 117.695C156.536 117.236 156.334 116.604 156.315 115.762ZM206.752 109.658H200.161V106.004H205.705H212.729H218.408V109.658H211.538V121.99H206.752V109.658ZM188.486 108.883H195.914C195.914 108.883 200.238 109.008 200.238 113.897C200.238 118.776 195.798 118.805 195.798 118.805H188.486V121.971H183.749V118.805H176.254C176.254 118.805 171.805 118.776 171.805 113.897C171.805 109.008 176.138 108.883 176.138 108.883H183.749V105.956H188.486V108.883ZM193.367 115.628H188.486V112.251H193.329C193.329 112.251 195.001 112.031 195.001 114.031C195.001 115.695 193.367 115.628 193.367 115.628ZM178.867 112.251C178.867 112.251 177.205 112.031 177.205 114.031C177.205 115.695 178.829 115.628 178.829 115.628H183.72V112.251H178.867ZM84.2672 107.199C83.4697 106.415 82.0092 106.013 79.8663 106.013H67.1921V122H71.9678L71.9774 116.48H79.8663C82.0092 116.48 83.4697 116.087 84.2672 115.303C85.0552 114.519 85.4491 113.37 85.4491 111.878V110.615C85.4491 109.132 85.0552 107.994 84.2672 107.199ZM71.9774 112.844H79.0688C79.9529 112.844 80.6639 112.126 80.6639 111.256C80.6639 110.376 79.9529 109.658 79.0688 109.658H71.9774V112.844ZM238.808 117.389V116.116C238.808 114.643 238.404 113.495 237.616 112.71C236.828 111.916 235.377 111.524 233.215 111.524H225.336L225.326 106.013H220.541V121.99H233.215C235.377 121.99 236.828 121.598 237.616 120.804C238.404 120.01 238.808 118.872 238.808 117.389ZM232.418 118.345C233.311 118.345 234.032 117.637 234.032 116.757C234.032 115.858 233.311 115.159 232.418 115.159H225.336V118.345H232.418Z" fill="#2B2A29"/>
</svg>
