<svg width="309" height="140" viewBox="0 0 309 140" fill="none" xmlns="http://www.w3.org/2000/svg">
<path fill-rule="evenodd" clip-rule="evenodd" d="M72.0312 70.8393V70.9118C73.1016 71.3171 74.1006 71.8911 74.9912 72.612C76.8184 74.1435 77.8145 76.4572 77.6748 78.8464C77.6748 83.1997 75.374 86.3349 71.5879 87.2876C70.1055 87.6704 68.5762 87.8408 67.0469 87.7942H55.543V55.9589H65.7285C67.3389 55.9008 68.9492 56.051 70.5215 56.405C74.2002 57.3938 76.6084 59.9382 76.6084 63.9538C76.666 65.8881 75.9346 67.7619 74.584 69.1391C73.8691 69.8676 73.0176 70.4458 72.0791 70.8393H72.0312ZM87.249 61.2649V87.7942H93.6006V61.2649H101.713L103.474 55.9589H78.1064V61.2649H87.249ZM105.487 87.7942V55.9589H126.086L124.276 61.2649H111.79V68.3193H116.883C120.981 68.3193 123.126 69.3081 124.6 70.5742C126.743 72.4809 127.896 75.2734 127.728 78.1472C127.894 81.2419 126.491 84.2107 124.001 86.0337C122.023 87.4326 119.95 87.7942 115.732 87.7942H105.487ZM111.79 82.4763H116.583C117.967 82.6425 119.342 82.1045 120.25 81.0412C120.908 80.1757 121.239 79.103 121.185 78.0144C121.271 76.6084 120.655 75.2514 119.543 74.3967C118.653 73.811 117.595 73.5395 116.535 73.625H111.79V82.4763ZM61.8936 68.6931H65.4883C66.2129 68.7263 66.9385 68.6613 67.6455 68.5C69.1826 68.0012 70.1758 66.5022 70.042 64.8823C70.2471 63.2666 69.2168 61.7522 67.6455 61.3613C66.8604 61.176 66.0537 61.103 65.249 61.1443H61.8936V68.6931ZM61.8936 82.645V74.2038L66.1113 74.2641C68.0762 74.2641 69.2266 74.4931 70.1621 75.6992C70.4795 76.1518 70.71 76.656 70.8457 77.1858C70.8926 77.3681 70.9287 77.5534 70.9531 77.7409C70.9834 77.9782 70.9951 78.219 70.9883 78.4607C71.0645 79.6779 70.5986 80.8662 69.7188 81.7043C69.3008 82.0268 68.8359 82.2732 68.3457 82.4372C67.7021 82.6526 67.0137 82.726 66.3271 82.645H61.8936ZM148.422 55.9589H142.634V87.7942H148.422V72.8413H148.565L158.056 87.7942H165.065L153.538 70.8034L164.215 55.9589H157.469L148.565 69.4768H148.422V55.9589ZM165.784 81.3547C165.784 74.8068 170.949 73.2151 178.043 73.2151H179.182V72.395C179.182 70.0676 178.043 67.885 174.832 67.885C172.428 67.9414 170.102 68.7553 168.182 70.2124V65.6059C170.438 64.455 172.937 63.8637 175.467 63.8816C182.656 63.8816 184.37 67.4267 184.37 73.3476V87.7942H179.313V84.6347H179.218C177.896 86.966 175.373 88.3403 172.711 88.1799C170.868 88.2863 169.067 87.6067 167.749 86.3076C166.431 85.0085 165.718 83.2102 165.784 81.3547ZM179.181 76.8569V78.3523H179.121C179.121 82.2231 177.132 84.3574 174.628 84.3574C173.688 84.4768 172.743 84.1701 172.049 83.5207C171.354 82.8713 170.982 81.9455 171.033 80.9931C171.033 77.5805 173.885 76.8569 178.678 76.8569H179.181ZM207.448 64.2434V87.7942H201.732V68.5002H194.543V87.7942H188.935V64.2434H207.448ZM217.742 75.9404V64.2434H212.074V87.7942H217.646L225.614 71.937H225.746L225.614 76.3022V87.7942H231.223V64.2434H225.387L217.706 80.125H217.61L217.742 75.9404ZM251.521 64.2434V68.5002H245.53V87.7942H239.922V68.5002H233.931V64.2434H251.521ZM264.618 73.2151C257.524 73.2151 252.36 74.8068 252.36 81.3547H252.301C252.232 83.2148 252.949 85.0171 254.272 86.3169C255.597 87.6169 257.404 88.2934 259.25 88.1799C261.942 88.3735 264.505 86.9946 265.841 84.6347H265.937V87.7942H270.993V73.3476C270.993 67.4267 269.28 63.8816 262.09 63.8816C259.56 63.8637 257.062 64.455 254.805 65.6059V70.2124C256.712 68.7649 259.02 67.9514 261.407 67.885C264.618 67.885 265.745 70.0676 265.745 72.395V73.2151H264.618ZM265.744 78.3523V76.8569H265.241C260.448 76.8569 257.597 77.5805 257.597 80.9931C257.546 81.9455 257.918 82.8713 258.612 83.5207C259.307 84.1701 260.251 84.4768 261.191 84.3574C263.695 84.3574 265.685 82.2231 265.685 78.3523H265.744ZM273.665 83.634V87.6374H273.629C274.517 87.9426 275.447 88.1013 276.385 88.1079C280.495 88.1079 282.305 86.2868 282.305 70.9118V68.5002H287.78V87.7942H293.389V64.2434H277.464V70.9843C277.464 83.1757 276.744 83.9113 274.983 83.9113C274.531 83.8967 274.085 83.8027 273.665 83.634Z" fill="#072671"/>
<path d="M48.3776 53.3059H21.752L23.6812 48H50.2949L48.3776 53.3059Z" fill="#009FDF"/>
<path d="M47.4069 55.9587H20.7932L18.876 61.2767H45.4897L47.4069 55.9587Z" fill="#009FDF"/>
<path d="M44.5309 63.9297H17.9172L16 69.2356H42.6137L44.5309 63.9297Z" fill="#009FDF"/>
</svg>
