<svg width="309" height="140" viewBox="0 0 309 140" fill="none" xmlns="http://www.w3.org/2000/svg">
<rect width="309" height="140" fill="black" fill-opacity="0"/>
<path fill-rule="evenodd" clip-rule="evenodd" d="M241 44H69V96H241V44ZM91.6833 83.8853H85.6462V56.3276H95.5432C98.2537 56.3276 100.451 57.1904 102.134 58.916C103.818 60.6416 104.66 62.7136 104.66 65.1326C104.66 67.5515 103.825 69.6035 102.155 71.2883C100.485 72.9731 98.2812 73.8157 95.5432 73.8157H91.6833V83.8853ZM91.6831 68.8433V61.4236H95.3376C96.2959 61.4236 97.0693 61.7632 97.658 62.4424C98.2466 63.1218 98.541 64.0186 98.541 65.1328C98.541 66.2471 98.2466 67.144 97.658 67.8237C97.0693 68.5034 96.2959 68.8433 95.3376 68.8433H91.6831ZM110.601 81.4602C108.534 79.49 107.501 76.6838 107.501 73.042V67.2124C107.501 63.5706 108.534 60.7576 110.601 58.7737C112.668 56.7898 115.29 55.7979 118.466 55.7979C121.669 55.7979 124.304 56.7898 126.371 58.7737C128.438 60.7576 129.472 63.5706 129.472 67.2124V73.042C129.472 76.7104 128.438 79.5232 126.371 81.48C124.304 83.437 121.669 84.4155 118.466 84.4155C115.29 84.4155 112.668 83.4304 110.601 81.4602ZM118.466 79.3196C115.18 79.3196 113.538 77.0774 113.538 72.5928V67.6204C113.538 63.1357 115.18 60.8936 118.466 60.8936C121.779 60.8936 123.435 63.1357 123.435 67.6204V72.5928C123.435 77.0774 121.779 79.3196 118.466 79.3196ZM144.797 79.3196C147.206 79.3196 149.479 78.9526 151.615 78.2188L152.764 83.1514C150.136 83.9941 147.467 84.4155 144.757 84.4155C141.361 84.4155 138.623 83.4438 136.543 81.5005C134.462 79.5574 133.422 76.751 133.422 73.0818V67.1301C133.422 63.4619 134.462 60.656 136.543 58.7126C138.623 56.7695 141.361 55.7979 144.757 55.7979C147.467 55.7979 150.136 56.2192 152.764 57.0618L151.615 61.9536C149.314 61.2471 147.042 60.8936 144.797 60.8936C141.238 60.8936 139.459 63.136 139.459 67.6204V72.552C139.459 74.9438 139.918 76.6699 140.834 77.7297C141.751 78.7898 143.072 79.3196 144.797 79.3196ZM174.568 78.2188C172.433 78.9526 170.16 79.3196 167.751 79.3196C166.026 79.3196 164.705 78.7898 163.788 77.7297C162.872 76.6699 162.413 74.9438 162.413 72.552V67.6204C162.413 63.136 164.192 60.8936 167.751 60.8936C169.996 60.8936 172.268 61.2471 174.568 61.9536L175.718 57.0618C173.09 56.2192 170.421 55.7979 167.71 55.7979C164.315 55.7979 161.577 56.7695 159.497 58.7126C157.416 60.656 156.376 63.4619 156.376 67.1301V73.0818C156.376 76.751 157.416 79.5574 159.497 81.5005C161.577 83.4438 164.315 84.4155 167.71 84.4155C170.421 84.4155 173.09 83.9941 175.718 83.1514L174.568 78.2188ZM196.167 56.3276H201.054V83.8853H195.017V72.1448C195.017 70.6768 195.072 69.2363 195.181 67.823L184.956 83.8853H180.028V56.3276H186.065V68.272C186.065 68.7854 186.058 69.324 186.044 69.8879C186.024 70.697 185.99 71.5579 185.941 72.4709L196.167 56.3276ZM224.294 56.3276H214.233C211.523 56.3276 209.326 57.1904 207.642 58.916C205.958 60.6416 205.116 62.7139 205.116 65.1333C205.116 66.8452 205.54 68.4077 206.389 69.821C207.238 71.2341 208.429 72.2805 209.962 72.9597L204.787 83.8853H211.522L215.958 73.8157H218.258V83.8853H224.294V56.3276ZM212.118 67.8237C212.733 68.5034 213.534 68.8433 214.52 68.8433H218.258V61.4236H214.52C213.562 61.4236 212.768 61.77 212.138 62.4631C211.509 63.156 211.194 64.0461 211.194 65.1335C211.194 66.2473 211.502 67.144 212.118 67.8237Z" fill="url(#paint0_linear)"/>
<defs>
<linearGradient id="paint0_linear" x1="-26.1649" y1="16.032" x2="-26.1649" y2="125.574" gradientUnits="userSpaceOnUse">
<stop stop-color="#5481C1"/>
<stop offset="0.1863" stop-color="#4C75B8"/>
<stop offset="0.5473" stop-color="#375CA5"/>
<stop offset="1" stop-color="#1E398D"/>
</linearGradient>
</defs>
</svg>
