<svg width="309" height="140" viewBox="0 0 309 140" fill="none" xmlns="http://www.w3.org/2000/svg">
<rect width="309" height="140" fill="black" fill-opacity="0"/>
<rect width="237.802" height="50" fill="black" fill-opacity="0" transform="translate(36 45)"/>
<path fill-rule="evenodd" clip-rule="evenodd" d="M152 61.3999H149.4C145.9 61.3999 143.1 63.8999 143.1 67.7V72.3999C143.1 76.2998 145.9 78.7 149.4 78.7H152C155.5 78.7 158.3 76.2 158.3 72.3999V67.7C158.4 63.5999 155.5 61.3999 152 61.3999ZM131.3 67.7998H135.9H136V61.5999H141.4V78.2998H136V72.3999H131.4V78.2998H126V61.5999H131.3V67.7998ZM181.1 67.7998H185.7V61.5999H191.1V78.2998H185.7V72.3999H181.1V78.2998H175.7V61.5999H181.1V67.7998ZM267.6 66.4998H265V61.5999H259.6V78.2998H267.5C271 78.2998 273.8 76.3999 273.8 72.9998V71.7998C273.9 68.3999 271 66.4998 267.6 66.4998ZM265 74.2H267C267.4 74.2 268.7 73.8999 268.7 72.3999C268.7 71.7 268.3 70.5999 266.8 70.5999H265V74.2ZM233 72H239V68H233V66H239.6V61.7H227.6V78.3999H240V74H233V72ZM220.6 61.5999H226.4L222.4 69.8999L226.9 78.2998H220.7L217.8 72.3999H216.5V78.2998H211.1V61.5999H216.5V67.8999H217.8L220.6 61.5999ZM151 74.6997C152.1 74.6997 153 73.7998 153 72.6997V67.2998C153 66.1997 152.1 65.2998 151 65.2998H150.5C149.4 65.2998 148.5 66.1997 148.5 67.2998V72.6997C148.5 73.7998 149.4 74.6997 150.5 74.6997H151ZM244.1 70.4998C244.1 72.9998 243.4 73.3999 242.5 73.7998C242.1 73.9998 241 73.9998 241 73.9998V78.3999H243.1C247.6 78.3999 249.3 75.7998 249.3 69.8999V66.0999H252.3V78.3999H257.7V61.5999H244.2V70.4998H244.1ZM160.2 61.5999H168.1C171.6 61.5999 174.4 63.4998 174.5 66.9998V68.8999C174.5 72.2998 171.7 74.2 168.2 74.2H165.6V78.2998H160.2V61.5999ZM169.2 68.3999C169.2 68.9998 168.9 70.1997 167.3 70.1997H165.5V65.7998H167.5C168 65.7998 169.1 66.1997 169.1 67.4998V68.3999H169.2ZM198.5 61.7V70.0999L204 61.5999H208.7V78.3999H203.6V69.9998L198.1 78.3999H193.4V61.7H198.5Z" fill="#626261"/>
<path d="M61 78.1L86 95V61.9L61 45V78.1Z" fill="#00589C"/>
<path fill-rule="evenodd" clip-rule="evenodd" d="M61 95C47.2 95 36 83.8 36 70C36 56.2 47.2 45 61 45V95ZM111 70C111 83.8 99.8 95 86 95V45C99.8 45 111 56.2 111 70Z" fill="#0080C8"/>
</svg>
