<svg width="309" height="140" viewBox="0 0 309 140" fill="none" xmlns="http://www.w3.org/2000/svg">
<rect width="309" height="140" fill="black" fill-opacity="0"/>
<rect width="247.969" height="56.9999" fill="black" fill-opacity="0" transform="translate(29 27)"/>
<path fill-rule="evenodd" clip-rule="evenodd" d="M170.776 65.5422C170.776 69.033 172.573 71.824 176.925 72.5569L187.078 74.2312C188.276 74.4397 188.685 75.1726 188.685 75.9055C188.685 77.0925 187.929 77.9287 185.155 77.9287C183.766 77.9287 182.79 77.7551 182.128 77.4062C181.496 77.0222 181.212 76.4648 181.183 75.6267H170.462C170.494 82.9534 177.965 84 184.808 84C194.802 84 199.28 81.1389 199.28 75.0693C199.28 70.8477 196.505 68.5437 192.027 67.811L181.403 66.0664C180.519 65.9263 180.235 65.4739 180.235 64.7761C180.235 63.7295 181.151 62.9966 183.798 62.9966C184.776 62.9966 185.785 63.135 186.573 63.519C187.394 63.8679 187.929 64.4956 187.929 65.509H198.271C197.956 60.2388 193.825 57.3442 183.798 57.3442C176.484 57.3442 170.776 59.0886 170.776 65.5422ZM92.6471 83.1289H83.7543V58.2156H102.105C108.411 58.2156 110.744 61.3555 110.744 66.9045C110.744 71.6838 108.474 75.3831 102.168 75.3831H92.6471V83.1289ZM137.608 58.2156H113.676V83.1289H137.608V77.0574H122.567V73.707H136.535V67.6375H122.567V64.2869H137.608V58.2156ZM141.328 83.1289H150.219V75.3831H159.742C166.047 75.3831 168.318 71.6838 168.318 66.9045C168.318 61.3555 165.984 58.2156 159.679 58.2156H141.328V83.1289ZM202.18 58.2156H211.071V83.1289H202.18V58.2156ZM240.237 81.1738C242.445 79.3611 243.453 76.7085 244.02 73.4282H233.993C233.268 76.4297 231.598 77.7202 228.79 77.7202C225.543 77.7202 223.306 75.7319 223.306 70.6721C223.306 65.6123 225.606 63.6243 229.233 63.6243C232.67 63.6243 233.741 66.2068 233.993 67.9863H244.02C242.854 58.1104 234.593 57.3442 229.233 57.3442C223.842 57.3442 213.846 57.7615 213.846 70.6721C213.846 83.583 223.842 84 229.233 84C234.656 84 238.061 82.9885 240.237 81.1738ZM246.196 70.6721C246.196 83.583 256.192 84 261.582 84C266.973 84 276.969 83.583 276.969 70.6721C276.969 57.7615 266.973 57.3442 261.582 57.3442C256.192 57.3442 246.196 57.7615 246.196 70.6721ZM261.582 63.6243C257.956 63.6243 255.654 65.6123 255.654 70.6721C255.654 75.7319 257.956 77.7202 261.582 77.7202C265.209 77.7202 267.511 75.7319 267.511 70.6721C267.511 65.6123 265.209 63.6243 261.582 63.6243ZM92.6471 64.0784H98.3854C100.622 64.0784 101.475 64.8445 101.475 66.7292C101.475 68.5437 100.622 69.3118 98.3854 69.3118H92.6471V64.0784ZM155.957 64.0784H150.219V69.3118H155.957C158.196 69.3118 159.049 68.5437 159.049 66.7292C159.049 64.8445 158.196 64.0784 155.957 64.0784Z" fill="#3A5599"/>
<path fill-rule="evenodd" clip-rule="evenodd" d="M46.4203 31.3879C60.538 33.0513 70.895 46.5103 70.3186 58.4629L70.5521 58.5237C70.8506 57.5767 71.0173 56.2717 71.0322 54.1672C71.0322 44.0496 60.3619 31.2236 46.4443 31.2236L46.4203 31.3879ZM66.0205 63.3196C67.3865 62.2434 68.5504 61.1082 69.4753 59.9822L69.6644 60.1094C67.0399 64.6394 60.5232 70.6021 50.8834 70.6021C46.907 70.6021 44.2073 69.5859 43.1971 69.2058C43.1248 69.1785 43.061 69.1545 43.0062 69.1345L43.0619 68.9536C45.9032 69.5405 48.6759 69.6272 51.3097 69.3411C43.6123 66.5225 37.8129 57.5786 37.8129 45.8752C37.8129 38.8572 40.6177 34.7227 41.2642 33.77L41.3307 33.6714L41.5012 33.7378C41.1008 34.5945 39.0306 38.7737 39.0306 45.5337C39.0306 55.886 44.7262 65.9944 52.7294 69.1492C54.822 68.8113 56.8126 68.2429 58.6678 67.5156C50.3181 59.5667 43.4733 43.2722 43.4232 33.675L43.642 33.6106C45.7809 43.4976 52.4161 59.0793 59.5353 67.1592C61.6722 66.24 63.6073 65.1101 65.281 63.8845C61.7816 50.957 52.785 38.9915 45.2433 32.8296L45.4027 32.717C52.9017 36.385 63.5109 48.9504 66.0205 63.3196Z" fill="#3A5599"/>
<path fill-rule="evenodd" clip-rule="evenodd" d="M34.0428 37.0476C34.0428 32.25 42.6113 27 49.9194 27C52.8776 27 55.0906 28.2166 55.0906 30.511C55.0906 34.8674 47.4747 40.4756 39.2788 40.4756C35.748 40.4756 34.0428 38.9048 34.0428 37.0476ZM39.8237 38.5391C45.7493 38.5391 52.8368 34.0479 52.8368 30.3745C52.8368 29.5142 52.1417 27.6812 48.5183 27.6812C42.9598 27.6812 35.7906 32.095 35.7906 35.8218C35.7906 37.5146 37.2067 38.5391 39.8237 38.5391Z" fill="#009ED6"/>
<path d="M31.1312 39.2702C30.9254 39.6246 30.1044 41.2269 30.1044 42.8699C30.1044 45.9176 33.1959 48.7456 38.8842 48.7456C49.8288 48.7456 62.473 40.7285 62.473 33.2856C62.473 29.9462 59.2943 28.1279 57.0887 27.7532L57.0479 27.8824C57.7337 28.1002 60.247 29.2613 60.247 32.2389C60.247 38.1682 49.0837 46.248 37.963 46.248C33.7075 46.248 31.0237 44.1565 31.0237 41.1088C31.0237 40.147 31.2257 39.512 31.2795 39.3274L31.1312 39.2702" fill="#EA8C40"/>
<path d="M66.9842 33.843C67.2826 34.0701 69.086 35.5635 69.086 38.3915C69.086 48.0349 53.9082 57.5139 40.4929 57.5139C32.4897 57.5139 28.8421 53.582 29.0052 50.0913H29.1479C29.4612 51.9022 32.0597 55.1474 39.062 55.1474C52.4958 55.1474 67.4958 45.3379 67.4958 36.743C67.4958 35.2681 67.0936 34.3507 66.8656 33.9427L66.9842 33.843" fill="#009C5E"/>
<path d="M72.0571 42.844C72.1201 43.0471 72.4463 43.9719 72.4463 45.4173C72.4463 56.1424 57.0868 65.3224 43.729 65.3224C36.8545 65.3224 33.2644 61.9997 32.5063 60.6503L32.6287 60.5598C34.5303 62.2157 38.2761 63.4709 42.6503 63.4709C54.4475 63.4709 72.0515 54.5401 71.894 42.8809L72.0571 42.844" fill="#E02B35"/>
</svg>
