<svg width="50" height="50" viewBox="0 0 50 50" fill="none" xmlns="http://www.w3.org/2000/svg">
    <rect width="50" height="50" fill="black" fill-opacity="0.05"/>
    <mask id="path-2-inside-1" fill="white">
        <path fill-rule="evenodd" clip-rule="evenodd" d="M24.9805 24.0248L10.4141 9.45947L9.45898 10.415L24.0234 24.9801L9.45898 39.5452L10.4141 40.5008L24.9805 25.9354L39.5449 40.5008L40.5 39.5452L25.9355 24.9801L40.5 10.415L39.5449 9.45947L24.9805 24.0248Z"/>
    </mask>
    <path fill-rule="evenodd" clip-rule="evenodd" d="M24.9805 24.0248L10.4141 9.45947L9.45898 10.415L24.0234 24.9801L9.45898 39.5452L10.4141 40.5008L24.9805 25.9354L39.5449 40.5008L40.5 39.5452L25.9355 24.9801L40.5 10.415L39.5449 9.45947L24.9805 24.0248Z" fill="#D8D8D8"/>
    <path d="M10.4141 9.45947L11.1211 8.75234L10.4139 8.04512L9.70679 8.75254L10.4141 9.45947ZM24.9805 24.0248L24.2734 24.7319L24.9805 25.439L25.6876 24.7319L24.9805 24.0248ZM9.45898 10.415L8.75171 9.70807L8.04496 10.4152L8.75186 11.1221L9.45898 10.415ZM24.0234 24.9801L24.7306 25.6872L25.4376 24.9801L24.7306 24.273L24.0234 24.9801ZM9.45898 39.5452L8.75186 38.8381L8.04496 39.5451L8.75171 40.2522L9.45898 39.5452ZM10.4141 40.5008L9.70679 41.2077L10.4139 41.9151L11.1211 41.2079L10.4141 40.5008ZM24.9805 25.9354L25.6876 25.2283L24.9805 24.5212L24.2734 25.2283L24.9805 25.9354ZM39.5449 40.5008L38.8378 41.2078L39.5451 41.9152L40.2522 41.2077L39.5449 40.5008ZM40.5 39.5452L41.2073 40.2522L41.914 39.5451L41.2071 38.8381L40.5 39.5452ZM25.9355 24.9801L25.2284 24.273L24.5214 24.9801L25.2284 25.6872L25.9355 24.9801ZM40.5 10.415L41.2071 11.1221L41.914 10.4152L41.2073 9.70807L40.5 10.415ZM39.5449 9.45947L40.2522 8.75254L39.5451 8.04507L38.8378 8.75239L39.5449 9.45947ZM9.70698 10.1666L24.2734 24.7319L25.6875 23.3177L11.1211 8.75234L9.70698 10.1666ZM10.1663 11.1219L11.1213 10.1664L9.70679 8.75254L8.75171 9.70807L10.1663 11.1219ZM24.7306 24.273L10.1661 9.70792L8.75186 11.1221L23.3163 25.6872L24.7306 24.273ZM23.3163 24.273L8.75186 38.8381L10.1661 40.2523L24.7306 25.6872L23.3163 24.273ZM8.75171 40.2522L9.70679 41.2077L11.1213 39.7938L10.1663 38.8383L8.75171 40.2522ZM11.1211 41.2079L25.6875 26.6426L24.2734 25.2283L9.70698 39.7936L11.1211 41.2079ZM40.2521 39.7937L25.6876 25.2283L24.2733 26.6425L38.8378 41.2078L40.2521 39.7937ZM39.7927 38.8383L38.8376 39.7938L40.2522 41.2077L41.2073 40.2522L39.7927 38.8383ZM25.2284 25.6872L39.7929 40.2523L41.2071 38.8381L26.6427 24.273L25.2284 25.6872ZM26.6427 25.6872L41.2071 11.1221L39.7929 9.70792L25.2284 24.273L26.6427 25.6872ZM41.2073 9.70807L40.2522 8.75254L38.8376 10.1664L39.7927 11.1219L41.2073 9.70807ZM38.8378 8.75239L24.2733 23.3177L25.6876 24.7319L40.2521 10.1666L38.8378 8.75239Z" fill="#979797" mask="url(#path-2-inside-1)"/>
</svg>