<svg width="600" height="172" viewBox="0 0 600 172" fill="none" xmlns="http://www.w3.org/2000/svg">
<path fill-rule="evenodd" clip-rule="evenodd" d="M416.646 91.0312C415.84 91.0312 415.126 90.7384 414.507 90.1499C413.887 89.5627 413.577 88.867 413.577 88.0619C413.577 87.1967 413.871 86.4698 414.461 85.8813C415.049 85.2943 415.776 85 416.646 85C417.45 85 418.164 85.2943 418.785 85.8813C419.404 86.4698 419.715 87.1663 419.715 87.9694C419.715 88.7739 419.404 89.4858 418.785 90.1033C418.164 90.7228 417.45 91.0312 416.646 91.0312ZM462.609 108.013C459.912 106.776 456.951 106.157 453.729 106.157C449.759 106.157 446.179 107.07 442.986 108.894C439.792 110.72 437.298 113.256 435.5 116.503C433.701 119.752 432.803 123.479 432.803 127.685C432.803 131.893 433.701 135.635 435.5 138.913C437.298 142.193 439.792 144.745 442.986 146.569C446.179 148.394 449.759 149.306 453.729 149.306C456.951 149.306 459.912 148.688 462.609 147.45C465.306 146.214 467.522 144.388 469.259 141.976L471.584 143.831C469.599 146.555 467.041 148.61 463.911 150.002C460.779 151.394 457.385 152.09 453.729 152.09C449.139 152.09 445.032 151.055 441.405 148.981C437.778 146.909 434.926 144.017 432.85 140.305C430.771 136.594 429.734 132.387 429.734 127.685C429.734 122.985 430.771 118.777 432.85 115.065C434.926 111.354 437.778 108.462 441.405 106.389C445.032 104.317 449.139 103.28 453.729 103.28C457.385 103.28 460.779 103.977 463.911 105.368C467.041 106.76 469.599 108.817 471.584 111.539L469.259 113.487C467.522 111.075 465.306 109.251 462.609 108.013ZM387.812 126.572C384.341 125.891 381.597 125.226 379.583 124.577C377.567 123.927 375.877 122.922 374.515 121.561C373.149 120.201 372.469 118.345 372.469 115.993C372.469 113.024 373.677 110.627 376.095 108.802C378.513 106.978 382.108 106.064 386.883 106.064C389.61 106.064 392.261 106.451 394.835 107.224C397.406 107.998 399.654 109.126 401.577 110.611L403.158 108.198C401.298 106.714 398.88 105.523 395.904 104.626C392.928 103.73 389.952 103.28 386.977 103.28C381.21 103.28 376.823 104.503 373.817 106.946C370.809 109.39 369.307 112.437 369.307 116.086C369.307 119.18 370.111 121.593 371.725 123.324C373.335 125.057 375.305 126.309 377.63 127.082C379.955 127.856 383.07 128.613 386.977 129.356C390.324 129.974 392.989 130.594 394.974 131.211C396.957 131.83 398.615 132.789 399.949 134.088C401.282 135.387 401.948 137.15 401.948 139.377C401.948 142.532 400.708 144.992 398.229 146.754C395.748 148.518 391.904 149.399 386.697 149.399C383.163 149.399 379.83 148.812 376.699 147.636C373.568 146.461 371.011 145.007 369.027 143.275L367.539 145.687C369.461 147.605 372.143 149.153 375.584 150.327C379.025 151.503 382.698 152.09 386.604 152.09C392.556 152.09 397.112 150.946 400.274 148.657C403.437 146.369 405.018 143.275 405.018 139.377C405.018 136.408 404.228 134.088 402.646 132.417C401.065 130.747 399.127 129.526 396.834 128.752C394.539 127.979 391.533 127.253 387.812 126.572ZM355.479 123.695C355.479 118.004 354.037 113.659 351.153 110.658C348.271 107.658 344.163 106.157 338.831 106.157C332.816 106.157 328.073 107.936 324.603 111.493C321.129 115.05 319.395 119.83 319.395 125.829V151.812H316.325V103.651H319.301V115.436C320.851 111.664 323.347 108.695 326.788 106.528C330.229 104.363 334.335 103.28 339.11 103.28C345.123 103.28 349.866 105.029 353.339 108.523C356.811 112.019 358.547 117.014 358.547 123.509V151.812H355.479V123.695ZM273.585 146.615C270.329 144.821 267.772 142.316 265.912 139.099C264.052 135.883 263.09 132.232 263.028 128.149H305.344V127.314C305.344 122.674 304.351 118.531 302.367 114.88C300.383 111.23 297.671 108.384 294.23 106.343C290.789 104.301 286.96 103.28 282.744 103.28C278.467 103.28 274.591 104.317 271.12 106.389C267.646 108.462 264.936 111.354 262.982 115.065C261.029 118.777 260.053 122.985 260.053 127.685C260.053 132.387 261.106 136.594 263.215 140.305C265.322 144.017 268.221 146.909 271.91 148.981C275.598 151.055 279.799 152.09 284.512 152.09C288.106 152.09 291.454 151.41 294.556 150.048C297.654 148.688 300.29 146.74 302.46 144.203L300.508 142.161C298.709 144.513 296.416 146.291 293.626 147.497C290.836 148.703 287.797 149.306 284.512 149.306C280.48 149.306 276.839 148.41 273.585 146.615ZM302.46 125.644C302.212 121.932 301.205 118.577 299.438 115.575C297.671 112.576 295.347 110.24 292.463 108.57C289.58 106.899 286.34 106.064 282.744 106.064C279.148 106.064 275.893 106.899 272.979 108.57C270.064 110.24 267.74 112.576 266.005 115.575C264.269 118.577 263.308 121.932 263.122 125.644H302.46ZM239.095 126.201C239.095 120.015 240.677 115.158 243.838 111.632C247 108.105 251.371 106.343 256.951 106.343H257.788V103.28C253.075 103.28 249.123 104.317 245.931 106.389C242.736 108.462 240.428 111.416 239.002 115.251V103.651H236.026V151.812H239.095V126.201ZM213.055 148.981C209.458 151.055 205.397 152.09 200.872 152.09C196.407 152.09 192.362 151.055 188.735 148.981C185.108 146.909 182.271 144.017 180.226 140.305C178.18 136.594 177.157 132.387 177.157 127.685C177.157 122.985 178.18 118.777 180.226 115.065C182.271 111.354 185.108 108.462 188.735 106.389C192.362 104.317 196.407 103.28 200.872 103.28C205.397 103.28 209.458 104.317 213.055 106.389C216.649 108.462 219.472 111.354 221.518 115.065C223.563 118.777 224.587 122.985 224.587 127.685C224.587 132.387 223.563 136.594 221.518 140.305C219.472 144.017 216.649 146.909 213.055 148.981ZM211.427 108.894C214.557 110.72 217.021 113.256 218.82 116.503C220.617 119.752 221.518 123.479 221.518 127.685C221.518 131.893 220.617 135.635 218.82 138.913C217.021 142.193 214.557 144.745 211.427 146.569C208.296 148.394 204.777 149.306 200.871 149.306C196.966 149.306 193.446 148.394 190.316 146.569C187.185 144.745 184.72 142.193 182.923 138.913C181.124 135.635 180.226 131.893 180.226 127.685C180.226 123.479 181.124 119.752 182.923 116.503C184.72 113.256 187.185 110.72 190.316 108.894C193.446 107.07 196.966 106.157 200.871 106.157C204.777 106.157 208.296 107.07 211.427 108.894ZM132.162 119.426H167.502V122.21H132.162V151.812H129V86.8559H171.687V89.7322H132.162V119.426ZM415.157 151.812H418.227V103.651H415.157V151.812Z" fill="black" fill-opacity="0.7"/>
<path fill-rule="evenodd" clip-rule="evenodd" d="M312.834 2H301.821V44.8789C301.821 50.1306 303.23 54.129 306.05 56.8743C308.869 59.6194 312.863 60.9921 318.032 60.9921C320.088 60.9921 322.041 60.7235 323.891 60.1864C325.741 59.6493 327.312 58.8436 328.604 57.7694L325.521 49.8024C323.876 51.1153 321.82 51.7717 319.354 51.7717C317.239 51.7717 315.624 51.16 314.508 49.9366C313.392 48.7133 312.834 46.9378 312.834 44.6104V2ZM471.761 60.1864C473.637 59.6493 475.229 58.8436 476.539 57.7694L473.413 49.8024C471.746 51.1153 469.661 51.7717 467.16 51.7717C465.017 51.7717 463.379 51.16 462.248 49.9366C461.116 48.7133 460.551 46.9378 460.551 44.6104V21.0754H474.725V12.0259H460.551V2H449.385V12.0259H441.524V21.0754H449.385V44.8789C449.385 50.1306 450.814 54.129 453.673 56.8743C456.531 59.6194 460.58 60.9921 465.82 60.9921C467.904 60.9921 469.885 60.7235 471.761 60.1864ZM504.811 12.4663C511.718 12.4663 517.001 14.137 520.659 17.4786C524.318 20.8201 526.147 25.8619 526.147 32.6041V60.371H515.786V54.6047C514.439 56.6747 512.522 58.2567 510.035 59.3508C507.547 60.445 504.547 60.9921 501.035 60.9921C497.522 60.9921 494.449 60.3859 491.815 59.1735C489.181 57.961 487.146 56.2755 485.713 54.1168C484.278 51.9581 483.562 49.5186 483.562 46.798C483.562 42.5398 485.127 39.1245 488.259 36.5518C491.391 33.9791 496.322 32.6927 503.055 32.6927H515.172V31.983C515.172 28.6711 514.191 26.1281 512.23 24.3538C510.27 22.5795 507.356 21.6924 503.493 21.6924C500.859 21.6924 498.269 22.1064 495.723 22.9344C493.176 23.7624 491.025 24.9156 489.269 26.3942L484.967 18.3214C487.425 16.4288 490.381 14.9799 493.835 13.9744C497.288 12.969 500.947 12.4663 504.811 12.4663ZM503.321 52.9192C506.072 52.9192 508.517 52.2834 510.653 51.0119C512.79 49.7404 514.297 47.9218 515.175 45.5561V40.0559H503.849C497.526 40.0559 494.365 42.1554 494.365 46.3545C494.365 48.3653 495.155 49.9622 496.736 51.145C498.316 52.3278 500.512 52.9192 503.321 52.9192ZM416.391 12.4663C422.326 12.4663 427.087 14.2336 430.672 17.7682C434.258 21.3028 436.05 26.5447 436.05 33.4941V60.9921H425.03V34.9319C425.03 30.7383 424.061 27.5782 422.121 25.4514C420.182 23.3247 417.419 22.2613 413.834 22.2613C409.778 22.2613 406.576 23.5044 404.225 25.9906C401.874 28.4768 400.698 32.0563 400.698 36.7292V60.9921H389.679V13.0055H400.17V19.206C401.991 16.9894 404.283 15.312 407.046 14.1737C409.809 13.0355 412.923 12.4663 416.391 12.4663ZM372.129 17.4786C368.471 14.137 363.188 12.4663 356.28 12.4663C352.417 12.4663 348.758 12.969 345.305 13.9744C341.851 14.9799 338.895 16.4288 336.437 18.3214L340.738 26.3942C342.495 24.9156 344.646 23.7624 347.192 22.9344C349.738 22.1064 352.329 21.6924 354.963 21.6924C358.826 21.6924 361.739 22.5795 363.7 24.3538C365.661 26.1281 366.642 28.6711 366.642 31.983V32.6927H354.524C347.792 32.6927 342.86 33.9791 339.729 36.5518C336.597 39.1245 335.031 42.5398 335.031 46.798C335.031 49.5186 335.748 51.9581 337.183 54.1168C338.616 56.2755 340.65 57.961 343.285 59.1735C345.919 60.3859 348.992 60.9921 352.505 60.9921C356.017 60.9921 359.017 60.445 361.505 59.3508C363.992 58.2567 365.909 56.6747 367.256 54.6047V60.371H377.617V32.6041C377.617 25.8619 375.788 20.8201 372.129 17.4786ZM354.776 52.9192C357.527 52.9192 359.972 52.2834 362.108 51.0119C364.245 49.7404 365.752 47.9218 366.63 45.5561V40.0559H355.304C348.981 40.0559 345.82 42.1554 345.82 46.3545C345.82 48.3653 346.61 49.9622 348.191 51.145C349.771 52.3278 351.967 52.9192 354.776 52.9192ZM279.683 21.0754H271.16C267.93 21.0754 265.478 21.5596 263.804 22.5443C262.13 23.5289 261.293 24.827 261.293 26.4383C261.293 28.2286 262.188 29.4968 263.98 30.2427C265.771 30.9888 268.547 31.6899 272.306 32.3464C276.064 32.9432 279.148 33.6295 281.557 34.4053C283.965 35.1812 286.035 36.4941 287.768 38.3441C289.5 40.1942 290.366 42.8199 290.366 46.2216C290.366 50.6976 288.458 54.2782 284.64 56.9637C280.822 59.6493 275.624 60.9921 269.046 60.9921C265.229 60.9921 261.498 60.4848 257.856 59.4702C254.215 58.4557 251.308 57.1726 249.135 55.621L253.363 47.1168C255.479 48.5491 258.019 49.6979 260.984 50.5632C263.95 51.4286 266.873 51.8613 269.751 51.8613C276.329 51.8613 279.618 50.1008 279.618 46.5797C279.618 44.9087 278.781 43.745 277.107 43.0885C275.434 42.4321 272.746 41.8055 269.046 41.2087C265.169 40.6119 262.013 39.9256 259.575 39.1498C257.138 38.374 255.022 37.0163 253.231 35.0767C251.44 33.1371 250.544 30.4367 250.544 26.9754C250.544 22.4398 252.409 18.8144 256.139 16.099C259.868 13.3836 264.905 12.0259 271.248 12.0259H284.368L279.683 21.0754ZM233.725 17.7682C230.14 14.2336 225.379 12.4663 219.443 12.4663C215.976 12.4663 212.861 13.0355 210.099 14.1737C207.336 15.312 205.044 16.9894 203.223 19.206V13.0055H192.731V60.9921H203.751V36.7292C203.751 32.0563 204.927 28.4768 207.277 25.9906C209.629 23.5044 212.831 22.2613 216.887 22.2613C220.472 22.2613 223.234 23.3247 225.174 25.4514C227.113 27.5782 228.083 30.7383 228.083 34.9319V60.9921H239.103V33.4941C239.103 26.5447 237.311 21.3028 233.725 17.7682ZM157.654 60.9921C152.895 60.9921 148.604 59.9571 144.784 57.8871C140.965 55.8171 137.982 52.934 135.838 49.2376C133.692 45.5413 132.62 41.3571 132.62 36.6848C132.62 32.0126 133.692 27.8431 135.838 24.1763C137.982 20.5096 140.965 17.6412 144.784 15.5712C148.604 13.5013 152.895 12.4663 157.654 12.4663C162.474 12.4663 166.792 13.5013 170.612 15.5712C174.432 17.6412 177.414 20.5096 179.56 24.1763C181.704 27.8431 182.776 32.0126 182.776 36.6848C182.776 41.3571 181.704 45.5413 179.56 49.2376C177.414 52.934 174.432 55.8171 170.612 57.8871C166.792 59.9571 162.474 60.9921 157.654 60.9921ZM167.703 47.4191C165.059 50.1396 161.709 51.4998 157.654 51.4998C153.6 51.4998 150.265 50.1396 147.649 47.4191C145.034 44.6985 143.727 41.1205 143.727 36.6849C143.727 32.2492 145.034 28.6712 147.649 25.9506C150.265 23.2301 153.6 21.8699 157.654 21.8699C161.709 21.8699 165.059 23.2301 167.703 25.9506C170.348 28.6712 171.67 32.2492 171.67 36.6849C171.67 41.1205 170.348 44.6985 167.703 47.4191Z" fill="black"/>
<path fill-rule="evenodd" clip-rule="evenodd" d="M123.297 21.2775C123.902 19.8392 124.6 18.4438 125.388 17.0912C126.416 15.3269 127.564 13.6783 128.835 12.1454C126.377 9.82294 123.538 7.97412 120.316 6.59882C116.106 4.80157 111.452 3.90295 106.353 3.90295C100.067 3.90295 94.3896 5.29584 89.3203 8.08154C84.251 10.8673 80.2637 14.7164 77.3584 19.6289C74.4531 24.5414 73 30.0828 73 36.2534C73 42.424 74.4375 47.9655 77.3135 52.878C80.1895 57.7905 84.1621 61.6396 89.2314 64.4253C94.3008 67.2111 99.9785 68.6039 106.264 68.6039C111.363 68.6039 116.032 67.7053 120.271 65.9081C123.17 64.6793 125.757 63.0724 128.032 61.0875C127.076 59.8368 126.194 58.5135 125.388 57.1176C124.376 55.3671 123.515 53.5482 122.803 51.6606C118.429 56.1266 113.124 58.3596 106.886 58.3596C102.617 58.3596 98.793 57.4161 95.4131 55.5289C92.0332 53.6418 89.3945 51.0209 87.4971 47.666C85.5996 44.3111 84.6514 40.507 84.6514 36.2534C84.6514 31.9999 85.5996 28.1958 87.4971 24.8409C89.3945 21.486 92.0332 18.8651 95.4131 16.978C98.793 15.0908 102.617 14.1473 106.886 14.1473C113.36 14.1473 118.83 16.524 123.297 21.2775ZM294.877 12.0259L290.191 21.0754H326.665V12.0259H294.877Z" fill="#FF5200"/>
</svg>
