<svg width="188" height="63" viewBox="0 0 188 63" fill="none" xmlns="http://www.w3.org/2000/svg">
<rect width="187.647" height="62.6411" fill="black" fill-opacity="0"/>
<path fill-rule="evenodd" clip-rule="evenodd" d="M121.434 37.1664C121.1 37.1664 120.805 37.0442 120.548 36.7987C120.291 36.5537 120.163 36.2634 120.163 35.9275C120.163 35.5665 120.285 35.2633 120.529 35.0177C120.773 34.7728 121.074 34.65 121.434 34.65C121.767 34.65 122.063 34.7728 122.32 35.0177C122.465 35.1564 122.569 35.3093 122.632 35.4764C122.681 35.6055 122.705 35.7429 122.705 35.8889C122.705 36.2245 122.576 36.5216 122.32 36.7792C122.063 37.0377 121.767 37.1664 121.434 37.1664ZM140.468 44.2515C139.351 43.7354 138.125 43.4772 136.79 43.4772C135.147 43.4772 133.664 43.8582 132.342 44.6193C131.02 45.3809 129.986 46.439 129.242 47.7938C128.497 49.149 128.125 50.7041 128.125 52.4591C128.125 54.2147 128.497 55.776 129.242 57.1436C129.986 58.512 131.02 59.5765 132.342 60.3376C133.664 61.0992 135.147 61.4797 136.79 61.4797C138.125 61.4797 139.351 61.222 140.468 60.7054C141.584 60.1896 142.502 59.428 143.221 58.4213L144.184 59.1957C143.362 60.3318 142.303 61.1895 141.007 61.7703C139.71 62.3508 138.305 62.6411 136.79 62.6411C134.89 62.6411 133.189 62.2092 131.688 61.3442C130.186 60.4799 129.004 59.2731 128.145 57.7245C127.284 56.1758 126.854 54.4208 126.854 52.4591C126.854 50.498 127.284 48.7424 128.145 47.1938C129.004 45.6453 130.186 44.439 131.688 43.574C133.189 42.7096 134.89 42.2769 136.79 42.2769C138.305 42.2769 139.71 42.5674 141.007 43.1481C142.303 43.7289 143.362 44.5872 144.184 45.7227L143.221 46.5355C142.502 45.5289 141.584 44.7682 140.468 44.2515ZM109.495 51.9945C108.057 51.7107 106.92 51.4331 106.087 51.1622C105.252 50.8911 104.552 50.4718 103.988 49.9039C103.423 49.3365 103.141 48.5623 103.141 47.5811C103.141 46.3422 103.641 45.3423 104.642 44.5807C105.644 43.8196 107.133 43.4384 109.11 43.4384C110.239 43.4384 111.337 43.6 112.402 43.9224C113.467 44.2452 114.398 44.7161 115.194 45.3356L115.849 44.3289C115.079 43.7095 114.078 43.2128 112.845 42.8383C111.613 42.4644 110.381 42.2769 109.148 42.2769C106.76 42.2769 104.944 42.7871 103.699 43.8063C102.453 44.8262 101.831 46.0972 101.831 47.6196C101.831 48.9105 102.165 49.9171 102.833 50.6394C103.5 51.3624 104.315 51.885 105.278 52.2074C106.241 52.5304 107.531 52.8463 109.148 53.156C110.535 53.4142 111.638 53.6727 112.46 53.9303C113.281 54.1885 113.968 54.5884 114.52 55.1304C115.072 55.6724 115.348 56.4081 115.348 57.3373C115.348 58.6536 114.835 59.6797 113.808 60.415C112.781 61.1509 111.189 61.5186 109.032 61.5186C107.569 61.5186 106.189 61.2736 104.893 60.7828C103.596 60.2928 102.537 59.6862 101.716 58.9634L101.099 59.97C101.895 60.7701 103.006 61.4158 104.431 61.9058C105.856 62.3962 107.377 62.6411 108.994 62.6411C111.459 62.6411 113.346 62.1639 114.655 61.2089C115.964 60.2543 116.619 58.9634 116.619 57.3373C116.619 56.0984 116.292 55.1304 115.637 54.4335C114.982 53.7366 114.18 53.2273 113.23 52.9043C112.28 52.5819 111.035 52.2789 109.495 51.9945ZM96.1052 50.7942C96.1052 48.42 95.5083 46.6071 94.3145 45.355C93.1206 44.1034 91.4194 43.4772 89.2117 43.4772C86.7212 43.4772 84.7571 44.2194 83.3196 45.7032C81.8816 47.1876 81.1631 49.1818 81.1631 51.6848V62.5251H79.8921V42.4318H81.1245V47.3488C81.7661 45.7748 82.7998 44.5359 84.2246 43.6321C85.6497 42.7288 87.3501 42.2769 89.3274 42.2769C91.8171 42.2769 93.7815 43.0063 95.2192 44.4644C96.657 45.9229 97.376 48.0067 97.376 50.7168V62.5251H96.1052V50.7942ZM62.1931 60.3571C60.845 59.6086 59.7861 58.5635 59.0159 57.2209C58.2456 55.8794 57.8474 54.3561 57.822 52.6526H75.3445V52.3043C75.3445 50.3685 74.9333 48.6396 74.1121 47.1165C73.29 45.5938 72.1672 44.4064 70.7424 43.5546C69.3174 42.7029 67.7319 42.2769 65.9861 42.2769C64.2146 42.2769 62.6099 42.7096 61.1726 43.574C59.7344 44.439 58.6116 45.6453 57.803 47.1938C56.9941 48.7424 56.5896 50.498 56.5896 52.4591C56.5896 54.4208 57.0259 56.1758 57.8989 57.7245C58.7717 59.2731 59.9722 60.4799 61.5 61.3442C63.0269 62.2092 64.7664 62.6411 66.718 62.6411C68.2065 62.6411 69.593 62.3577 70.8772 61.7894C72.1604 61.222 73.2517 60.4092 74.1504 59.3505L73.3418 58.4988C72.5969 59.48 71.6475 60.2217 70.4919 60.7249C69.3367 61.2283 68.0784 61.4797 66.718 61.4797C65.0488 61.4797 63.5408 61.1061 62.1931 60.3571ZM74.1504 51.6073C74.0476 50.0587 73.6306 48.6588 72.8989 47.4066C72.1672 46.155 71.2046 45.1805 70.0105 44.4836C68.8169 43.7869 67.4751 43.4382 65.9861 43.4382C64.4971 43.4382 63.1489 43.7869 61.9426 44.4836C60.7356 45.1805 59.7729 46.155 59.0542 47.4066C58.3352 48.6588 57.9375 50.0587 57.8606 51.6073H74.1504ZM47.9111 51.8397C47.9111 49.2592 48.5659 47.2324 49.8752 45.7612C51.1846 44.29 52.9944 43.5546 55.3052 43.5546H55.6519V42.2769C53.7002 42.2769 52.0635 42.7096 50.7415 43.574C49.4189 44.439 48.4629 45.6711 47.8728 47.2712V42.4318H46.6404V62.5251H47.9111V51.8397ZM37.1277 61.3442C35.6384 62.2092 33.9568 62.6411 32.0828 62.6411C30.2341 62.6411 28.5591 62.2092 27.0574 61.3442C25.5552 60.4799 24.3806 59.2731 23.5334 57.7245C22.6863 56.1758 22.2627 54.4208 22.2627 52.4591C22.2627 50.498 22.6863 48.7424 23.5334 47.1938C24.3806 45.6453 25.5552 44.439 27.0574 43.574C28.5591 42.7096 30.2341 42.2769 32.0828 42.2769C33.9568 42.2769 35.6384 42.7096 37.1277 43.574C38.6165 44.439 39.7849 45.6453 40.6321 47.1938C41.4792 48.7424 41.9031 50.498 41.9031 52.4591C41.9031 54.4208 41.4792 56.1758 40.6321 57.7245C39.7849 59.2731 38.6165 60.4799 37.1277 61.3442ZM36.4539 44.6193C37.7498 45.3809 38.7705 46.439 39.5154 47.7938C40.2595 49.149 40.6321 50.7041 40.6321 52.4591C40.6321 54.2147 40.2595 55.776 39.5154 57.1436C38.7705 58.512 37.7498 59.5765 36.4539 60.3376C35.1572 61.0992 33.7002 61.4797 32.0828 61.4797C30.4653 61.4797 29.0081 61.0992 27.7119 60.3376C26.415 59.5765 25.3945 58.512 24.6504 57.1436C23.9053 55.776 23.5334 54.2147 23.5334 52.4591C23.5334 50.7041 23.9053 49.149 24.6504 47.7938C25.3945 46.439 26.415 45.3809 27.7119 44.6193C29.0081 43.8582 30.4653 43.4772 32.0828 43.4772C33.7002 43.4772 35.1572 43.8582 36.4539 44.6193ZM3.63037 49.0133H18.2644V50.1748H3.63037V62.5251H2.32104V35.4243H19.9973V36.6244H3.63037V49.0133ZM120.818 62.525H122.089V42.4316H120.818V62.525Z" fill="black" fill-opacity="0.7"/>
<path fill-rule="evenodd" clip-rule="evenodd" d="M99.3147 0H94.7544V17.8899C94.7544 20.0809 95.3381 21.7491 96.5056 22.8945C97.6731 24.0399 99.3269 24.6125 101.467 24.6125C101.703 24.6125 101.935 24.604 102.164 24.5868C102.37 24.5713 102.574 24.549 102.775 24.5197C103.157 24.4637 103.53 24.3827 103.893 24.2765C104.044 24.2324 104.19 24.1841 104.332 24.1313C104.448 24.088 104.561 24.0419 104.671 23.9928C104.791 23.9396 104.907 23.8831 105.019 23.823C105.32 23.6625 105.595 23.4775 105.845 23.2681L104.568 19.9441C103.887 20.4918 103.036 20.7657 102.014 20.7657C101.139 20.7657 100.47 20.5105 100.008 20C99.5459 19.4896 99.3147 18.7489 99.3147 17.7778V0ZM165.126 24.2765C165.902 24.0524 166.562 23.7162 167.104 23.2681L165.81 19.9441C165.12 20.4918 164.256 20.7657 163.221 20.7657C162.333 20.7657 161.655 20.5105 161.186 20C160.718 19.4896 160.484 18.7489 160.484 17.7778V7.95862H166.353V4.18298H160.484V0H155.86V4.18298H152.605V7.95862H155.86V17.8899C155.86 20.0809 156.452 21.7491 157.635 22.8945C158.819 24.0399 160.496 24.6125 162.666 24.6125C163.529 24.6125 164.349 24.5005 165.126 24.2765ZM178.811 4.3667C181.672 4.3667 183.859 5.06372 185.374 6.45789C186.889 7.85205 187.647 9.95557 187.647 12.7686V24.3534H183.356V21.9476C182.799 22.8113 182.005 23.4713 180.975 23.9279C179.945 24.3843 178.702 24.6125 177.248 24.6125C175.793 24.6125 174.521 24.3596 173.43 23.8538C172.339 23.3479 171.497 22.6447 170.903 21.744C170.309 20.8434 170.012 19.8256 170.012 18.6906C170.012 16.9139 170.661 15.489 171.958 14.4156C173.254 13.3422 175.297 12.8055 178.084 12.8055H183.102V12.5094C183.102 11.1277 182.696 10.0667 181.884 9.32642C181.072 8.58606 179.866 8.21594 178.266 8.21594C177.175 8.21594 176.103 8.38867 175.048 8.73413C173.994 9.07959 173.103 9.56079 172.376 10.1776L170.594 6.80957C171.612 6.0199 172.836 5.41541 174.266 4.99597C175.697 4.57642 177.211 4.3667 178.811 4.3667ZM178.195 21.2445C179.334 21.2445 180.346 20.9792 181.231 20.4487C182.116 19.9182 182.74 19.1594 183.104 18.1725V15.8777H178.413C175.795 15.8777 174.486 16.7537 174.486 18.5056C174.486 19.3445 174.813 20.0107 175.468 20.5043C176.122 20.9978 177.031 21.2445 178.195 21.2445ZM142.197 4.3667C144.655 4.3667 146.626 5.104 148.111 6.57874C149.596 8.05347 150.338 10.2405 150.338 13.1399V24.6125H145.775V13.7397C145.775 11.9901 145.373 10.6716 144.57 9.7843C143.767 8.89697 142.623 8.45337 141.138 8.45337C139.459 8.45337 138.133 8.97205 137.159 10.0093C136.186 11.0466 135.699 12.54 135.699 14.4896V24.6125H131.136V4.59167H135.48V7.17859C136.234 6.25378 137.184 5.55396 138.327 5.0791C139.471 4.60413 140.761 4.3667 142.197 4.3667ZM123.868 6.45789C122.353 5.06372 120.166 4.3667 117.305 4.3667C115.705 4.3667 114.19 4.57642 112.76 4.99597C111.33 5.41541 110.106 6.0199 109.088 6.80957L110.87 10.1776C111.597 9.56079 112.488 9.07959 113.542 8.73413C114.596 8.38867 115.669 8.21594 116.76 8.21594C118.36 8.21594 119.566 8.58606 120.378 9.32642C121.19 10.0667 121.596 11.1277 121.596 12.5094V12.8055H116.578C113.791 12.8055 111.748 13.3422 110.451 14.4156C109.155 15.489 108.506 16.9139 108.506 18.6906C108.506 19.8256 108.803 20.8434 109.397 21.744C109.991 22.6447 110.833 23.3479 111.924 23.8538C113.015 24.3596 114.287 24.6125 115.742 24.6125C117.196 24.6125 118.438 24.3843 119.469 23.9279C120.499 23.4713 121.293 22.8113 121.85 21.9476V24.3534H126.141V12.7686C126.141 9.95557 125.383 7.85205 123.868 6.45789ZM116.683 21.2445C117.822 21.2445 118.834 20.9792 119.719 20.4487C120.604 19.9182 121.228 19.1594 121.592 18.1725V15.8777H116.901C114.283 15.8777 112.974 16.7537 112.974 18.5056C112.974 19.3445 113.301 20.0107 113.956 20.5043C114.61 20.9978 115.519 21.2445 116.683 21.2445ZM85.5869 7.95862H82.0576C80.72 7.95862 79.7046 8.16064 79.0115 8.57141C78.3181 8.9823 77.9717 9.5238 77.9717 10.196C77.9717 10.943 78.3425 11.4722 79.0845 11.7833C79.8262 12.0946 80.9753 12.3872 82.532 12.661C84.0886 12.91 85.3655 13.1964 86.3628 13.52C87.3599 13.8438 88.2173 14.3915 88.9348 15.1635C89.6523 15.9353 90.011 17.0308 90.011 18.4501C90.011 20.3175 89.2205 21.8114 87.6396 22.9319C86.0586 24.0524 83.9062 24.6125 81.1821 24.6125C79.6013 24.6125 78.0569 24.4009 76.5488 23.9777C75.0408 23.5543 73.8369 23.019 72.937 22.3717L74.6882 18.8236C75.5637 19.4211 76.6157 19.9004 77.844 20.2615C79.0723 20.6226 80.2822 20.803 81.4741 20.803C84.198 20.803 85.5601 20.0685 85.5601 18.5995C85.5601 17.9023 85.2134 17.4167 84.5203 17.1428C83.8271 16.869 82.7144 16.6075 81.1821 16.3585C79.5769 16.1096 78.2695 15.8232 77.2603 15.4995C76.251 15.1759 75.3752 14.6094 74.6335 13.8002C73.8916 12.991 73.5208 11.8643 73.5208 10.4202C73.5208 8.52783 74.293 7.01526 75.8374 5.88232C77.3818 4.74939 79.4675 4.18298 82.0942 4.18298H87.5271L85.5869 7.95862ZM66.5559 6.57874C65.0713 5.104 63.1001 4.3667 60.6418 4.3667C59.2061 4.3667 57.916 4.60413 56.7722 5.0791C55.6284 5.55396 54.6792 6.25378 53.9248 7.17859V4.59167H49.5806V24.6125H54.1438V14.4896C54.1438 12.54 54.6306 11.0466 55.604 10.0093C56.5776 8.97205 57.9041 8.45337 59.5833 8.45337C61.0679 8.45337 62.2117 8.89697 63.0149 9.7843C63.8179 10.6716 64.2195 11.9901 64.2195 13.7397V24.6125H68.7827V13.1399C68.7827 10.2405 68.0405 8.05347 66.5559 6.57874ZM35.0552 24.6125C33.084 24.6125 31.3076 24.1807 29.7258 23.3171C28.144 22.4535 26.9089 21.2506 26.0208 19.7084C25.1326 18.1661 24.6885 16.4204 24.6885 14.4711C24.6885 12.5217 25.1326 10.7822 26.0208 9.25232C26.9089 7.72253 28.144 6.52576 29.7258 5.66211C31.3076 4.79846 33.084 4.3667 35.0552 4.3667C37.0505 4.3667 38.8391 4.79846 40.4209 5.66211C42.0027 6.52576 43.2375 7.72253 44.1257 9.25232C45.0142 10.7822 45.4583 12.5217 45.4583 14.4711C45.4583 16.4204 45.0142 18.1661 44.1257 19.7084C43.2375 21.2506 42.0027 22.4535 40.4209 23.3171C38.8391 24.1807 37.0505 24.6125 35.0552 24.6125ZM39.2163 18.9496C38.1213 20.0847 36.7344 20.6522 35.0552 20.6522C33.376 20.6522 31.9951 20.0847 30.9121 18.9496C29.8293 17.8146 29.2878 16.3218 29.2878 14.4711C29.2878 12.6205 29.8293 11.1277 30.9121 9.99255C31.9951 8.85754 33.376 8.29004 35.0552 8.29004C36.7344 8.29004 38.1213 8.85754 39.2163 9.99255C40.3115 11.1277 40.8589 12.6205 40.8589 14.4711C40.8589 16.3218 40.3115 17.8146 39.2163 18.9496Z" fill="black"/>
<path fill-rule="evenodd" clip-rule="evenodd" d="M21.3047 7.01221C21.4277 6.77051 21.5574 6.53186 21.6936 6.29639C21.9187 5.90735 22.1577 5.53174 22.4106 5.16968C22.6362 4.84668 22.873 4.53442 23.1211 4.23279C22.1033 3.26392 20.9275 2.49255 19.5935 1.9187C17.8501 1.16882 15.9229 0.793945 13.8113 0.793945C11.2085 0.793945 8.85767 1.37512 6.7583 2.53735C4.65894 3.69958 3.00781 5.30554 1.80469 7.3551C0.601562 9.40466 0 11.7167 0 14.2911C0 16.8656 0.595459 19.1776 1.78613 21.2273C2.97705 23.2769 4.62207 24.8827 6.72144 26.045C8.8208 27.2073 11.1716 27.7883 13.7744 27.7883C15.886 27.7883 17.8196 27.4135 19.575 26.6636C20.7754 26.151 21.8464 25.4806 22.7886 24.6523C22.3928 24.1306 22.0278 23.5785 21.6936 22.9961C21.2747 22.2657 20.9177 21.5068 20.623 20.7194C18.812 22.5826 16.615 23.5143 14.0322 23.5143C12.2644 23.5143 10.6807 23.1206 9.28101 22.3333C7.88159 21.5459 6.78906 20.4524 6.00317 19.0527C5.21753 17.653 4.82471 16.0658 4.82471 14.2911C4.82471 12.5165 5.21753 10.9293 6.00317 9.52966C6.78906 8.12988 7.88159 7.03638 9.28101 6.24902C10.6807 5.46167 12.2644 5.06812 14.0322 5.06812C16.7131 5.06812 18.9783 6.05969 20.8276 8.04297C20.9739 7.69336 21.1328 7.34973 21.3047 7.01221ZM91.8784 4.18298L89.9382 7.95862H105.042V4.18298H91.8784Z" fill="#FF5200"/>
</svg>
