<svg width="154" height="22" viewBox="0 0 154 22" fill="none" xmlns="http://www.w3.org/2000/svg">
<rect width="154" height="22" fill="black" fill-opacity="0"/>
<path fill-rule="evenodd" clip-rule="evenodd" d="M81.6244 0H77.8828V14.2776C77.8828 16.0263 78.3618 17.3576 79.3196 18.2717C80.2774 19.1858 81.6343 19.6429 83.3903 19.6429C84.0887 19.6429 84.7522 19.5534 85.3808 19.3746C86.0094 19.1958 86.5432 18.9275 86.9822 18.5698L85.9345 15.917C85.3758 16.3541 84.6774 16.5727 83.8393 16.5727C83.1209 16.5727 82.5722 16.369 82.1931 15.9617C81.8139 15.5543 81.6244 14.9632 81.6244 14.1882V0ZM135.193 19.3746C135.831 19.1958 136.372 18.9275 136.817 18.5698L135.755 15.917C135.188 16.3541 134.48 16.5727 133.631 16.5727C132.902 16.5727 132.346 16.369 131.961 15.9617C131.577 15.5543 131.385 14.9632 131.385 14.1882V6.35162H135.725V3.33839H131.385V0H127.591V3.33839H124.921V6.35162H127.591V14.2776C127.591 16.0263 128.077 17.3576 129.048 18.2717C130.019 19.1858 131.395 19.6429 133.175 19.6429C133.883 19.6429 134.556 19.5534 135.193 19.3746ZM151.35 5.15398C150.107 4.04134 148.312 3.48502 145.965 3.48502C144.653 3.48502 143.41 3.65241 142.236 3.98719C141.063 4.32196 140.059 4.80443 139.223 5.4346L140.685 8.12265C141.282 7.63033 142.013 7.24632 142.878 6.97063C143.743 6.69493 144.623 6.55708 145.518 6.55708C146.83 6.55708 147.82 6.85247 148.486 7.44325C149.152 8.03403 149.485 8.88081 149.485 9.9836V10.2199H145.369C143.082 10.2199 141.406 10.6482 140.342 11.5049C139.278 12.3615 138.746 13.4987 138.746 14.9166C138.746 15.8225 138.99 16.6348 139.477 17.3536C139.964 18.0724 140.655 18.6336 141.55 19.0373C142.445 19.441 143.489 19.6429 144.682 19.6429C145.876 19.6429 146.895 19.4607 147.74 19.0964C148.585 18.7321 149.237 18.2053 149.694 17.516V19.4361H153.214V10.1904C153.214 7.9454 152.593 6.26662 151.35 5.15398ZM147.949 16.3197C147.223 16.7431 146.393 16.9548 145.458 16.9548C144.504 16.9548 143.758 16.7579 143.221 16.364C142.684 15.9702 142.415 15.4385 142.415 14.7689C142.415 13.3707 143.489 12.6717 145.637 12.6717H149.485V14.5031C149.187 15.2908 148.675 15.8963 147.949 16.3197ZM115.991 3.48502C118.008 3.48502 119.625 4.07348 120.843 5.25042C122.061 6.42735 122.67 8.17278 122.67 10.4868V19.6429H118.926V10.9655C118.926 9.56914 118.597 8.5169 117.938 7.80874C117.279 7.10059 116.341 6.74651 115.123 6.74651C113.745 6.74651 112.657 7.16043 111.858 7.98827C111.059 8.81612 110.66 10.008 110.66 11.5639V19.6429H106.916V3.66455H110.48V5.72917C111.099 4.99109 111.878 4.43255 112.816 4.05354C113.755 3.67453 114.813 3.48502 115.991 3.48502ZM101.193 5.15398C99.9505 4.04134 98.1557 3.48502 95.8089 3.48502C94.4963 3.48502 93.2534 3.65241 92.08 3.98719C90.9066 4.32196 89.9023 4.80443 89.067 5.4346L90.5288 8.12265C91.1254 7.63033 91.8563 7.24632 92.7214 6.97063C93.5865 6.69493 94.4665 6.55708 95.3615 6.55708C96.674 6.55708 97.6634 6.85247 98.3297 7.44325C98.9959 8.03403 99.329 8.88081 99.329 9.9836V10.2199H95.2123C92.9252 10.2199 91.2497 10.6482 90.1857 11.5049C89.1217 12.3615 88.5898 13.4987 88.5898 14.9166C88.5898 15.8225 88.8334 16.6348 89.3206 17.3536C89.8079 18.0724 90.499 18.6336 91.3939 19.0373C92.2888 19.441 93.3329 19.6429 94.5262 19.6429C95.7195 19.6429 96.7387 19.4607 97.5839 19.0964C98.4291 18.7321 99.0804 18.2053 99.5378 17.516V19.4361H103.058V10.1904C103.058 7.9454 102.436 6.26662 101.193 5.15398ZM95.3018 16.9548C96.2365 16.9548 97.0668 16.7431 97.7927 16.3197C98.5186 15.8963 99.0307 15.2908 99.329 14.5031V12.6717H95.4808C93.3329 12.6717 92.259 13.3707 92.259 14.7689C92.259 15.4385 92.5275 15.9702 93.0645 16.364C93.6014 16.7579 94.3472 16.9548 95.3018 16.9548ZM70.6749 6.35162H67.7794C66.6819 6.35162 65.8488 6.51284 65.2801 6.84072C64.7114 7.1686 64.427 7.6008 64.427 8.13733C64.427 8.73347 64.7314 9.15574 65.34 9.40413C65.9486 9.65252 66.8914 9.88601 68.1685 10.1046C69.4456 10.3033 70.4933 10.5318 71.3114 10.7902C72.1295 11.0485 72.8329 11.4857 73.4216 12.1017C74.0103 12.7177 74.3046 13.592 74.3046 14.7247C74.3046 16.2151 73.6561 17.4073 72.359 18.3015C71.062 19.1958 69.296 19.6429 67.0611 19.6429C65.764 19.6429 64.4969 19.474 63.2597 19.1361C62.0225 18.7983 61.0347 18.3711 60.2964 17.8544L61.7332 15.0228C62.4515 15.4997 63.3145 15.8822 64.3223 16.1703C65.33 16.4585 66.3227 16.6025 67.3005 16.6025C69.5354 16.6025 70.6529 16.0163 70.6529 14.8439C70.6529 14.2875 70.3685 13.9 69.7998 13.6814C69.2311 13.4629 68.3182 13.2542 67.0611 13.0555C65.744 12.8568 64.6715 12.6283 63.8434 12.3699C63.0152 12.1116 62.2969 11.6595 61.6883 11.0137C61.0796 10.3679 60.7753 9.46872 60.7753 8.31617C60.7753 6.80594 61.4089 5.59877 62.676 4.69461C63.9431 3.79046 65.6542 3.33839 67.8094 3.33839L72.2668 3.33839L70.6749 6.35162ZM55.2542 5.25042C54.0362 4.07348 52.4189 3.48502 50.4022 3.48502C49.2241 3.48502 48.1658 3.67453 47.2274 4.05354C46.2889 4.43255 45.5102 4.99109 44.8912 5.72917V3.66455H41.327V19.6429H45.0709V11.5639C45.0709 10.008 45.4702 8.81612 46.269 7.98827C47.0677 7.16043 48.1559 6.74651 49.5336 6.74651C50.7516 6.74651 51.6901 7.10059 52.349 7.80874C53.0079 8.5169 53.3374 9.56914 53.3374 10.9655V19.6429H57.0813V10.4868C57.0813 8.17278 56.4723 6.42735 55.2542 5.25042ZM28.9337 19.6429C27.3166 19.6429 25.8591 19.2982 24.5613 18.609C23.2636 17.9197 22.2504 16.9597 21.5217 15.7289C20.7929 14.4981 20.4286 13.1049 20.4286 11.5492C20.4286 9.99344 20.7929 8.60512 21.5217 7.38417C22.2504 6.16322 23.2636 5.20813 24.5613 4.51889C25.8591 3.82964 27.3166 3.48502 28.9337 3.48502C30.5709 3.48502 32.0383 3.82964 33.3361 4.51889C34.6338 5.20813 35.647 6.16322 36.3758 7.38417C37.1045 8.60512 37.4688 9.99344 37.4688 11.5492C37.4688 13.1049 37.1045 14.4981 36.3758 15.7289C35.647 16.9597 34.6338 17.9197 33.3361 18.609C32.0383 19.2982 30.5709 19.6429 28.9337 19.6429ZM32.3478 15.1234C31.4494 16.0293 30.3113 16.4822 28.9337 16.4822C27.5562 16.4822 26.4231 16.0293 25.5347 15.1234C24.6462 14.2175 24.202 13.0261 24.202 11.5492C24.202 10.0722 24.6462 8.88082 25.5347 7.97495C26.4231 7.06908 27.5562 6.61616 28.9337 6.61616C30.3113 6.61616 31.4494 7.06908 32.3478 7.97495C33.2462 8.88082 33.6954 10.0722 33.6954 11.5492C33.6954 13.0261 33.2462 14.2175 32.3478 15.1234Z" fill="black" fill-opacity="0.9"/>
<path fill-rule="evenodd" clip-rule="evenodd" d="M17.0188 5.90779C17.2239 5.41875 17.4597 4.94427 17.7264 4.48435C18.0743 3.88443 18.463 3.32386 18.8927 2.80265C18.0612 2.01296 17.1003 1.3843 16.0103 0.916666C14.5858 0.305553 13.0109 0 11.2855 0C9.15878 0 7.23776 0.473606 5.52234 1.42083C3.80695 2.36806 2.45773 3.67684 1.47464 5.34722C0.491547 7.0176 0 8.90184 0 11C0 13.0982 0.486511 14.9824 1.45959 16.6528C2.43265 18.3232 3.77686 19.6319 5.49225 20.5792C7.20767 21.5264 9.12866 22 11.2554 22C12.9808 22 14.5608 21.6944 15.9953 21.0833C16.976 20.6655 17.8513 20.1191 18.6211 19.4442C18.2977 19.019 17.9995 18.569 17.7264 18.0943C17.3841 17.4991 17.0925 16.8806 16.8516 16.2389C15.3718 17.7574 13.5766 18.5167 11.466 18.5167C10.0215 18.5167 8.72742 18.1958 7.58383 17.5542C6.44025 16.9125 5.54742 16.0213 4.90543 14.8806C4.2634 13.7398 3.94238 12.4463 3.94238 11C3.94238 9.5537 4.2634 8.26019 4.90543 7.11945C5.54742 5.9787 6.44025 5.0875 7.58383 4.44583C8.72742 3.80416 10.0215 3.48333 11.466 3.48333C13.6567 3.48333 15.5076 4.29148 17.0188 5.90779ZM75.3608 3.33928L73.7754 6.34857H84.8571V3.33928H75.3608Z" fill="#FF5200"/>
</svg>
