<svg width="600" height="172" viewBox="0 0 600 172" fill="none" xmlns="http://www.w3.org/2000/svg">
<path fill-rule="evenodd" clip-rule="evenodd" d="M351.611 83.0082H354.68V151.79H351.611V83.0082ZM408.577 91.0726C407.771 91.0726 407.058 90.78 406.438 90.1922C405.818 89.6057 405.509 88.9106 405.509 88.1063C405.509 87.242 405.802 86.5159 406.393 85.9281C406.98 85.3416 407.708 85.0476 408.577 85.0476C409.381 85.0476 410.095 85.3416 410.715 85.9281C411.334 86.5159 411.644 87.2117 411.644 88.0139C411.644 88.8176 411.334 89.5288 410.715 90.1457C410.095 90.7645 409.381 91.0726 408.577 91.0726ZM463.484 110.679C466.366 113.677 467.808 118.018 467.808 123.702V151.79H470.875V123.517C470.875 117.028 469.139 112.039 465.669 108.546C462.197 105.056 457.457 103.309 451.447 103.309C446.674 103.309 442.568 104.391 439.13 106.554C435.69 108.718 433.194 111.684 431.646 115.453V103.68H428.672V151.79H431.74V125.835C431.74 119.841 433.474 115.067 436.945 111.513C440.415 107.96 445.156 106.183 451.168 106.183C456.497 106.183 460.603 107.682 463.484 110.679ZM526.938 164.444C523.158 168.182 517.457 170.051 509.835 170.051C505.373 170.051 501.221 169.371 497.378 168.012C493.536 166.652 490.468 164.736 488.176 162.265L489.941 159.948C492.42 162.296 495.349 164.103 498.727 165.371C502.104 166.636 505.775 167.27 509.742 167.27C516.496 167.27 521.485 165.679 524.708 162.497C527.93 159.313 529.542 154.324 529.542 147.526V137.329C527.744 141.285 524.987 144.406 521.269 146.691C517.551 148.979 513.305 150.122 508.533 150.122C504.009 150.122 499.936 149.118 496.31 147.109C492.685 145.101 489.833 142.32 487.758 138.766C485.681 135.213 484.644 131.181 484.644 126.669C484.644 122.159 485.681 118.126 487.758 114.572C489.833 111.019 492.685 108.254 496.31 106.275C499.936 104.298 504.009 103.309 508.533 103.309C513.305 103.309 517.564 104.453 521.315 106.739C525.064 109.026 527.837 112.177 529.635 116.194V103.68H532.609V147.155C532.609 154.942 530.719 160.703 526.938 164.444ZM526.893 116.055C525.064 112.935 522.554 110.509 519.363 108.778C516.171 107.049 512.592 106.183 508.627 106.183C504.66 106.183 501.081 107.049 497.891 108.778C494.697 110.509 492.204 112.935 490.407 116.055C488.608 119.177 487.711 122.715 487.711 126.669C487.711 130.687 488.608 134.256 490.407 137.376C492.204 140.497 494.697 142.938 497.891 144.699C501.081 146.46 504.66 147.341 508.627 147.341C512.592 147.341 516.171 146.46 519.363 144.699C522.554 142.938 525.064 140.481 526.893 137.329C528.72 134.178 529.635 130.625 529.635 126.669C529.635 122.715 528.72 119.177 526.893 116.055ZM377.353 148.777C379.49 150.972 382.511 152.068 386.415 152.068C388.274 152.068 390.071 151.775 391.807 151.188C393.542 150.601 394.968 149.783 396.083 148.731L394.503 146.506C392.396 148.423 389.792 149.38 386.694 149.38C383.595 149.38 381.24 148.515 379.63 146.784C378.018 145.055 377.213 142.552 377.213 139.276V106.368H393.108V103.68H377.213V93.112H374.145V103.68H365.035V106.368H374.145V139.739C374.145 143.572 375.215 146.584 377.353 148.777ZM322.802 148.916C326.086 146.816 328.473 143.88 329.96 140.11V151.79H332.935V103.68H329.866V129.635C329.866 135.63 328.193 140.404 324.847 143.957C321.5 147.511 316.945 149.287 311.183 149.287C305.728 149.287 301.529 147.79 298.586 144.792C295.642 141.795 294.171 137.454 294.171 131.767V103.68H291.104V131.953C291.104 138.442 292.869 143.417 296.401 146.877C299.935 150.339 304.829 152.068 311.089 152.068C315.612 152.068 319.516 151.018 322.802 148.916ZM254.841 124.583C256.854 125.232 259.596 125.897 263.067 126.576C266.786 127.257 269.791 127.983 272.085 128.755C274.377 129.528 276.314 130.747 277.894 132.416C279.475 134.085 280.265 136.402 280.265 139.369C280.265 143.262 278.685 146.353 275.523 148.638C272.363 150.925 267.809 152.068 261.859 152.068C257.955 152.068 254.283 151.481 250.844 150.307C247.404 149.134 244.723 147.588 242.803 145.672L244.29 143.262C246.272 144.993 248.829 146.445 251.959 147.618C255.088 148.794 258.42 149.38 261.952 149.38C267.157 149.38 271 148.5 273.479 146.738C275.956 144.977 277.197 142.52 277.197 139.369C277.197 137.144 276.53 135.382 275.198 134.085C273.865 132.787 272.208 131.829 270.226 131.211C268.241 130.594 265.577 129.975 262.231 129.357C258.327 128.616 255.212 127.859 252.889 127.086C250.564 126.314 248.597 125.063 246.986 123.332C245.374 121.602 244.569 119.192 244.569 116.101C244.569 112.456 246.07 109.413 249.077 106.971C252.082 104.53 256.468 103.309 262.231 103.309C265.206 103.309 268.181 103.758 271.155 104.653C274.13 105.55 276.547 106.739 278.405 108.222L276.825 110.632C274.903 109.149 272.656 108.022 270.086 107.249C267.513 106.477 264.864 106.09 262.138 106.09C257.365 106.09 253.771 107.003 251.354 108.825C248.938 110.648 247.729 113.042 247.729 116.009C247.729 118.358 248.41 120.212 249.774 121.571C251.137 122.93 252.826 123.934 254.841 124.583ZM225.023 110.679C227.905 113.677 229.347 118.018 229.347 123.702V151.79H232.414V123.517C232.414 117.028 230.678 112.039 227.208 108.546C223.736 105.056 218.996 103.309 212.985 103.309C208.213 103.309 204.107 104.391 200.669 106.554C197.229 108.718 194.733 111.684 193.186 115.453V103.68H190.211V151.79H193.279V125.835C193.279 119.841 195.013 115.067 198.484 111.513C201.954 107.96 206.695 106.183 212.707 106.183C218.036 106.183 222.142 107.682 225.023 110.679ZM167.25 148.963C163.655 151.034 159.596 152.068 155.072 152.068C150.61 152.068 146.567 151.034 142.941 148.963C139.316 146.893 136.481 144.004 134.437 140.296C132.391 136.588 131.368 132.386 131.368 127.689C131.368 122.993 132.391 118.79 134.437 115.082C136.481 111.374 139.316 108.486 142.941 106.415C146.567 104.345 150.61 103.309 155.072 103.309C159.596 103.309 163.655 104.345 167.25 106.415C170.844 108.486 173.664 111.374 175.709 115.082C177.754 118.79 178.776 122.993 178.776 127.689C178.776 132.386 177.754 136.588 175.709 140.296C173.664 144.004 170.844 146.893 167.25 148.963ZM165.624 108.917C168.752 110.741 171.216 113.274 173.014 116.518C174.811 119.763 175.71 123.487 175.71 127.689C175.71 131.892 174.811 135.63 173.014 138.905C171.216 142.181 168.752 144.73 165.624 146.553C162.493 148.376 158.978 149.287 155.073 149.287C151.169 149.287 147.65 148.376 144.522 146.553C141.393 144.73 138.929 142.181 137.132 138.905C135.334 135.63 134.437 131.892 134.437 127.689C134.437 123.487 135.334 119.763 137.132 116.518C138.929 113.274 141.393 110.741 144.522 108.917C147.65 107.095 151.169 106.183 155.073 106.183C158.978 106.183 162.493 107.095 165.624 108.917ZM86.127 145.348C90.7744 147.975 95.9482 149.287 101.65 149.287C109.892 149.287 116.74 146.661 122.194 141.408L124.146 143.447C121.357 146.29 118.026 148.453 114.153 149.936C110.279 151.419 106.081 152.161 101.558 152.161C95.2373 152.161 89.5195 150.74 84.4072 147.897C79.2939 145.055 75.2812 141.13 72.3691 136.124C69.4551 131.118 68 125.526 68 119.346C68 113.167 69.4551 107.573 72.3691 102.567C75.2812 97.5615 79.2939 93.6378 84.4072 90.7949C89.5195 87.9532 95.2373 86.5308 101.558 86.5308C106.02 86.5308 110.203 87.2575 114.106 88.709C118.011 90.1618 121.357 92.3098 124.146 95.1514L122.194 97.1907C116.803 91.9996 109.954 89.4041 101.65 89.4041C95.9482 89.4041 90.7744 90.718 86.127 93.3439C81.4795 95.9711 77.8213 99.5705 75.1582 104.143C72.4922 108.718 71.1602 113.784 71.1602 119.346C71.1602 124.908 72.4922 129.975 75.1582 134.548C77.8213 139.123 81.4795 142.722 86.127 145.348ZM407.089 151.79H410.156V103.68H407.089V151.79Z" fill="black" fill-opacity="0.7"/>
<path fill-rule="evenodd" clip-rule="evenodd" d="M313.328 2H302.32V44.8343C302.32 50.0806 303.729 54.0748 306.547 56.8172C309.365 59.5596 313.357 60.9307 318.523 60.9307C320.578 60.9307 322.53 60.6625 324.38 60.1259C326.229 59.5894 327.8 58.7845 329.092 57.7114L326.009 49.7527C324.365 51.0642 322.311 51.72 319.845 51.72C317.731 51.72 316.117 51.1089 315.001 49.8868C313.886 48.6647 313.328 46.8911 313.328 44.566V2ZM472.184 60.1259C474.059 59.5894 475.65 58.7845 476.96 57.7114L473.835 49.7527C472.169 51.0642 470.085 51.72 467.585 51.72C465.442 51.72 463.806 51.1089 462.675 49.8868C461.544 48.6647 460.979 46.8911 460.979 44.566V21.0555H475.146V12.0156H460.979V2H449.818V12.0156H441.961V21.0555H449.818V44.8343C449.818 50.0806 451.246 54.0748 454.104 56.8172C456.961 59.5596 461.008 60.9307 466.246 60.9307C468.329 60.9307 470.309 60.6625 472.184 60.1259ZM505.218 12.4554C512.122 12.4554 517.402 14.1245 521.06 17.4625C524.717 20.8005 526.545 25.837 526.545 32.5723V60.3104H516.188V54.55C514.843 56.6179 512.927 58.1982 510.44 59.2913C507.953 60.3842 504.955 60.9307 501.444 60.9307C497.934 60.9307 494.861 60.3251 492.229 59.114C489.596 57.9028 487.562 56.2191 486.129 54.0626C484.695 51.9062 483.979 49.4692 483.979 46.7515C483.979 42.4977 485.544 39.0858 488.674 36.5158C491.805 33.9459 496.733 32.6608 503.463 32.6608H515.574V31.9519C515.574 28.6434 514.595 26.103 512.634 24.3306C510.674 22.5582 507.763 21.6719 503.901 21.6719C501.269 21.6719 498.68 22.0855 496.134 22.9127C493.589 23.7397 491.438 24.8918 489.684 26.3688L485.383 18.3044C487.84 16.4138 490.795 14.9664 494.247 13.962C497.699 12.9576 501.356 12.4554 505.218 12.4554ZM503.729 52.8663C506.479 52.8663 508.922 52.2312 511.058 50.9609C513.193 49.6907 514.7 47.874 515.578 45.5108V40.0164H504.256C497.937 40.0164 494.777 42.1137 494.777 46.3084C494.777 48.3171 495.567 49.9123 497.147 51.0939C498.727 52.2755 500.921 52.8663 503.729 52.8663ZM416.839 12.4554C422.771 12.4554 427.53 14.2209 431.113 17.7518C434.697 21.2828 436.489 26.5192 436.489 33.4614V60.9307H425.475V34.8977C425.475 30.7084 424.505 27.5516 422.566 25.4271C420.628 23.3026 417.866 22.2403 414.283 22.2403C410.229 22.2403 407.028 23.4821 404.678 25.9657C402.328 28.4493 401.153 32.0251 401.153 36.6931V60.9307H390.139V12.9941H400.625V19.1881C402.446 16.9738 404.737 15.2982 407.498 14.1611C410.259 13.024 413.372 12.4554 416.839 12.4554ZM372.596 17.4625C368.938 14.1245 363.658 12.4554 356.754 12.4554C352.893 12.4554 349.235 12.9576 345.783 13.962C342.331 14.9664 339.376 16.4138 336.919 18.3044L341.22 26.3688C342.975 24.8918 345.125 23.7397 347.67 22.9127C350.216 22.0855 352.805 21.6719 355.438 21.6719C359.299 21.6719 362.21 22.5582 364.17 24.3306C366.131 26.103 367.11 28.6434 367.11 31.9519V32.6608H354.999C348.27 32.6608 343.341 33.9459 340.21 36.5158C337.08 39.0858 335.515 42.4977 335.515 46.7515C335.515 49.4692 336.231 51.9062 337.665 54.0626C339.099 56.2191 341.132 57.9028 343.765 59.114C346.397 60.3251 349.47 60.9307 352.98 60.9307C356.491 60.9307 359.489 60.3842 361.977 59.2913C364.463 58.1982 366.379 56.6179 367.725 54.55V60.3104H378.081V32.5723C378.081 25.837 376.253 20.8005 372.596 17.4625ZM355.252 52.8663C358.002 52.8663 360.444 52.2312 362.58 50.9609C364.716 49.6907 366.223 47.874 367.101 45.5108V40.0164H355.778C349.459 40.0164 346.3 42.1137 346.3 46.3084C346.3 48.3171 347.09 49.9123 348.67 51.0939C350.249 52.2755 352.443 52.8663 355.252 52.8663ZM280.192 21.0555H271.674C268.445 21.0555 265.994 21.5392 264.32 22.5229C262.647 23.5066 261.811 24.8033 261.811 26.4129C261.811 28.2014 262.706 29.4683 264.497 30.2134C266.287 30.9587 269.062 31.6591 272.818 32.3149C276.576 32.9111 279.658 33.5967 282.065 34.3717C284.473 35.1467 286.542 36.4583 288.273 38.3063C290.006 40.1545 290.871 42.7776 290.871 46.1757C290.871 50.647 288.964 54.2239 285.147 56.9066C281.331 59.5894 276.136 60.9307 269.561 60.9307C265.744 60.9307 262.017 60.424 258.376 59.4105C254.736 58.397 251.83 57.1153 249.658 55.5653L253.885 47.0699C255.999 48.5007 258.538 49.6484 261.503 50.5128C264.468 51.3773 267.388 51.8094 270.265 51.8094C276.84 51.8094 280.128 50.0508 280.128 46.5334C280.128 44.8641 279.291 43.7017 277.618 43.0458C275.945 42.3901 273.259 41.7641 269.561 41.168C265.686 40.5718 262.53 39.8862 260.094 39.1112C257.657 38.3362 255.544 36.9799 253.753 35.0424C251.963 33.1048 251.067 30.4072 251.067 26.9495C251.067 22.4186 252.932 18.7969 256.659 16.0844C260.387 13.3718 265.421 12.0156 271.762 12.0156H284.876L280.192 21.0555ZM234.254 17.7518C230.671 14.2209 225.912 12.4554 219.979 12.4554C216.513 12.4554 213.399 13.024 210.639 14.1611C207.878 15.2982 205.587 16.9738 203.766 19.1881V12.9941H193.279V60.9307H204.294V36.6931C204.294 32.0251 205.469 28.4493 207.818 25.9657C210.169 23.4821 213.37 22.2403 217.424 22.2403C221.007 22.2403 223.769 23.3026 225.707 25.4271C227.646 27.5516 228.615 30.7084 228.615 34.8977V60.9307H239.63V33.4614C239.63 26.5192 237.838 21.2828 234.254 17.7518ZM158.218 60.9307C153.46 60.9307 149.173 59.8968 145.354 57.829C141.536 55.7612 138.556 52.881 136.411 49.1885C134.268 45.496 133.195 41.3161 133.195 36.6487C133.195 31.9814 134.268 27.8163 136.411 24.1533C138.556 20.4904 141.536 17.6249 145.354 15.5571C149.173 13.4893 153.46 12.4554 158.218 12.4554C163.035 12.4554 167.353 13.4893 171.17 15.5571C174.988 17.6249 177.97 20.4904 180.113 24.1533C182.257 27.8163 183.329 31.9814 183.329 36.6487C183.329 41.3161 182.257 45.496 180.113 49.1885C177.97 52.881 174.988 55.7612 171.17 57.829C167.353 59.8968 163.035 60.9307 158.218 60.9307ZM168.263 47.3718C165.619 50.0895 162.271 51.4484 158.218 51.4484C154.165 51.4484 150.832 50.0895 148.218 47.3718C145.604 44.6541 144.297 41.0798 144.297 36.6487C144.297 32.2177 145.604 28.6434 148.218 25.9257C150.832 23.208 154.165 21.8492 158.218 21.8492C162.271 21.8492 165.619 23.208 168.263 25.9257C170.906 28.6434 172.228 32.2177 172.228 36.6487C172.228 41.0798 170.906 44.6541 168.263 47.3718Z" fill="black"/>
<path fill-rule="evenodd" clip-rule="evenodd" d="M123.876 21.2574C124.482 19.8207 125.179 18.4268 125.967 17.0756C126.994 15.313 128.143 13.6661 129.412 12.1349C126.956 9.81488 124.117 7.96796 120.897 6.59406C116.689 4.79871 112.037 3.901 106.94 3.901C100.658 3.901 94.9834 5.29242 89.916 8.07526C84.8486 10.8581 80.8623 14.7032 77.959 19.6106C75.0547 24.5179 73.6025 30.0536 73.6025 36.2178C73.6025 42.382 75.04 47.9177 77.9141 52.8251C80.7891 57.7325 84.7598 61.5776 89.8271 64.3604C94.8945 67.1433 100.569 68.5347 106.852 68.5347C111.948 68.5347 116.615 67.637 120.853 65.8416C123.75 64.6141 126.336 63.0089 128.609 61.0261C127.654 59.7767 126.773 58.4548 125.967 57.0602C124.955 55.3116 124.094 53.4946 123.383 51.6091C119.011 56.0704 113.708 58.301 107.474 58.301C103.206 58.301 99.3838 57.3585 96.0049 55.4733C92.627 53.5881 89.9902 50.9699 88.0928 47.6185C86.1963 44.2671 85.248 40.4669 85.248 36.2178C85.248 31.9688 86.1963 28.1686 88.0928 24.8172C89.9902 21.4658 92.627 18.8475 96.0049 16.9624C99.3838 15.0772 103.206 14.1346 107.474 14.1346C113.944 14.1346 119.412 16.5089 123.876 21.2574ZM295.38 12.0155L290.696 21.0555H327.153V12.0155H295.38Z" fill="#FF5200"/>
</svg>
