<svg width="546" height="545" viewBox="0 0 546 545" fill="none" xmlns="http://www.w3.org/2000/svg">
<rect width="545" height="545" fill="black" fill-opacity="0" transform="translate(1)"/>
<path d="M217 304C239.644 304 258 285.644 258 263C258 240.356 239.644 222 217 222C194.356 222 176 240.356 176 263C176 285.644 194.356 304 217 304Z" fill="#FFA230"/>
<path d="M290 425C290 422.791 291.791 421 294 421H334C336.209 421 338 422.791 338 425V469C338 471.209 336.209 473 334 473H299C294.029 473 290 468.971 290 464V425Z" fill="#FFA230"/>
<path d="M514.5 348C530.24 348 543 335.24 543 319.5C543 303.76 530.24 291 514.5 291C498.76 291 486 303.76 486 319.5C486 335.24 498.76 348 514.5 348Z" fill="#FF8C00"/>
<rect x="502" y="215" width="9" height="21" rx="2" fill="#FFA230"/>
<path d="M19.5 356C29.165 356 37 348.165 37 338.5C37 328.835 29.165 321 19.5 321C9.83502 321 2 328.835 2 338.5C2 348.165 9.83502 356 19.5 356Z" fill="#FF8C00"/>
<path d="M415 91H461V121C461 123.209 459.209 125 457 125H415V91Z" fill="#FF9718"/>
<g opacity="0.5">
<rect width="533" height="518" fill="black" fill-opacity="0" transform="translate(1 14)"/>
<rect width="87" height="62" fill="black" fill-opacity="0" transform="translate(1 294)"/>
<path d="M20 316.294V294H72V309.048" stroke="black" stroke-width="1.89051" stroke-linecap="round" stroke-linejoin="round"/>
<path d="M39 309C39 303.455 42.6098 299 47 299C51.3902 299 55 303.455 55 309" stroke="black" stroke-width="1.89051" stroke-linecap="round" stroke-linejoin="round"/>
<path d="M26.1508 294.497C26.1508 297.711 23.5033 300.358 20.2886 300.358" stroke="black" stroke-width="1.89051" stroke-linecap="round" stroke-linejoin="round"/>
<path d="M66 294C66 297.214 68.6475 299.861 71.8622 299.861" stroke="black" stroke-width="1.89051" stroke-linecap="round" stroke-linejoin="round"/>
<path d="M60 308.836C60 307.229 61.2292 306 62.8366 306C64.4439 306 65.6731 307.229 65.6731 308.836" stroke="black" stroke-width="1.89051" stroke-linecap="round" stroke-linejoin="round"/>
<path fill-rule="evenodd" clip-rule="evenodd" d="M62 334C66.4183 334 70 329.523 70 324C70 318.477 66.4183 314 62 314C57.5817 314 54 318.477 54 324C54 329.523 57.5817 334 62 334Z" stroke="black" stroke-width="1.89051" stroke-linecap="round" stroke-linejoin="round"/>
<path d="M41.8622 310C41.8622 313.214 39.2148 315.861 36 315.861" stroke="black" stroke-width="1.89051" stroke-linecap="round" stroke-linejoin="round"/>
<path d="M82 309C82 312.214 84.6475 314.861 87.8622 314.861" stroke="black" stroke-width="1.89051" stroke-linecap="round" stroke-linejoin="round"/>
<path d="M82 338.861C82 335.647 84.6475 333 87.8622 333" stroke="black" stroke-width="1.89051" stroke-linecap="round" stroke-linejoin="round"/>
<path fill-rule="evenodd" clip-rule="evenodd" d="M76 324C76 322.3 77.3 321 79 321C80.7 321 82 322.3 82 324C82 325.7 80.7 327 79 327C77.3 327 76 325.7 76 324Z" stroke="black" stroke-width="1.89051" stroke-linecap="round" stroke-linejoin="round"/>
<path d="M40.9233 338.44C43.5023 328.967 37.9159 319.198 28.4459 316.619C18.9758 314.041 9.20816 319.63 6.62916 329.103C4.05016 338.576 9.63647 348.345 19.1065 350.923C28.5766 353.501 38.3443 347.912 40.9233 338.44Z" stroke="black" stroke-width="1.89055"/>
<path d="M24 322.626V325.084" stroke="black" stroke-width="1.89051" stroke-linecap="round"/>
<path d="M20 338C20 340.174 21.4948 342 24 342C26.1747 342 28 340.174 28 338C28 335.541 25.8561 334.568 24 334C22.1439 333.432 20 332.144 20 329.97C20 327.796 21.8253 326 24 326C26.1747 326 28 327.826 28 330" stroke="black" stroke-width="1.89051" stroke-linecap="round" stroke-linejoin="round"/>
<path d="M24 342.382V344.745" stroke="black" stroke-width="1.89051" stroke-linecap="round"/>
<rect width="61" height="57" fill="black" fill-opacity="0" transform="translate(136 463)"/>
<path d="M171.5 509C172.328 509 173 508.328 173 507.5C173 506.672 172.328 506 171.5 506C170.672 506 170 506.672 170 507.5C170 508.328 170.672 509 171.5 509Z" fill="black"/>
<path d="M170 513.5C170 514.294 170.706 515 171.5 515C172.294 515 173 514.294 173 513.5C173 512.706 172.294 512 171.5 512C170.618 512 170 512.706 170 513.5Z" fill="black"/>
<path d="M186 470L193.184 478.782C196.02 482.752 196.777 487.762 195.264 492.394L186 519.003" stroke="black" stroke-width="1.89051" stroke-linejoin="round"/>
<path d="M146 470L139.195 478.782C136.074 483.13 135.885 488.707 137.114 492.394L146 519.002" stroke="black" stroke-width="1.89051" stroke-linejoin="round"/>
<path d="M159 464H173" stroke="black" stroke-width="1.89051" stroke-linejoin="round"/>
<path d="M157.3 466L146.002 470V519H186V470L174.7 466" stroke="black" stroke-width="1.89051" stroke-linejoin="round"/>
<path d="M164.751 463.997H159.004L153 471L161.523 479" stroke="black" stroke-width="1.89051" stroke-linejoin="round"/>
<path d="M157.821 476.135L152 484L166 504L159 464.018" stroke="black" stroke-width="1.89051" stroke-linejoin="round"/>
<path d="M168.691 464.001H173.003L179.001 471L170.586 479" stroke="black" stroke-width="1.89051" stroke-linejoin="round"/>
<path d="M174.746 476.135L180.001 484L166 504L173.001 464" stroke="black" stroke-width="1.89051" stroke-linejoin="round"/>
<path d="M166 504.02V519.145" stroke="black" stroke-width="1.89051" stroke-linejoin="round"/>
<rect width="74" height="74" fill="black" fill-opacity="0" transform="translate(186 401)"/>
<rect width="74" height="74" fill="black" fill-opacity="0" transform="translate(186 401)"/>
<path d="M217.46 401.096C203.896 403.207 192.051 412.8 187.657 426.807C181.639 446.378 192.528 467.196 212.015 473.336C231.501 479.38 252.23 468.443 258.343 448.872C264.361 429.301 253.472 408.483 233.985 402.343C231.979 401.767 230.069 401.288 228.063 401" stroke="black" stroke-width="1.89051" stroke-linecap="round" stroke-linejoin="round"/>
<path d="M245.757 418.96C252.092 426.333 254.55 436.731 251.43 446.656C250.863 448.357 250.201 449.964 249.444 451.571" stroke="black" stroke-width="1.89051" stroke-linecap="round" stroke-linejoin="round"/>
<path d="M204.343 415.935C211.718 409.507 222.213 406.955 232.236 410.074C234.505 410.736 236.585 411.681 238.476 412.816" stroke="black" stroke-width="1.89051" stroke-linecap="round" stroke-linejoin="round"/>
<path d="M194.226 437.203C194.321 434.651 194.699 432.004 195.55 429.358C196.117 427.562 196.874 425.86 197.724 424.253" stroke="black" stroke-width="1.89051" stroke-linecap="round" stroke-linejoin="round"/>
<path d="M221.551 467.262C219.282 467.073 217.108 466.695 214.838 466.034C205.761 463.198 199.048 456.392 196.022 448.168" stroke="black" stroke-width="1.89051" stroke-linecap="round" stroke-linejoin="round"/>
<path d="M243.771 459.133C240.178 462.536 235.829 464.994 231.101 466.317" stroke="black" stroke-width="1.89051" stroke-linecap="round" stroke-linejoin="round"/>
<path d="M244.811 432.382C242.92 425.293 237.531 419.338 230.061 417.069C228.359 416.597 226.657 416.219 225.05 416.124" stroke="black" stroke-width="1.89051" stroke-linecap="round" stroke-linejoin="round"/>
<path d="M212.38 456.959C213.798 457.81 215.406 458.472 217.013 459.039C228.643 462.631 240.935 456.108 244.528 444.576C245 443.064 245.284 441.646 245.378 440.134" stroke="black" stroke-width="1.89051" stroke-linecap="round" stroke-linejoin="round"/>
<path d="M217.769 416.786C210.773 418.676 204.816 424.064 202.547 431.532C200.277 438.716 201.979 446.183 206.329 451.666" stroke="black" stroke-width="1.89051" stroke-linecap="round" stroke-linejoin="round"/>
<path d="M217.013 459.039L214.838 466.034" stroke="black" stroke-width="1.89051" stroke-linecap="round" stroke-linejoin="round"/>
<path d="M234.411 403.08L232.236 410.074" stroke="black" stroke-width="1.89051" stroke-linecap="round" stroke-linejoin="round"/>
<path d="M197.441 451.949L191.2 455.258" stroke="black" stroke-width="1.89051" stroke-linecap="round" stroke-linejoin="round"/>
<path d="M255.968 421.039L249.539 424.537" stroke="black" stroke-width="1.89051" stroke-linecap="round" stroke-linejoin="round"/>
<path d="M195.455 429.547L188.458 427.373" stroke="black" stroke-width="1.89051" stroke-linecap="round" stroke-linejoin="round"/>
<path d="M251.43 446.845L244.433 444.671" stroke="black" stroke-width="1.89051" stroke-linecap="round" stroke-linejoin="round"/>
<path d="M213.136 418.676L209.732 412.249" stroke="black" stroke-width="1.89051" stroke-linecap="round" stroke-linejoin="round"/>
<path d="M240.084 469.72L237.058 464.049" stroke="black" stroke-width="1.89051" stroke-linecap="round" stroke-linejoin="round"/>
<path d="M223 424V427.084" stroke="black" stroke-width="1.89051" stroke-linecap="round"/>
<path d="M218 443C218 446.003 219.685 448 223 448C226.315 448 228 445.578 228 443C228 440.422 226.685 438.912 223 438C219.315 437.088 218 435.521 218 432.97C218 430.419 219.446 428 223 428C226.554 428 228 430.062 228 433" stroke="black" stroke-width="1.89051" stroke-linecap="round" stroke-linejoin="round"/>
<path d="M223 448.382V452" stroke="black" stroke-width="1.89051" stroke-linecap="round"/>
<rect width="64" height="70" fill="black" fill-opacity="0" transform="translate(295 398)"/>
<path fill-rule="evenodd" clip-rule="evenodd" d="M352 424.184V442.862V424.184Z" stroke="black" stroke-width="1.89051" stroke-linecap="round" stroke-linejoin="round"/>
<rect x="349" y="443" width="6" height="10" stroke="black" stroke-width="1.89051" stroke-linecap="round" stroke-linejoin="round"/>
<rect width="64" height="70" fill="black" fill-opacity="0" transform="translate(295 398)"/>
<path fill-rule="evenodd" clip-rule="evenodd" d="M321.974 434H320.026C319.41 434 319 433.636 319 433.091V431.909C319 431.364 319.41 431 320.026 431H321.974C322.59 431 323 431.364 323 431.909V433.091C323 433.545 322.487 434 321.974 434ZM327.974 434H326.026C325.41 434 325 433.636 325 433.091V431.909C325 431.364 325.41 431 326.026 431H327.974C328.59 431 329 431.364 329 431.909V433.091C329 433.545 328.487 434 327.974 434ZM332.026 434H333.974C334.487 434 335 433.545 335 433.091V431.909C335 431.364 334.59 431 333.974 431H332.026C331.41 431 331 431.364 331 431.909V433.091C331 433.636 331.41 434 332.026 434ZM321.974 439H320.026C319.41 439 319 438.636 319 438.091V436.909C319 436.364 319.41 436 320.026 436H321.974C322.59 436 323 436.364 323 436.909V438.091C323 438.545 322.487 439 321.974 439ZM326.026 439H327.974C328.487 439 329 438.545 329 438.091V436.909C329 436.364 328.59 436 327.974 436H326.026C325.41 436 325 436.364 325 436.909V438.091C325 438.636 325.41 439 326.026 439ZM333.974 439H332.026C331.41 439 331 438.636 331 438.091V436.909C331 436.364 331.41 436 332.026 436H333.974C334.59 436 335 436.364 335 436.909V438.091C335 438.545 334.487 439 333.974 439ZM320.026 444H321.974C322.487 444 323 443.545 323 443.091V441.909C323 441.364 322.59 441 321.974 441H320.026C319.41 441 319 441.364 319 441.909V443.091C319 443.636 319.41 444 320.026 444ZM327.974 444H326.026C325.41 444 325 443.636 325 443.091V441.909C325 441.364 325.41 441 326.026 441H327.974C328.59 441 329 441.364 329 441.909V443.091C329 443.545 328.487 444 327.974 444ZM332.026 444H333.974C334.487 444 335 443.545 335 443.091V441.909C335 441.364 334.59 441 333.974 441H332.026C331.41 441 331 441.364 331 441.909V443.091C331 443.636 331.41 444 332.026 444Z" fill="black"/>
<path fill-rule="evenodd" clip-rule="evenodd" d="M352.469 468H301.531C297.985 468 295 465.079 295 461.405V404.595C295 400.921 297.985 398 301.531 398H352.469C356.108 398 359 400.921 359 404.595V461.405C359 464.985 356.108 468 352.469 468Z" stroke="black" stroke-width="1.89051" stroke-linecap="round" stroke-linejoin="round"/>
<path d="M352 454.15V461H302V405H352V413.61" stroke="black" stroke-width="1.89051" stroke-linecap="round" stroke-linejoin="round"/>
<rect x="349" y="414" width="6" height="10" stroke="black" stroke-width="1.89051" stroke-linecap="round" stroke-linejoin="round"/>
<path fill-rule="evenodd" clip-rule="evenodd" d="M337.444 448H316.556C314.6 448 313 446.349 313 444.33V421.67C313 419.651 314.6 418 316.556 418H337.444C339.4 418 341 419.651 341 421.67V444.33C341 446.349 339.4 448 337.444 448Z" stroke="black" stroke-width="1.89051" stroke-linecap="round" stroke-linejoin="round"/>
<rect x="317" y="422" width="20" height="5" stroke="black" stroke-width="1.89051" stroke-linecap="round" stroke-linejoin="round"/>
<rect width="73" height="58" fill="black" fill-opacity="0" transform="translate(304 82)"/>
<rect width="73" height="37" fill="black" fill-opacity="0" transform="translate(304 103)"/>
<rect width="73" height="37" fill="black" fill-opacity="0" transform="translate(304 103)"/>
<rect width="73" height="37" fill="black" fill-opacity="0" transform="translate(304 103)"/>
<path d="M312 138.585V131C312 130.41 312.184 130 313 130H320C320.63 130 321 130.442 321 131V138.585" stroke="black" stroke-width="1.89051" stroke-linejoin="round"/>
<path d="M328 138.585V114C328 113.41 328.184 113 329 113H336C336.63 113 337 113.442 337 114V138.585" stroke="black" stroke-width="1.89051" stroke-linejoin="round"/>
<path d="M344 138.585V124C344 123.41 344.184 123 345 123H352C352.63 123 353 123.442 353 124V138.585" stroke="black" stroke-width="1.89051" stroke-linejoin="round"/>
<path d="M360 138.585V104C360 103.41 360.184 103 361 103H368C368.63 103 369 103.442 369 104V138.585" stroke="black" stroke-width="1.89051" stroke-linejoin="round"/>
<path d="M304 139H377" stroke="black" stroke-width="1.89051" stroke-linecap="round" stroke-linejoin="round"/>
<path d="M369.955 88.6865L370.686 82.7312L364.731 82" stroke="black" stroke-width="1.89051" stroke-linecap="round" stroke-linejoin="round"/>
<path d="M304 116.997L329.562 98.1619C331.226 96.9355 333.551 97.1795 334.924 98.7246L338.076 102.27C339.449 103.815 341.774 104.059 343.438 102.833L369 84" stroke="black" stroke-width="1.89051" stroke-linecap="round" stroke-linejoin="round"/>
<rect width="71" height="72" fill="black" fill-opacity="0" transform="translate(113 39)"/>
<path d="M123 92V98.8839L148 110.605V84.9969L123 74L114 83L139 94L148 84.9969" stroke="black" stroke-width="1.89051" stroke-linecap="round" stroke-linejoin="round"/>
<path fill-rule="evenodd" clip-rule="evenodd" d="M174 73L184 81L158 94L148 84.9978L174 73Z" stroke="black" stroke-width="1.89051" stroke-linecap="round" stroke-linejoin="round"/>
<path d="M122.997 74L113.999 64L135 53" stroke="black" stroke-width="1.89051" stroke-linecap="round" stroke-linejoin="round"/>
<path d="M174 73L183 63L160.472 52.5197" stroke="black" stroke-width="1.89051" stroke-linecap="round" stroke-linejoin="round"/>
<path d="M123 74L136 67" stroke="black" stroke-width="1.89051" stroke-linecap="round" stroke-linejoin="round"/>
<path d="M173.612 73.0785L160.185 66.7453" stroke="black" stroke-width="1.89051" stroke-linecap="round" stroke-linejoin="round"/>
<path d="M174 87V99L148.106 110.568" stroke="black" stroke-width="1.89051" stroke-linecap="round" stroke-linejoin="round"/>
<path fill-rule="evenodd" clip-rule="evenodd" d="M157.899 68.8995C163.367 63.4322 163.367 54.5678 157.899 49.1005C152.432 43.6332 143.568 43.6332 138.1 49.1005C132.633 54.5678 132.633 63.4322 138.1 68.8995C143.568 74.3668 152.432 74.3668 157.899 68.8995Z" stroke="black" stroke-width="1.89049" stroke-linecap="round"/>
<path d="M146 66.6905V61.6409V51C146 51 153 50.8011 153 56C153 60.2536 146 61 146 61" stroke="black" stroke-width="1.89051" stroke-linecap="round" stroke-linejoin="round"/>
<path d="M144 64H152" stroke="black" stroke-width="1.89051" stroke-linecap="round" stroke-linejoin="round"/>
<path d="M356 160C356 163.836 352.836 167 349 167C345.164 167 342 163.836 342 160C342 156.164 345.164 153 349 153C352.932 153 356 156.068 356 160Z" fill="white" stroke="black" stroke-width="1.89051"/>
<path fill-rule="evenodd" clip-rule="evenodd" d="M82.9447 268.101C83.4236 271.927 80.7415 275.466 76.91 275.945C73.0785 276.423 69.5343 273.745 69.0553 269.919C68.5764 266.093 71.2585 262.554 75.09 262.075C78.9215 261.501 82.4657 264.275 82.9447 268.101Z" stroke="black" stroke-width="1.89051"/>
<path fill-rule="evenodd" clip-rule="evenodd" d="M249.945 375.101C250.424 378.927 247.742 382.466 243.91 382.945C240.078 383.423 236.534 380.745 236.055 376.919C235.576 373.093 238.258 369.554 242.09 369.075C245.922 368.501 249.466 371.275 249.945 375.101Z" stroke="black" stroke-width="1.89051"/>
<path d="M282 154C287.119 154 287.119 162 292.333 162C297.453 162 297.453 154 302.667 154C307.786 154 307.786 162 313 162" stroke="black" stroke-width="1.89051" stroke-linecap="round"/>
<path d="M13 265C18.1193 265 18.1193 273 23.3333 273C28.4526 273 28.4526 265 33.6667 265C38.8807 265 38.7859 273 44 273" stroke="black" stroke-width="1.89051" stroke-linecap="round"/>
<path d="M104 271C109.119 271 109.119 279 114.333 279C119.453 279 119.453 271 124.667 271C129.786 271 129.786 279 135 279" stroke="black" stroke-width="1.89051" stroke-linecap="round"/>
<path d="M177 343C182.119 343 182.119 351 187.333 351C192.453 351 192.453 343 197.667 343C202.786 343 202.786 351 208 351" stroke="black" stroke-width="1.89051" stroke-linecap="round"/>
<path d="M75 350C75 355.119 67 355.119 67 360.333C67 365.453 75 365.453 75 370.667C75 375.881 67 375.786 67 381" stroke="black" stroke-width="1.89051" stroke-linecap="round"/>
<path d="M253 52C258.119 52 258.119 60 263.333 60C268.453 60 268.453 52 273.667 52C278.786 52 278.786 60 284 60" stroke="black" stroke-width="1.89051" stroke-linecap="round"/>
<path fill-rule="evenodd" clip-rule="evenodd" d="M182.377 191.176L192.411 184.151C192.985 183.771 193.845 184.151 193.941 184.815L194.992 196.967C195.087 197.727 194.323 198.201 193.654 197.916L182.568 192.79C181.899 192.505 181.803 191.651 182.377 191.176Z" stroke="black" stroke-width="1.89051"/>
<path fill-rule="evenodd" clip-rule="evenodd" d="M155.147 446.414L162.174 436.381C162.583 435.828 163.521 435.89 163.838 436.482L168.982 447.542C169.332 448.223 168.776 448.93 168.05 448.891L155.879 447.866C155.153 447.827 154.771 447.057 155.147 446.414Z" stroke="black" stroke-width="1.89051"/>
<path fill-rule="evenodd" clip-rule="evenodd" d="M469.025 262.129L479.298 268.802C479.865 269.191 479.835 270.131 479.255 270.469L468.382 275.995C467.713 276.369 466.987 275.838 467 275.111L467.6 262.911C467.614 262.184 468.37 261.776 469.025 262.129Z" stroke="black" stroke-width="1.89051"/>
<path d="M364.606 57.7653C366.97 58.8051 369.334 59.9394 371.698 61.0737C377.465 63.9095 383.044 66.9343 388.528 70.1482" stroke="black" stroke-width="1.89051"/>
<path d="M182.878 52.85C209.258 42.7358 237.907 37.1588 267.785 37.1588C274.971 37.1588 282.063 37.4423 289.059 38.104C292.18 38.3876 295.205 38.6712 298.325 39.1438" stroke="black" stroke-width="1.89051"/>
<path d="M67.4299 147.565C79.9108 127.809 95.3227 109.943 112.909 94.7248" stroke="black" stroke-width="1.89051" stroke-linecap="round" stroke-dasharray="0 6.62"/>
<path d="M31.5947 291.338C31.5002 290.393 31.5002 289.447 31.4056 288.502C31.122 283.681 30.9329 278.861 30.9329 273.945C30.9329 260.05 32.162 246.438 34.4313 233.205" stroke="black" stroke-width="1.89051"/>
<path d="M100.996 442.012C76.1286 417.34 56.6509 387.092 44.6428 353.441C43.981 351.551 43.3191 349.566 42.6572 347.675" stroke="black" stroke-width="1.89051" stroke-linecap="round" stroke-dasharray="0 6.62"/>
<path d="M137.965 472.071C131.725 468.006 125.674 463.564 119.812 458.932" stroke="black" stroke-width="1.89051"/>
<path d="M233.652 508.274C221.455 506.478 209.541 503.831 198.006 500.334" stroke="black" stroke-width="1.89051"/>
<path d="M388.622 477.648C364.984 491.732 338.699 501.752 310.617 506.856" stroke="black" stroke-width="1.89051" stroke-linecap="round" stroke-dasharray="0 6.62"/>
<path d="M487.051 363.65C486.2 365.73 485.349 367.809 484.404 369.889C477.312 385.769 468.613 400.799 458.402 414.599" stroke="black" stroke-width="1.89051"/>
<path d="M503.692 253.244C504.259 260.05 504.543 266.95 504.543 273.945" stroke="black" stroke-width="1.89051"/>
<path d="M456.889 131.306C463.129 139.53 468.802 148.226 473.908 157.206" stroke="black" stroke-width="1.89051" stroke-linecap="round" stroke-dasharray="0 6.62"/>
<path d="M288.019 100.302C294.922 101.058 301.635 102.287 308.253 103.894" stroke="black" stroke-width="1.89051"/>
<path d="M165.291 132.346C171.153 128.092 177.205 124.217 183.54 120.814" stroke="black" stroke-width="1.89051"/>
<path d="M94.4717 250.881C97.781 225.548 106.574 202.011 119.528 181.31" stroke="black" stroke-width="1.89051"/>
<path d="M105.251 338.412C97.3084 318.467 92.959 296.726 92.959 273.945C92.959 268.746 93.1481 263.642 93.6208 258.538" stroke="black" stroke-width="1.89051" stroke-linecap="round" stroke-dasharray="0 6.62"/>
<path d="M181.459 425.942C172.761 421.027 164.535 415.355 156.781 409.022" stroke="black" stroke-width="1.89051"/>
<path d="M289.059 447.4C282.062 448.25 274.971 448.723 267.785 448.723" stroke="black" stroke-width="1.89051"/>
<path d="M394.012 394.843C385.786 403.351 376.804 411.102 367.065 417.813" stroke="black" stroke-width="1.89051"/>
<path d="M431.455 212.409C438.641 231.598 442.612 252.299 442.612 273.945C442.612 291.054 440.153 307.691 435.52 323.288" stroke="black" stroke-width="1.89051"/>
<path d="M383.328 142.838C386.637 145.769 389.946 148.888 393.066 152.102" stroke="black" stroke-width="1.89051"/>
<path d="M103 245C103 248.836 99.8356 252 96 252C92.1644 252 89 248.836 89 245C89 241.164 92.1644 238 96 238C99.9315 238 103 241.068 103 245Z" fill="white" stroke="black" stroke-width="1.89051"/>
<path d="M341 501C341 504.836 337.836 508 334 508C330.164 508 327 504.836 327 501C327 497.164 330.164 494 334 494C337.932 494 341 497.068 341 501Z" fill="white" stroke="black" stroke-width="1.89051"/>
<path d="M447.818 298C447.818 301.836 444.654 305 440.818 305C436.983 305 433.818 301.836 433.818 298C433.818 294.164 436.983 291 440.818 291C444.75 291 447.818 294.068 447.818 298Z" fill="white" stroke="black" stroke-width="1.89051"/>
<path fill-rule="evenodd" clip-rule="evenodd" d="M107 144C110.866 144 114 140.866 114 137C114 133.134 110.866 130 107 130C103.134 130 100 133.134 100 137C100 140.866 103.134 144 107 144Z" stroke="black" stroke-width="1.89051"/>
<path d="M482.708 389C482.708 392.836 479.544 396 475.708 396C471.872 396 468.708 392.836 468.708 389C468.708 385.164 471.872 382 475.708 382C479.64 382 482.708 385.068 482.708 389Z" fill="white" stroke="black" stroke-width="1.89051"/>
<path d="M246 40C246 43.8356 242.836 47 239 47C235.164 47 232 43.8356 232 40C232 36.1644 235.164 33 239 33C242.932 33 246 36.0685 246 40Z" fill="white" stroke="black" stroke-width="1.89051"/>
<path d="M123 455C123 458.836 119.836 462 116 462C112.164 462 109 458.836 109 455C109 451.164 112.164 448 116 448C119.932 448 123 451.068 123 455Z" fill="white" stroke="black" stroke-width="1.89051"/>
<rect width="77" height="52" fill="black" fill-opacity="0" transform="translate(363 159)"/>
<path fill-rule="evenodd" clip-rule="evenodd" d="M429.146 182.84C430.285 184.061 430.285 185.94 429.146 187.16C425.064 191.763 414.434 202 402 202C389.566 202 378.936 191.763 374.854 187.16C373.715 185.94 373.715 184.061 374.854 182.84C378.936 178.238 389.566 168.001 402 168.001C414.434 167.907 425.064 178.238 429.146 182.84Z" stroke="black" stroke-width="1.89051" stroke-linecap="round" stroke-linejoin="round"/>
<path d="M439.815 189.589C434.993 195.071 425.349 205.753 412.395 210.101" stroke="black" stroke-width="1.89051" stroke-linecap="round" stroke-linejoin="round"/>
<path d="M363.566 181.066C368.767 175.206 379.545 163.201 394.012 159.609" stroke="black" stroke-width="1.89051" stroke-linecap="round" stroke-linejoin="round"/>
<path fill-rule="evenodd" clip-rule="evenodd" d="M402 196C408.075 196 413 191.075 413 185C413 178.925 408.075 174 402 174C395.925 174 391 178.925 391 185C391 191.075 395.925 196 402 196Z" stroke="black" stroke-width="1.89051" stroke-linecap="round" stroke-linejoin="round"/>
<path fill-rule="evenodd" clip-rule="evenodd" d="M402 189C404.209 189 406 187.209 406 185C406 182.791 404.209 181 402 181C399.791 181 398 182.791 398 185C398 187.209 399.791 189 402 189Z" stroke="black" stroke-width="1.89051" stroke-linecap="round" stroke-linejoin="round"/>
<rect width="107" height="44" fill="black" fill-opacity="0" transform="translate(264 307)"/>
<path d="M325.212 313.934L318.404 309.491C316.418 308.168 313.364 307 311 307L285 308L297.132 316.915" stroke="black" stroke-width="1.89051" stroke-linecap="round" stroke-linejoin="round"/>
<path d="M325.212 343.859L318.404 348.302C316.418 349.626 313.364 350.793 311 350.793L285 349.793L304.013 336.398" stroke="black" stroke-width="1.89051" stroke-linecap="round" stroke-linejoin="round"/>
<path fill-rule="evenodd" clip-rule="evenodd" d="M302.002 330.342C302.096 335.919 306.019 339.038 309.234 340.834C311.976 342.346 314.787 343.095 318.002 343C352.797 342.149 365.598 333.839 369.002 330.909C369.664 330.342 370.002 329.351 370.002 328.5C370.002 327.649 369.664 326.939 369.002 326.372C365.503 323.536 352.797 315 318.002 315C314.881 315 311.787 316.352 309.045 317.959C305.83 319.849 301.907 323.063 302.002 328.64V330.342Z" stroke="black" stroke-width="1.89051" stroke-linecap="round" stroke-linejoin="round"/>
<path fill-rule="evenodd" clip-rule="evenodd" d="M291 337.053C282.963 337.147 285.311 327.222 279.449 329.869C271.222 333.65 264.793 328.262 264.793 328.262C264.793 328.262 270.372 328.735 274.815 326.844C280.678 324.387 286.162 320.984 290.7 321.929C294.766 322.874 297.905 325.341 298 329.5C298.095 333.659 295.16 336.958 291 337.053Z" stroke="black" stroke-width="1.89051" stroke-linecap="round" stroke-linejoin="round"/>
<path fill-rule="evenodd" clip-rule="evenodd" d="M323.148 337.998C318.231 338.097 314.1 334.065 314.002 329.148C313.903 324.23 317.936 320.1 322.853 320.002C327.771 319.903 331.902 323.935 332 328.852C332 333.868 328.066 337.998 323.148 337.998Z" stroke="black" stroke-width="1.89051" stroke-linecap="round" stroke-linejoin="round"/>
<path fill-rule="evenodd" clip-rule="evenodd" d="M344.086 334C341.329 334 339.089 331.845 339.002 329.087C338.916 326.329 341.157 324.089 343.914 324.002C346.671 323.916 348.911 326.157 348.998 328.915C349.084 331.673 346.843 334 344.086 334Z" stroke="black" stroke-width="1.89051" stroke-linecap="round" stroke-linejoin="round"/>
<rect width="132" height="132" fill="black" fill-opacity="0" transform="translate(144 205)"/>
<path fill-rule="evenodd" clip-rule="evenodd" d="M242.526 303.526C260.49 285.562 260.49 256.437 242.526 238.473C224.562 220.509 195.437 220.509 177.473 238.473C159.509 256.437 159.509 285.562 177.473 303.526C195.437 321.49 224.562 321.49 242.526 303.526Z" stroke="black" stroke-width="1.99998" stroke-linecap="round" stroke-linejoin="round"/>
<path fill-rule="evenodd" clip-rule="evenodd" d="M236.163 297.163C250.612 282.714 250.612 259.286 236.163 244.837C221.714 230.388 198.286 230.388 183.837 244.837C169.388 259.286 169.388 282.714 183.837 297.163C198.286 311.612 221.714 311.612 236.163 297.163Z" stroke="black" stroke-width="1.99998" stroke-linecap="round" stroke-linejoin="round"/>
<rect width="39" height="39" fill="black" fill-opacity="0" transform="translate(191 252)"/>
<path d="M217.7 278L229.2 252L203.2 263.5L207.5 267.8" stroke="black" stroke-width="2" stroke-linecap="round" stroke-linejoin="round"/>
<path d="M202.5 264.2L191 290.2L217 278.7" stroke="black" stroke-width="2" stroke-linecap="round" stroke-linejoin="round"/>
<path fill-rule="evenodd" clip-rule="evenodd" d="M213.9 271C213.9 273.154 212.156 275 209.9 275C207.643 275 205.9 273.256 205.9 271C205.9 268.846 207.643 267 209.9 267C212.156 267 213.9 268.744 213.9 271Z" stroke="black" stroke-width="2" stroke-linecap="round" stroke-linejoin="round"/>
<path d="M212.7 274.5L217 279" stroke="black" stroke-width="2" stroke-linecap="round" stroke-linejoin="round"/>
<path d="M210 243V250" stroke="black" stroke-width="2" stroke-linecap="round" stroke-linejoin="round"/>
<path d="M210 293V300" stroke="black" stroke-width="2" stroke-linecap="round" stroke-linejoin="round"/>
<path d="M239 271H232" stroke="black" stroke-width="2" stroke-linecap="round" stroke-linejoin="round"/>
<path d="M188 271H181" stroke="black" stroke-width="2" stroke-linecap="round" stroke-linejoin="round"/>
<rect width="89" height="66" fill="black" fill-opacity="0" transform="translate(289 208)"/>
<path fill-rule="evenodd" clip-rule="evenodd" d="M378 261H356C355.7 265.1 352.2 269 348 269H320C315.8 269 312.3 265.1 312 261H289V266.1C289 270.7 292.6 274 297.2 274H370.4C375 274 378 270.7 378 266.1V261Z" stroke="black" stroke-width="2" stroke-linecap="round" stroke-linejoin="round"/>
<path d="M311.9 262H355.9" stroke="black" stroke-width="2" stroke-linecap="round" stroke-linejoin="round"/>
<path d="M295 261V213.5C295 210.837 297.577 208 300.15 208H366.65C369.322 208 372 210.936 372 213.5V261" stroke="black" stroke-width="2" stroke-linecap="round" stroke-linejoin="round"/>
<rect x="301" y="214" width="65" height="41" stroke="black" stroke-width="2" stroke-linecap="round" stroke-linejoin="round"/>
<rect width="42" height="23" fill="black" fill-opacity="0" transform="translate(313 224)"/>
<rect width="6" height="23" fill="black" fill-opacity="0" transform="translate(313 224)"/>
<path fill-rule="evenodd" clip-rule="evenodd" d="M316 230.7C317.657 230.7 319 229.357 319 227.7C319 226.043 317.657 224.7 316 224.7C314.343 224.7 313 226.043 313 227.7C313 229.357 314.343 230.7 316 230.7Z" fill="white" stroke="black" stroke-width="2" stroke-linecap="round" stroke-linejoin="round"/>
<path d="M316 231.5V246.5" stroke="black" stroke-width="2" stroke-linecap="round" stroke-linejoin="round"/>
<rect width="6" height="23" fill="black" fill-opacity="0" transform="translate(325 224)"/>
<path d="M328 224.5V246.5" stroke="black" stroke-width="2" stroke-linecap="round" stroke-linejoin="round"/>
<path fill-rule="evenodd" clip-rule="evenodd" d="M328 246.7C329.657 246.7 331 245.357 331 243.7C331 242.043 329.657 240.7 328 240.7C326.343 240.7 325 242.043 325 243.7C325 245.357 326.343 246.7 328 246.7Z" fill="white" stroke="black" stroke-width="2" stroke-linecap="round" stroke-linejoin="round"/>
<rect width="6" height="23" fill="black" fill-opacity="0" transform="translate(337 224)"/>
<path d="M340 224.5V246.5" stroke="black" stroke-width="2" stroke-linecap="round" stroke-linejoin="round"/>
<path fill-rule="evenodd" clip-rule="evenodd" d="M340 234.7C341.657 234.7 343 233.357 343 231.7C343 230.043 341.657 228.7 340 228.7C338.343 228.7 337 230.043 337 231.7C337 233.357 338.343 234.7 340 234.7Z" fill="white" stroke="black" stroke-width="2" stroke-linecap="round" stroke-linejoin="round"/>
<rect width="6" height="23" fill="black" fill-opacity="0" transform="translate(349 224)"/>
<path fill-rule="evenodd" clip-rule="evenodd" d="M352 230.7C353.657 230.7 355 229.357 355 227.7C355 226.043 353.657 224.7 352 224.7C350.343 224.7 349 226.043 349 227.7C349 229.357 350.343 230.7 352 230.7Z" fill="white" stroke="black" stroke-width="2" stroke-linecap="round" stroke-linejoin="round"/>
<path d="M352 231.5V246.5" stroke="black" stroke-width="2" stroke-linecap="round" stroke-linejoin="round"/>
<rect width="12" height="13" fill="black" fill-opacity="0" transform="translate(398 276)"/>
<path d="M398 276L410 288" stroke="black" stroke-width="1.89051" stroke-linecap="round"/>
<path d="M398 288.001L410 276" stroke="black" stroke-width="1.89051" stroke-linecap="round"/>
<path fill-rule="evenodd" clip-rule="evenodd" d="M255.821 181.63L259.352 188.692L267.253 189.869C268.43 190.037 268.767 191.382 267.926 192.222L262.21 197.77L263.555 205.504C263.723 206.513 262.546 207.354 261.537 206.849L254.476 203.15L247.415 206.849C246.406 207.354 245.229 206.513 245.397 205.504L246.742 197.77L241.026 192.222C240.185 191.382 240.69 190.037 241.698 189.869L249.6 188.692L253.131 181.63C253.972 180.79 255.317 180.79 255.821 181.63Z" stroke="black" stroke-width="2"/>
<rect width="56" height="70" fill="black" fill-opacity="0" transform="translate(116 129)"/>
<path fill-rule="evenodd" clip-rule="evenodd" d="M145.026 165H142.974C135.254 165 129 158.889 129 151.345V142.655C129 135.111 135.254 129 142.974 129H145.026C152.746 129 159 135.111 159 142.655V151.345C158.902 158.889 152.648 165 145.026 165Z" stroke="black" stroke-width="1.89051" stroke-linecap="round" stroke-linejoin="round"/>
<rect width="6" height="7" fill="black" fill-opacity="0" transform="translate(141 138)"/>
<path d="M141 138L147 144" stroke="black" stroke-width="1.89051" stroke-linecap="round"/>
<path d="M141 144.001L147 138" stroke="black" stroke-width="1.89051" stroke-linecap="round"/>
<rect width="6" height="7" fill="black" fill-opacity="0" transform="translate(141 150)"/>
<path d="M141 150L147 156" stroke="black" stroke-width="1.89051" stroke-linecap="round"/>
<path d="M141 156.001L147 150" stroke="black" stroke-width="1.89051" stroke-linecap="round"/>
<path fill-rule="evenodd" clip-rule="evenodd" d="M155.701 180H132.299C129.91 180 128 178.351 128 176.289V175.711C128 173.649 129.91 172 132.299 172H155.701C158.09 172 160 173.649 160 175.711V176.289C160 178.351 158.09 180 155.701 180Z" stroke="black" stroke-width="1.89051" stroke-linecap="round" stroke-linejoin="round"/>
<path d="M139 164.485V171.48" stroke="black" stroke-width="1.89051" stroke-linecap="round" stroke-linejoin="round"/>
<path d="M149 164.485V171.48" stroke="black" stroke-width="1.89051" stroke-linecap="round" stroke-linejoin="round"/>
<path d="M157 192C157 189.07 150.997 186 144 186C137.098 186 131 188.975 131 192" stroke="black" stroke-width="1.89051" stroke-linecap="round" stroke-linejoin="round"/>
<path d="M144 181V192.438" stroke="black" stroke-width="1.89051" stroke-linecap="round" stroke-linejoin="round"/>
<path fill-rule="evenodd" clip-rule="evenodd" d="M144 198.998C145.657 198.998 147 197.656 147 195.999C147 194.343 145.657 193 144 193C142.343 193 141 194.343 141 195.999C141 197.656 142.343 198.998 144 198.998Z" stroke="black" stroke-width="1.89051" stroke-linecap="round" stroke-linejoin="round"/>
<path fill-rule="evenodd" clip-rule="evenodd" d="M157 198.998C158.657 198.998 160 197.656 160 195.999C160 194.343 158.657 193 157 193C155.343 193 154 194.343 154 195.999C154 197.656 155.343 198.998 157 198.998Z" stroke="black" stroke-width="1.89051" stroke-linecap="round" stroke-linejoin="round"/>
<path fill-rule="evenodd" clip-rule="evenodd" d="M131 198.998C132.657 198.998 134 197.656 134 195.999C134 194.343 132.657 193 131 193C129.343 193 128 194.343 128 195.999C128 197.656 129.343 198.998 131 198.998Z" stroke="black" stroke-width="1.89051" stroke-linecap="round" stroke-linejoin="round"/>
<path d="M160 175.733C162.364 175.072 166.047 173.276 166.047 168.171V164" stroke="black" stroke-width="1.89051" stroke-linecap="round" stroke-linejoin="round"/>
<path fill-rule="evenodd" clip-rule="evenodd" d="M168.644 164H164.449C162.585 164 161 162.3 161 160.3V159.7C161 157.7 162.585 156 164.449 156H168.551C170.415 156 172 157.7 172 159.7V160.3C172 162.3 170.508 164 168.644 164Z" stroke="black" stroke-width="1.89051" stroke-linecap="round" stroke-linejoin="round"/>
<path d="M127 175.733C124.636 175.072 121 173.276 121 168.171V164" stroke="black" stroke-width="1.89051" stroke-linecap="round" stroke-linejoin="round"/>
<path fill-rule="evenodd" clip-rule="evenodd" d="M119.449 164H123.551C125.415 164 127 162.3 127 160.3V159.7C127 157.7 125.415 156 123.551 156H119.449C117.585 156 116 157.7 116 159.7V160.3C116 162.3 117.585 164 119.449 164Z" stroke="black" stroke-width="1.89051" stroke-linecap="round" stroke-linejoin="round"/>
<rect width="63" height="83" fill="black" fill-opacity="0" transform="translate(398 69)"/>
<path d="M450 93V103C450 105.08 448.08 107 446 107C443.92 107 442 105.174 442 103V97C442 94.9204 440.08 93 438 93C435.92 93 434 94.8259 434 97V106C434 108.08 432.08 110 430 110C427.92 110 426 108.174 426 106V94C426 91.9204 424.079 90 421.999 90C419.919 90 418 91.8259 418 94V98C418 100.08 416.08 102 414 102C411.92 102 410 100.174 410 98V92.1726" stroke="black" stroke-width="1.89051" stroke-linecap="round" stroke-linejoin="round"/>
<path d="M456 81V116.887C456 118.305 455.376 120 453.863 120H405.736C404.318 120 403 118.399 403 116.887V81" stroke="black" stroke-width="1.89051"/>
<path d="M423.039 120.341L409.991 142.838" stroke="black" stroke-width="1.89051" stroke-linecap="round" stroke-linejoin="round"/>
<path d="M434.924 120.341L447.972 142.838" stroke="black" stroke-width="1.89051" stroke-linecap="round" stroke-linejoin="round"/>
<path d="M429 120V151.572" stroke="black" stroke-width="1.89051" stroke-linecap="round" stroke-linejoin="round"/>
<path d="M416.515 132L429 140L441.944 132" stroke="black" stroke-width="1.89051" stroke-linecap="round" stroke-linejoin="round"/>
<path fill-rule="evenodd" clip-rule="evenodd" d="M442 75C442 74.8109 442 72 442 72C442 70.204 440.153 69 438.357 69H421.432C419.636 69 418 70.204 418 72C418 72 417.905 74.8109 418 75H398V81H461V75H442Z" stroke="black" stroke-width="1.89051" stroke-linecap="round" stroke-linejoin="round"/>
<rect width="12" height="13" fill="black" fill-opacity="0" transform="translate(417 267)"/>
<path d="M417 267L429 279" stroke="black" stroke-width="1.89051" stroke-linecap="round"/>
<path d="M417 279.001L429 267" stroke="black" stroke-width="1.89051" stroke-linecap="round"/>
<rect width="12" height="13" fill="black" fill-opacity="0" transform="translate(347 373)"/>
<path d="M347 373L359 385" stroke="black" stroke-width="1.89051" stroke-linecap="round"/>
<path d="M347 385.001L359 373" stroke="black" stroke-width="1.89051" stroke-linecap="round"/>
<rect width="12" height="13" fill="black" fill-opacity="0" transform="translate(268 407)"/>
<path d="M268 407L280 419" stroke="black" stroke-width="1.89051" stroke-linecap="round"/>
<path d="M268 419.001L280 407" stroke="black" stroke-width="1.89051" stroke-linecap="round"/>
<rect width="12" height="13" fill="black" fill-opacity="0" transform="translate(125 418)"/>
<path d="M125 418L137 430" stroke="black" stroke-width="1.89051" stroke-linecap="round"/>
<path d="M125 430.001L137 418" stroke="black" stroke-width="1.89051" stroke-linecap="round"/>
<rect width="12" height="13" fill="black" fill-opacity="0" transform="translate(49 239)"/>
<path d="M49 239L61 251" stroke="black" stroke-width="1.89051" stroke-linecap="round"/>
<path d="M49 251.001L61 239" stroke="black" stroke-width="1.89051" stroke-linecap="round"/>
<rect width="59" height="75" fill="black" fill-opacity="0" transform="translate(456 165)"/>
<path fill-rule="evenodd" clip-rule="evenodd" d="M510.195 240H460.805C458.114 240 456 237.94 456 235.318V169.682C456 167.06 458.114 165 460.805 165H510.195C512.886 165 515 167.06 515 169.682V235.318C515 237.846 512.886 240 510.195 240Z" stroke="black" stroke-width="1.89051" stroke-linecap="round" stroke-linejoin="round"/>
<path fill-rule="evenodd" clip-rule="evenodd" d="M469.25 208H465.75C464.788 208 464 207.212 464 206.25V202.75C464 201.788 464.788 201 465.75 201H469.25C470.212 201 471 201.788 471 202.75V206.25C471 207.212 470.212 208 469.25 208Z" stroke="black" stroke-width="1.89051" stroke-linecap="round" stroke-linejoin="round"/>
<path fill-rule="evenodd" clip-rule="evenodd" d="M481.25 208H477.75C476.788 208 476 207.212 476 206.25V202.75C476 201.788 476.788 201 477.75 201H481.25C482.212 201 483 201.788 483 202.75V206.25C483 207.212 482.212 208 481.25 208Z" stroke="black" stroke-width="1.89051" stroke-linecap="round" stroke-linejoin="round"/>
<path fill-rule="evenodd" clip-rule="evenodd" d="M493.25 208H489.75C488.788 208 488 207.212 488 206.25V202.75C488 201.788 488.788 201 489.75 201H493.25C494.212 201 495 201.788 495 202.75V206.25C495 207.212 494.212 208 493.25 208Z" stroke="black" stroke-width="1.89051" stroke-linecap="round" stroke-linejoin="round"/>
<path fill-rule="evenodd" clip-rule="evenodd" d="M505.25 208H501.75C500.788 208 500 207.212 500 206.25V202.75C500 201.788 500.788 201 501.75 201H505.25C506.212 201 507 201.788 507 202.75V206.25C507 207.212 506.212 208 505.25 208Z" stroke="black" stroke-width="1.89051" stroke-linecap="round" stroke-linejoin="round"/>
<path fill-rule="evenodd" clip-rule="evenodd" d="M469.25 220H465.75C464.788 220 464 219.212 464 218.25V214.75C464 213.788 464.788 213 465.75 213H469.25C470.212 213 471 213.788 471 214.75V218.25C471 219.212 470.212 220 469.25 220Z" stroke="black" stroke-width="1.89051" stroke-linecap="round" stroke-linejoin="round"/>
<path fill-rule="evenodd" clip-rule="evenodd" d="M481.25 220H477.75C476.788 220 476 219.212 476 218.25V214.75C476 213.788 476.788 213 477.75 213H481.25C482.212 213 483 213.788 483 214.75V218.25C483 219.212 482.212 220 481.25 220Z" stroke="black" stroke-width="1.89051" stroke-linecap="round" stroke-linejoin="round"/>
<path fill-rule="evenodd" clip-rule="evenodd" d="M493.25 220H489.75C488.788 220 488 219.212 488 218.25V214.75C488 213.788 488.788 213 489.75 213H493.25C494.212 213 495 213.788 495 214.75V218.25C495 219.212 494.212 220 493.25 220Z" stroke="black" stroke-width="1.89051" stroke-linecap="round" stroke-linejoin="round"/>
<path fill-rule="evenodd" clip-rule="evenodd" d="M505.25 232H501.75C500.788 232 500 231.212 500 230.25V214.75C500 213.788 500.788 213 501.75 213H505.25C506.212 213 507 213.788 507 214.75V230.25C507 231.212 506.212 232 505.25 232Z" stroke="black" stroke-width="1.89051" stroke-linecap="round" stroke-linejoin="round"/>
<path fill-rule="evenodd" clip-rule="evenodd" d="M469.25 232H465.75C464.788 232 464 231.212 464 230.25V226.75C464 225.788 464.788 225 465.75 225H469.25C470.212 225 471 225.788 471 226.75V230.25C471 231.212 470.212 232 469.25 232Z" stroke="black" stroke-width="1.89051" stroke-linecap="round" stroke-linejoin="round"/>
<path fill-rule="evenodd" clip-rule="evenodd" d="M481.25 232H477.75C476.788 232 476 231.212 476 230.25V226.75C476 225.788 476.788 225 477.75 225H481.25C482.212 225 483 225.788 483 226.75V230.25C483 231.212 482.212 232 481.25 232Z" stroke="black" stroke-width="1.89051" stroke-linecap="round" stroke-linejoin="round"/>
<path fill-rule="evenodd" clip-rule="evenodd" d="M493.25 232H489.75C488.788 232 488 231.212 488 230.25V226.75C488 225.788 488.788 225 489.75 225H493.25C494.212 225 495 225.788 495 226.75V230.25C495 231.212 494.212 232 493.25 232Z" stroke="black" stroke-width="1.89051" stroke-linecap="round" stroke-linejoin="round"/>
<path fill-rule="evenodd" clip-rule="evenodd" d="M505.248 185H465.837C464.827 185 464 184.182 464 183.182V174.818C464 173.818 464.827 173 465.837 173H505.156C506.166 173 506.993 173.818 506.993 174.818V183.182C507.085 184.182 506.258 185 505.248 185Z" stroke="black" stroke-width="1.89051" stroke-linecap="round" stroke-linejoin="round"/>
<path d="M456 193H514" stroke="black" stroke-width="1.89051" stroke-linecap="round" stroke-linejoin="round"/>
<rect width="84" height="60" fill="black" fill-opacity="0" transform="translate(90 343)"/>
<path d="M112 360.17V346.208C112 344.415 113.484 343 115.246 343H154.847C156.609 343 158 344.415 158 346.208V370.736C158 371.962 156.98 373 155.774 373H114.226C113.02 373 112 371.962 112 370.736V366.679" stroke="black" stroke-width="1.89051"/>
<path fill-rule="evenodd" clip-rule="evenodd" d="M113 387.997C116.314 387.997 119 385.311 119 381.998C119 378.686 116.314 376 113 376C109.686 376 107 378.686 107 381.998C107 385.311 109.686 387.997 113 387.997Z" stroke="black" stroke-width="1.89051" stroke-linecap="round" stroke-linejoin="round"/>
<path fill-rule="evenodd" clip-rule="evenodd" d="M107 350C107 353.344 104.344 356 101 356C97.6557 356 95 353.344 95 350C95 346.656 97.6557 344 101 344C104.344 344 107 346.656 107 350Z" stroke="black" stroke-width="1.89051" stroke-linecap="round" stroke-linejoin="round"/>
<path d="M124 401V401C124 396.487 120.162 391 115.387 391H110.613C105.838 391 102 396.487 102 401V401" stroke="black" stroke-width="1.89051" stroke-linecap="round" stroke-linejoin="round"/>
<path d="M90 369C90 364.179 93.7153 360 98.5374 360H103.36H118V366H108.276" stroke="black" stroke-width="1.89051" stroke-linecap="round" stroke-linejoin="round"/>
<path fill-rule="evenodd" clip-rule="evenodd" d="M135 387.997C138.314 387.997 141 385.311 141 381.998C141 378.686 138.314 376 135 376C131.686 376 129 378.686 129 381.998C129 385.311 131.686 387.997 135 387.997Z" stroke="black" stroke-width="1.89051" stroke-linecap="round" stroke-linejoin="round"/>
<path d="M146 401V401C146 396.487 142.162 391 137.387 391H132.613C127.838 391 124 396.487 124 401V401" stroke="black" stroke-width="1.89051" stroke-linecap="round" stroke-linejoin="round"/>
<path fill-rule="evenodd" clip-rule="evenodd" d="M157 387.997C160.314 387.997 163 385.311 163 381.998C163 378.686 160.314 376 157 376C153.686 376 151 378.686 151 381.998C151 385.311 153.686 387.997 157 387.997Z" stroke="black" stroke-width="1.89051" stroke-linecap="round" stroke-linejoin="round"/>
<path d="M168 401V401C168 396.487 164.162 391 159.387 391H154.613C149.838 391 146 396.487 146 401V401" stroke="black" stroke-width="1.89051" stroke-linecap="round" stroke-linejoin="round"/>
<path d="M96 376.127V381H90V369" stroke="black" stroke-width="1.89051" stroke-linecap="round" stroke-linejoin="round"/>
<path d="M122.001 364L127 358L131 363L140 353H153.472" stroke="black" stroke-width="1.89051" stroke-linecap="round" stroke-linejoin="round"/>
<path d="M94 381.032V400.599" stroke="black" stroke-width="1.89051" stroke-linecap="round" stroke-linejoin="round"/>
<path d="M102 383V401.317" stroke="black" stroke-width="1.89051" stroke-linecap="round" stroke-linejoin="round"/>
<path d="M90 402H174" stroke="black" stroke-width="1.89051" stroke-linecap="round" stroke-linejoin="round"/>
<rect width="84" height="60" fill="black" fill-opacity="0" transform="translate(275 75) scale(-1 1)"/>
<rect width="84" height="60" fill="black" fill-opacity="0" transform="translate(275 75) scale(-1 1)"/>
<path d="M253 92.1698V78.2075C253 76.4151 251.516 75 249.754 75H210.153C208.391 75 207 76.4151 207 78.2075V102.736C207 103.962 208.02 105 209.226 105H250.774C251.98 105 253 103.962 253 102.736V98.6792" stroke="black" stroke-width="1.89051"/>
<path fill-rule="evenodd" clip-rule="evenodd" d="M252 119.997C248.686 119.997 246 117.311 246 113.998C246 110.686 248.686 108 252 108C255.314 108 258 110.686 258 113.998C258 117.311 255.314 119.997 252 119.997Z" stroke="black" stroke-width="1.89051" stroke-linecap="round" stroke-linejoin="round"/>
<path fill-rule="evenodd" clip-rule="evenodd" d="M258 82C258 85.3443 260.656 88 264 88C267.344 88 270 85.3443 270 82C270 78.6557 267.344 76 264 76C260.656 76 258 78.6557 258 82Z" stroke="black" stroke-width="1.89051" stroke-linecap="round" stroke-linejoin="round"/>
<path d="M241 133V133C241 128.487 244.838 123 249.613 123H254.387C259.162 123 263 128.487 263 133V133" stroke="black" stroke-width="1.89051" stroke-linecap="round" stroke-linejoin="round"/>
<path d="M275 101C275 96.1792 271.285 92 266.463 92H261.64H247V98H256.724" stroke="black" stroke-width="1.89051" stroke-linecap="round" stroke-linejoin="round"/>
<path fill-rule="evenodd" clip-rule="evenodd" d="M230 119.997C226.686 119.997 224 117.311 224 113.998C224 110.686 226.686 108 230 108C233.314 108 236 110.686 236 113.998C236 117.311 233.314 119.997 230 119.997Z" stroke="black" stroke-width="1.89051" stroke-linecap="round" stroke-linejoin="round"/>
<path d="M219 133V133C219 128.487 222.838 123 227.613 123H232.387C237.162 123 241 128.487 241 133V133" stroke="black" stroke-width="1.89051" stroke-linecap="round" stroke-linejoin="round"/>
<path fill-rule="evenodd" clip-rule="evenodd" d="M208 119.997C204.686 119.997 202 117.311 202 113.998C202 110.686 204.686 108 208 108C211.314 108 214 110.686 214 113.998C214 117.311 211.314 119.997 208 119.997Z" stroke="black" stroke-width="1.89051" stroke-linecap="round" stroke-linejoin="round"/>
<path d="M197 133V133C197 128.487 200.838 123 205.613 123H210.387C215.162 123 219 128.487 219 133V133" stroke="black" stroke-width="1.89051" stroke-linecap="round" stroke-linejoin="round"/>
<path d="M269 108.127V113H275V101" stroke="black" stroke-width="1.89051" stroke-linecap="round" stroke-linejoin="round"/>
<path d="M271 113.032V132.599" stroke="black" stroke-width="1.89051" stroke-linecap="round" stroke-linejoin="round"/>
<path d="M263 115V133.317" stroke="black" stroke-width="1.89051" stroke-linecap="round" stroke-linejoin="round"/>
<path d="M275 134H191" stroke="black" stroke-width="1.89051" stroke-linecap="round" stroke-linejoin="round"/>
<rect width="26" height="16" fill="black" fill-opacity="0" transform="translate(243 82) scale(-1 1)"/>
<rect x="223" y="88" width="6" height="10" rx="1" transform="scale(-1 1)" stroke="black" stroke-width="2"/>
<rect x="233" y="92" width="6" height="6" rx="1" transform="scale(-1 1)" stroke="black" stroke-width="2"/>
<rect x="243" y="82" width="6" height="16" rx="1" transform="scale(-1 1)" stroke="black" stroke-width="2"/>
<rect width="75" height="74" fill="black" fill-opacity="0" transform="translate(459 283)"/>
<path fill-rule="evenodd" clip-rule="evenodd" d="M497.009 354C515.792 354 531.019 338.778 531.019 320C531.019 301.222 515.792 286 497.009 286C478.227 286 463 301.222 463 320C463 338.778 478.227 354 497.009 354Z" stroke="black" stroke-width="1.89051"/>
<path fill-rule="evenodd" clip-rule="evenodd" d="M497 346C511.359 346 523 334.359 523 320C523 305.641 511.359 294 497 294C482.641 294 471 305.641 471 320C471 334.359 482.641 346 497 346Z" stroke="black" stroke-width="1.89051"/>
<path fill-rule="evenodd" clip-rule="evenodd" d="M497 339C507.493 339 516 330.493 516 320C516 309.507 507.493 301 497 301C486.507 301 478 309.507 478 320C478 330.493 486.507 339 497 339Z" stroke="black" stroke-width="1.89051"/>
<path d="M497 305V283" stroke="black" stroke-width="1.89051" stroke-linecap="round"/>
<path d="M512 320H534" stroke="black" stroke-width="1.89051" stroke-linecap="round"/>
<path d="M459 320H481" stroke="black" stroke-width="1.89051" stroke-linecap="round"/>
<path d="M497 357V335" stroke="black" stroke-width="1.89051" stroke-linecap="round"/>
<rect width="90" height="69" fill="black" fill-opacity="0" transform="translate(292 14)"/>
<path fill-rule="evenodd" clip-rule="evenodd" d="M360 36.9956C364.418 36.9956 368 33.4148 368 28.9978C368 24.5807 364.418 21 360 21C355.582 21 352 24.5807 352 28.9978C352 33.4148 355.582 36.9956 360 36.9956Z" stroke="black" stroke-width="1.89051"/>
<path d="M363 37V42C363 43.0398 362.202 44 361.162 44H359.082C358.042 44 357 43.0398 357 42V37" stroke="black" stroke-width="1.89051"/>
<path d="M362 44C362 44.5672 361.464 46 360 46C358.536 46 358 44.5672 358 44" stroke="black" stroke-width="1.89051"/>
<path d="M325.84 53C335.863 53 344 61.5463 344 71.6606V82.0584" stroke="black" stroke-width="1.89051" stroke-linecap="round" stroke-linejoin="round"/>
<path d="M310.806 53C300.784 53 292 61.5463 292 71.6606V82H344.183" stroke="black" stroke-width="1.89051" stroke-linecap="round" stroke-linejoin="round"/>
<path d="M332 54C332 61.373 325.875 67 318.5 67C311.125 67 305 61.373 305 54" stroke="black" stroke-width="1.89051" stroke-linecap="round" stroke-linejoin="round"/>
<path d="M325.651 50.6759C325.651 52.3774 325.746 53.7007 325.746 53.7007C325.746 57.7653 322.436 61 318.465 61C314.399 61 311.185 57.6708 311.185 53.7007C311.185 53.7007 311.279 52.4719 311.09 50.6759" stroke="black" stroke-width="1.89051" stroke-linecap="round" stroke-linejoin="round"/>
<path fill-rule="evenodd" clip-rule="evenodd" d="M318 52C311.287 52 306 46.6113 306 39.9V33.1887C306 26.4774 311.287 21 318 21C324.713 21 330 26.4774 330 33.1887V39.9C330 43.1139 328.866 45.9496 326.88 48.1237C324.611 50.5814 321.498 52 318 52Z" stroke="black" stroke-width="1.89051" stroke-linecap="round" stroke-linejoin="round"/>
<path d="M306.552 28.4624C306.552 28.4624 309.104 34.8901 313.454 35.6463V30.8255C313.454 30.8255 321.207 39.5219 330.095 33.0942" stroke="black" stroke-width="1.89051" stroke-linecap="round" stroke-linejoin="round"/>
<path d="M303 73.8347V81.9639" stroke="black" stroke-width="1.89051" stroke-linecap="round" stroke-linejoin="round"/>
<path d="M333 73.8347V81.9639" stroke="black" stroke-width="1.89051" stroke-linecap="round" stroke-linejoin="round"/>
<path fill-rule="evenodd" clip-rule="evenodd" d="M351.085 61.1682L366.686 51H367.159H372.036C377.236 51 382 46.4223 382 41.3179V23.7361C382 18.5372 377.142 14 372.036 14H347.303C342.103 14 338 18.6318 338 23.7361V41.2234C338 46.4223 341.894 51 347 51H354.017H354.206L351.085 61.1682Z" stroke="black" stroke-width="1.89051" stroke-linecap="round" stroke-linejoin="round"/>
<rect width="80" height="70" fill="black" fill-opacity="0" transform="translate(380 410)"/>
<path d="M433.036 448H448.524C449.659 448 454 447.093 454 445C454 442.907 447.681 441 441.45 441H414L404.453 436H400.631C400.158 436 399.78 436.435 399.969 436.907L407.249 448H417.974" stroke="black" stroke-width="1.89051" stroke-linejoin="round"/>
<path fill-rule="evenodd" clip-rule="evenodd" d="M436.331 446L416.599 459H409.224L420.134 446H436.331Z" stroke="black" stroke-width="1.89051" stroke-linejoin="round"/>
<path fill-rule="evenodd" clip-rule="evenodd" d="M414 475C414 477.489 411.989 479.499 409.5 479.499C407.011 479.499 405 477.489 405 475C405 472.511 407.011 470.501 409.5 470.501C411.989 470.501 414 472.511 414 475Z" stroke="black" stroke-width="1.89051"/>
<path fill-rule="evenodd" clip-rule="evenodd" d="M450 474.499C450 476.987 447.989 478.997 445.5 478.997C443.011 478.997 441 476.987 441 474.499C441 472.01 443.011 470 445.5 470C447.989 470 450 472.01 450 474.499Z" stroke="black" stroke-width="1.89051"/>
<path d="M395 430C395 426.975 397.069 424 400 424H454C457.026 424 460 427.07 460 430V465C460 468.025 456.931 470 454 470H400C396.974 470 395 467.93 395 465" stroke="black" stroke-width="1.89051"/>
<path d="M444 424.241V417C444 413.124 440.877 410 437 410H418C414.123 410 411 413.124 411 417V424.241" stroke="black" stroke-width="1.89051" stroke-linecap="round"/>
<path d="M437 420V419C437 417.488 435.607 416 434 416H421C419.487 416 418 417.393 418 419V423" stroke="black" stroke-width="1.89051" stroke-linecap="round"/>
<path d="M394.012 440H380.113" stroke="black" stroke-width="1.89051" stroke-linecap="round"/>
<path d="M395.336 453H385.313" stroke="black" stroke-width="1.89051" stroke-linecap="round"/>
<path d="M398.456 447H390.513" stroke="black" stroke-width="1.89051" stroke-linecap="round"/>
<rect width="61" height="59" fill="black" fill-opacity="0" transform="translate(246 473)"/>
<rect width="61" height="59" fill="black" fill-opacity="0" transform="translate(246 473)"/>
<path fill-rule="evenodd" clip-rule="evenodd" d="M264 479C264 482.344 261.344 485 258 485C254.656 485 252 482.344 252 479C252 475.656 254.656 473 258 473C261.344 473 264 475.656 264 479Z" stroke="black" stroke-width="1.89051" stroke-linecap="round" stroke-linejoin="round"/>
<path d="M246 498C246 493.179 249.715 489 254.537 489H259" stroke="black" stroke-width="1.89051" stroke-linecap="round" stroke-linejoin="round"/>
<path d="M270 498C270 493.179 266.285 489 261.463 489H257" stroke="black" stroke-width="1.89051" stroke-linecap="round" stroke-linejoin="round"/>
<path d="M249.955 510H246V498" stroke="black" stroke-width="1.89051" stroke-linecap="round" stroke-linejoin="round"/>
<path d="M266 510H270V498" stroke="black" stroke-width="1.89051" stroke-linecap="round" stroke-linejoin="round"/>
<path d="M250 500V530.599" stroke="black" stroke-width="1.89051" stroke-linecap="round" stroke-linejoin="round"/>
<path d="M266 500V530.599" stroke="black" stroke-width="1.89051" stroke-linecap="round" stroke-linejoin="round"/>
<path d="M258 512V530.317" stroke="black" stroke-width="1.89051" stroke-linecap="round" stroke-linejoin="round"/>
<path d="M246 531H307" stroke="black" stroke-width="1.89051" stroke-linecap="round" stroke-linejoin="round"/>
<path d="M269 515H278" stroke="black" stroke-width="1.89051"/>
<path d="M278 531.527V504H290" stroke="black" stroke-width="1.89051"/>
<path d="M290 531.527V489H302V531.527" stroke="black" stroke-width="1.89051"/>
<path d="M272 490C272 490 283.859 490.976 289.816 476.797" stroke="black" stroke-width="1.89051" stroke-linecap="round" stroke-linejoin="round"/>
<path d="M282.87 477.989L290.552 475.21L293.332 482.89" stroke="black" stroke-width="1.89051" stroke-linecap="round" stroke-linejoin="round"/>
<rect width="74" height="75" fill="black" fill-opacity="0" transform="translate(376 316)"/>
<path d="M408.762 378H420.77C423.512 378 426 375.466 426 372.63V372.252C426 369.511 423.607 367 420.77 367H409.518C409.518 367 406.507 362.527 391 363" stroke="black" stroke-width="1.89051" stroke-linecap="round" stroke-linejoin="round"/>
<path d="M422.85 377.262L443.179 369.605C445.543 368.66 448.285 369.794 449.23 372.252L449.419 372.724C450.554 375.655 449.608 378.585 446.677 379.719L424.93 388.983C422.188 390.117 419.257 390.284 416.326 390C409.14 389.244 402.333 389.739 391.648 386.903" stroke="black" stroke-width="1.89051" stroke-linecap="round" stroke-linejoin="round"/>
<path fill-rule="evenodd" clip-rule="evenodd" d="M388 389C389.105 389 390 388.105 390 387V361C390 359.895 389.105 359 388 359H378C376.895 359 376 359.895 376 361V387C376 388.105 376.895 389 378 389H388Z" stroke="black" stroke-width="1.89051" stroke-linecap="round" stroke-linejoin="round"/>
<path d="M402 363.048C404.742 355.58 412.212 350.476 420.532 351.043C430.744 351.705 438.497 360.496 437.835 370.704" stroke="black" stroke-width="1.89051" stroke-linecap="round" stroke-linejoin="round"/>
<path d="M420 358.067V338.193C420 338.193 424.734 321.334 439.194 333.278C439.194 333.278 432.711 343.234 422.553 339.044" stroke="black" stroke-width="1.89051" stroke-linecap="round" stroke-linejoin="round"/>
<path d="M420 344.228V326C420 326 415.46 309.334 401 321.278C401 321.278 404.781 327.084 411.092 327.962" stroke="black" stroke-width="1.89051" stroke-linecap="round" stroke-linejoin="round"/>
<path fill-rule="evenodd" clip-rule="evenodd" d="M384 365C384 365.6 383.5 366 383 366C382.4 366 382 365.5 382 365C382 364.4 382.5 364 383 364C383.5 364 384 364.5 384 365Z" stroke="black" stroke-width="1.89051"/>
<rect width="84" height="85" fill="black" fill-opacity="0" transform="translate(5 136)"/>
<rect width="84" height="85" fill="black" fill-opacity="0" transform="translate(5 136)"/>
<path fill-rule="evenodd" clip-rule="evenodd" d="M61 164.947C61 167.622 60.1475 170.083 58.7623 172.223C56.418 175.646 52.4754 178 48 178C44.377 178 41.1803 176.502 38.8361 174.148C36.4918 171.795 35 168.585 35 164.947C35 157.779 40.7541 152.001 47.8934 152.001C55.2459 151.894 61 157.779 61 164.947Z" stroke="black" stroke-width="1.89051" stroke-linecap="round"/>
<path d="M45 168C45 170.174 45.4948 171 48 171C50.1747 171 51 170.174 51 168C51 165.541 49.8561 165.568 48 165C46.1439 164.432 45 164.144 45 161.97C45 159.796 45.8253 159 48 159C50.1747 159 51 159.826 51 162" stroke="black" stroke-width="1.89051" stroke-linecap="round" stroke-linejoin="round"/>
<path d="M42 142V146.915" stroke="black" stroke-width="1.89051" stroke-linecap="round"/>
<path d="M54 144V147.308" stroke="black" stroke-width="1.89051" stroke-linecap="round"/>
<path d="M48 136V145.358" stroke="black" stroke-width="1.89051" stroke-linecap="round"/>
<path d="M35.5675 167.821C35.2351 167.993 34.915 168.164 34.6203 168.36C26.5834 173.181 21.3831 181.216 21.3831 190.385C21.3831 197.852 24.8815 204.563 30.46 209.479L29.0418 212.315C27.6235 215.15 28.7581 218.742 31.5947 220.16C34.4312 221.578 38.0242 220.444 39.4425 217.608L40.5771 215.245C43.9809 216.379 47.5739 217.041 51.356 217.041C56.4618 217.041 61.2839 215.907 65.5388 213.922C65.6333 214.111 65.6333 214.205 65.7279 214.394L67.3353 217.608C68.7535 220.444 72.3465 221.673 75.1831 220.16C78.0196 218.742 79.2488 215.15 77.736 212.315L76.1286 209.101C75.7504 208.345 75.2776 207.683 74.6157 207.21C77.3577 204.28 79.3433 200.876 80.478 197H83.9999C84.0945 198.229 85.0366 199.081 86.7184 199.081C88.0421 199.081 88.9999 198.041 88.9999 196.718V182.255C88.9999 180.932 88.0421 179.892 86.7184 179.892C84.9714 179.892 83.9999 180.932 83.9999 182.255V183H80.478C79.2488 179.124 77.1686 175.922 74.2375 172.992C72.2519 164.107 78.5869 154.559 78.5869 154.559C69.699 153.425 65.3497 160.609 63.3641 165.903C62.6468 165.634 61.9083 165.386 61.1485 165.16" stroke="black" stroke-width="1.89051" stroke-linejoin="round"/>
<path d="M44.2646 208.534C46.8175 209.384 49.5596 209.857 52.3961 209.857C56.2727 209.857 59.8657 209.006 63.0805 207.494" stroke="black" stroke-width="1.89051" stroke-linecap="round" stroke-linejoin="round"/>
<path d="M22 194C19.1667 194 19.1667 187 16.3333 187C13.5 187 13.5 194 10.6667 194C7.83333 194 7.83333 187 5 187" stroke="black" stroke-width="1.89051" stroke-linejoin="round"/>
<path d="M38.8457 174.836C36.082 176.068 35 177.34 35 177.34V183.673C35 183.673 41.5367 174.882 63 181.027V174.693C61.1235 173.72 60.0548 173.37 57.7856 173.086" stroke="black" stroke-width="1.89051" stroke-linejoin="round"/>
<rect width="2" height="16" fill="black" fill-opacity="0" transform="translate(47 157)"/>
<path d="M48 157V158.689" stroke="black" stroke-width="1.89051" stroke-linecap="round"/>
<path d="M48 171.382V173" stroke="black" stroke-width="1.89051" stroke-linecap="round"/>
</g>
</svg>
