<svg width="218" height="63" viewBox="0 0 218 63" fill="none" xmlns="http://www.w3.org/2000/svg">
<rect width="217.981" height="62.7995" fill="black" fill-opacity="0"/>
<path fill-rule="evenodd" clip-rule="evenodd" d="M4.20728 35.5834H2.89893V62.6833H4.20728V35.5834ZM94.7712 61.425C95.6562 62.3414 96.9067 62.7996 98.5227 62.7996C99.2922 62.7996 100.036 62.6772 100.755 62.4316C101.212 62.2755 101.618 62.0801 101.971 61.8452C102.173 61.7115 102.357 61.5651 102.525 61.4058L101.87 60.4767C100.998 61.277 99.9207 61.6769 98.6382 61.6769C97.3552 61.6769 96.3806 61.3157 95.7139 60.5928C95.0464 59.8706 94.7134 58.8253 94.7134 57.4569V43.7134H101.293V42.5907H94.7134V38.1772H93.4436V42.5907H89.6726V43.7134H93.4436V57.6505C93.4436 59.2511 93.8862 60.5092 94.7712 61.425ZM196.121 62.7996C194.505 62.7996 193.254 62.3414 192.369 61.425C191.484 60.5092 191.042 59.2511 191.042 57.6505V43.7134H187.271V42.5907H191.042V38.1772H192.312V42.5907H198.891V43.7134H192.312V57.4569C192.312 58.8253 192.645 59.8706 193.312 60.5928C193.979 61.3157 194.953 61.6769 196.236 61.6769C197.519 61.6769 198.596 61.277 199.469 60.4767L200.123 61.4058C199.661 61.845 199.071 62.1866 198.353 62.4316C197.634 62.6772 196.89 62.7996 196.121 62.7996ZM213.767 44.0811C212.703 43.7585 211.606 43.5972 210.478 43.5972C208.502 43.5972 207.014 43.9781 206.014 44.7391C205.013 45.5007 204.513 46.5007 204.513 47.7396C204.513 48.7208 204.795 49.4951 205.36 50.0625C205.924 50.6305 206.623 51.0496 207.457 51.3206C207.746 51.4147 208.072 51.5096 208.435 51.6053C208.8 51.7018 209.202 51.7991 209.64 51.8971C210.02 51.9818 210.427 52.0671 210.862 52.1531C212.401 52.4374 213.646 52.7404 214.595 53.0627C215.543 53.3857 216.345 53.8953 217 54.592C217.654 55.2889 217.981 56.2568 217.981 57.4956C217.981 59.1217 217.327 60.4126 216.019 61.3671C214.71 62.3223 212.825 62.7996 210.362 62.7996C208.746 62.7996 207.226 62.5546 205.802 62.064C204.378 61.574 203.269 60.9285 202.474 60.1282L203.09 59.1217C203.91 59.8445 204.968 60.4513 206.264 60.9413C207.559 61.4318 208.938 61.6768 210.401 61.6768C212.555 61.6768 214.146 61.3088 215.172 60.5732C216.198 59.8378 216.711 58.8119 216.711 57.4956C216.711 56.5665 216.435 55.8309 215.884 55.2889C215.332 54.7469 214.646 54.347 213.825 54.0887C213.004 53.8311 211.901 53.5728 210.516 53.3145C208.9 53.0048 207.611 52.6888 206.649 52.3658C205.687 52.0435 204.872 51.521 204.205 50.7981C203.538 50.0758 203.205 49.0692 203.205 47.7783C203.205 46.2559 203.826 44.9847 205.071 43.9648C206.315 42.9456 208.13 42.4358 210.516 42.4358C211.747 42.4358 212.979 42.6232 214.21 42.9969C215.441 43.3715 216.442 43.8682 217.211 44.4877L216.557 45.4943C215.762 44.8748 214.832 44.4041 213.767 44.0811ZM181.483 45.5134C182.676 46.7656 183.273 48.5786 183.273 50.9529V62.6833H184.543V50.8755C184.543 48.1655 183.824 46.0814 182.388 44.623C180.951 43.1652 178.989 42.4358 176.5 42.4358C174.525 42.4358 172.826 42.8877 171.402 43.7908C169.978 44.6946 168.946 45.9333 168.305 47.5073V42.5907H167.073V62.6833H168.343V51.8434C168.343 49.3402 169.061 47.3463 170.498 45.8618C171.934 44.3781 173.897 43.636 176.385 43.636C178.591 43.636 180.291 44.2618 181.483 45.5134ZM146.102 57.3795C146.872 58.7218 147.93 59.7671 149.277 60.5154C150.623 61.2643 152.13 61.6381 153.798 61.6381C155.157 61.6381 156.415 61.3862 157.569 60.8831C158.723 60.3798 159.672 59.6383 160.416 58.6571L161.224 59.5088C160.326 60.5674 159.236 61.3804 157.954 61.9478C156.671 62.5159 155.285 62.7996 153.798 62.7996C151.848 62.7996 150.11 62.3674 148.584 61.5024C147.057 60.6381 145.858 59.4314 144.986 57.8828C144.114 56.3342 143.678 54.5793 143.678 52.6177C143.678 50.6565 144.082 48.9011 144.89 47.3525C145.698 45.804 146.82 44.5977 148.257 43.7325C149.693 42.8682 151.297 42.4358 153.067 42.4358C154.811 42.4358 156.395 42.8617 157.819 43.7134C159.243 44.5651 160.365 45.7526 161.186 47.275C162.007 48.7982 162.417 50.5271 162.417 52.4628V52.8113H144.909C144.935 54.5146 145.333 56.0378 146.102 57.3795ZM159.974 47.5653C160.705 48.8175 161.122 50.2174 161.224 51.766H144.948C145.025 50.2174 145.422 48.8175 146.141 47.5653C146.858 46.3138 147.821 45.3395 149.027 44.6426C150.232 43.9457 151.579 43.5973 153.067 43.5973C154.554 43.5973 155.895 43.9457 157.088 44.6426C158.281 45.3395 159.242 46.3138 159.974 47.5653ZM137.91 50.9529C137.91 48.5786 137.333 46.7656 136.178 45.5134C135.024 44.2618 133.382 43.636 131.253 43.636C128.867 43.636 126.969 44.3848 125.558 45.8813C124.147 47.3785 123.442 49.3656 123.442 51.8434V62.6833H122.172V50.9529C122.172 48.5786 121.595 46.7656 120.44 45.5134C119.286 44.2618 117.657 43.636 115.554 43.636C113.142 43.636 111.238 44.3781 109.84 45.8618C108.441 47.3463 107.742 49.3402 107.742 51.8434V62.6833H106.473V42.5907H107.704V47.4299C108.32 45.8813 109.314 44.6617 110.686 43.7712C112.058 42.8809 113.707 42.4358 115.631 42.4358C117.555 42.4358 119.171 42.9004 120.479 43.8295C121.787 44.7587 122.659 46.1136 123.095 47.8945C123.685 46.217 124.698 44.8881 126.135 43.907C127.572 42.9264 129.303 42.4358 131.33 42.4358C133.767 42.4358 135.684 43.1587 137.083 44.6038C138.481 46.0496 139.18 48.1401 139.18 50.8755V62.6833H137.91V50.9529ZM77.2593 51.3206C78.0925 51.5916 79.2278 51.8694 80.6648 52.1531C82.2039 52.4374 83.448 52.7404 84.3972 53.0627C85.3459 53.3857 86.1479 53.8953 86.802 54.592C87.4561 55.2889 87.7834 56.2568 87.7834 57.4956C87.7834 59.1217 87.1292 60.4126 85.821 61.3671C84.5127 62.3223 82.6272 62.7996 80.1646 62.7996C78.5483 62.7996 77.0283 62.5546 75.6047 62.064C74.1809 61.574 73.0713 60.9285 72.2764 60.1282L72.8921 59.1217C73.7126 59.8445 74.7708 60.4513 76.0664 60.9413C77.3613 61.4318 78.7407 61.6768 80.2031 61.6768C82.3579 61.6768 83.948 61.3088 84.9744 60.5732C86 59.8378 86.5137 58.8119 86.5137 57.4956C86.5137 56.5665 86.2375 55.8309 85.686 55.2889C85.1343 54.7469 84.4482 54.347 83.6277 54.0887C82.8064 53.8311 81.7036 53.5728 80.3184 53.3145C78.7024 53.0048 77.4131 52.6888 76.4512 52.3658C75.4893 52.0435 74.6748 51.521 74.0078 50.7981C73.3406 50.0758 73.0076 49.0692 73.0076 47.7783C73.0076 46.2559 73.6289 44.9847 74.8735 43.9648C76.1174 42.9456 77.9329 42.4358 80.3184 42.4358C81.5498 42.4358 82.781 42.6232 84.0125 42.9969C85.2437 43.3715 86.2441 43.8682 87.0139 44.4877L86.3596 45.4943C85.5642 44.8748 84.634 44.4041 83.5698 44.0811C82.5049 43.7585 81.4084 43.5972 80.28 43.5972C78.3044 43.5972 76.8169 43.9781 75.8164 44.7391C74.8159 45.5007 74.3157 46.5007 74.3157 47.7396C74.3157 48.7208 74.5977 49.4951 75.1624 50.0625C75.7263 50.6305 76.4253 51.0496 77.2593 51.3206ZM56.8501 60.5154C55.5032 59.7671 54.4453 58.7218 53.6755 57.3795C52.906 56.0378 52.5081 54.5146 52.4829 52.8113H69.9907V52.4628C69.9907 50.5271 69.5801 48.7982 68.7593 47.275C67.938 45.7526 66.8162 44.5651 65.3923 43.7134C63.9685 42.8617 62.3845 42.4358 60.6404 42.4358C58.8704 42.4358 57.2668 42.8682 55.8306 43.7325C54.3936 44.5977 53.2715 45.804 52.4634 47.3525C51.6553 48.9011 51.2515 50.6565 51.2515 52.6177C51.2515 54.5793 51.6873 56.3342 52.5598 57.8828C53.4316 59.4314 54.6309 60.6381 56.1575 61.5024C57.6833 62.3674 59.4216 62.7996 61.3713 62.7996C62.8589 62.7996 64.2441 62.5159 65.5271 61.9478C66.8096 61.3804 67.8997 60.5674 68.7979 59.5088L67.9897 58.6571C67.2454 59.6383 66.2966 60.3798 65.1423 60.8831C63.988 61.3862 62.7307 61.6381 61.3713 61.6381C59.7036 61.6381 58.1968 61.2643 56.8501 60.5154ZM68.7981 51.766C68.6953 50.2174 68.2786 48.8175 67.5474 47.5653C66.8162 46.3138 65.8542 45.3395 64.6614 44.6426C63.4685 43.9457 62.1279 43.5973 60.6406 43.5973C59.1526 43.5973 57.8057 43.9457 56.6003 44.6426C55.3943 45.3395 54.4321 46.3138 53.7144 47.5653C52.9958 48.8175 52.5984 50.2174 52.5215 51.766H68.7981ZM30.8655 42.5907L39.9851 62.6835H41.2549L50.3743 42.5907H49.0276L40.6392 61.251L32.2507 42.5907H30.8655ZM27.4409 50.9529C27.4409 48.5786 26.8442 46.7656 25.6514 45.5134C24.4585 44.2618 22.759 43.636 20.5532 43.636C18.0647 43.636 16.1023 44.3781 14.6658 45.8618C13.2288 47.3463 12.511 49.3402 12.511 51.8434V62.6833H11.2412V42.5907H12.4727V47.5073C13.1135 45.9333 14.1462 44.6946 15.5698 43.7908C16.9937 42.8877 18.6929 42.4358 20.6685 42.4358C23.1565 42.4358 25.1189 43.1652 26.5559 44.623C27.9922 46.0814 28.7107 48.1655 28.7107 50.8755V62.6833H27.4409V50.9529Z" fill="black" fill-opacity="0.7"/>
<path fill-rule="evenodd" clip-rule="evenodd" d="M99.2358 0H94.6792V17.8899C94.6792 20.0809 95.2625 21.7491 96.429 22.8945C97.5955 24.0399 99.248 24.6125 101.387 24.6125C102.237 24.6125 103.045 24.5005 103.811 24.2765C104.576 24.0524 105.227 23.7162 105.761 23.2681L104.485 19.9441C103.805 20.4918 102.954 20.7657 101.934 20.7657C101.059 20.7657 100.39 20.5105 99.9285 20C99.4668 19.4896 99.2358 18.7489 99.2358 17.7778V0ZM164.995 24.2765C165.771 24.0524 166.43 23.7162 166.972 23.2681L165.679 19.9441C164.989 20.4918 164.126 20.7657 163.092 20.7657C162.205 20.7657 161.527 20.5105 161.059 20C160.591 19.4896 160.356 18.7489 160.356 17.7778V7.95862H166.221V4.18298H160.356V0H155.737V4.18298H152.484V7.95862H155.737V17.8899C155.737 20.0809 156.328 21.7491 157.51 22.8945C158.693 24.0399 160.369 24.6125 162.537 24.6125C163.399 24.6125 164.219 24.5005 164.995 24.2765ZM178.67 4.3667C181.528 4.3667 183.714 5.06372 185.228 6.45789C186.741 7.85205 187.498 9.95557 187.498 12.7686V24.3534H183.211V21.9476C182.654 22.8113 181.861 23.4713 180.832 23.9279C179.802 24.3843 178.561 24.6125 177.108 24.6125C175.654 24.6125 174.383 24.3596 173.293 23.8538C172.203 23.3479 171.361 22.6447 170.768 21.744C170.174 20.8434 169.878 19.8256 169.878 18.6906C169.878 16.9139 170.526 15.489 171.821 14.4156C173.117 13.3422 175.158 12.8055 177.943 12.8055H182.957V12.5094C182.957 11.1277 182.551 10.0667 181.74 9.32642C180.928 8.58606 179.723 8.21594 178.125 8.21594C177.035 8.21594 175.963 8.38867 174.91 8.73413C173.856 9.07959 172.966 9.56079 172.239 10.1776L170.459 6.80957C171.476 6.0199 172.699 5.41541 174.128 4.99597C175.557 4.57642 177.071 4.3667 178.67 4.3667ZM178.054 21.2445C179.192 21.2445 180.203 20.9792 181.087 20.4487C181.971 19.9182 182.595 19.1594 182.958 18.1725V15.8777H178.272C175.656 15.8777 174.348 16.7537 174.348 18.5056C174.348 19.3445 174.675 20.0107 175.329 20.5043C175.983 20.9978 176.891 21.2445 178.054 21.2445ZM142.084 4.3667C144.541 4.3667 146.51 5.104 147.994 6.57874C149.477 8.05347 150.219 10.2405 150.219 13.1399V24.6125H145.659V13.7397C145.659 11.9901 145.258 10.6716 144.456 9.7843C143.653 8.89697 142.51 8.45337 141.027 8.45337C139.349 8.45337 138.023 8.97205 137.051 10.0093C136.078 11.0466 135.592 12.54 135.592 14.4896V24.6125H131.032V4.59167H135.373V7.17859C136.127 6.25378 137.075 5.55396 138.218 5.0791C139.361 4.60413 140.65 4.3667 142.084 4.3667ZM123.77 6.45789C122.256 5.06372 120.07 4.3667 117.212 4.3667C115.614 4.3667 114.1 4.57642 112.671 4.99597C111.242 5.41541 110.019 6.0199 109.001 6.80957L110.782 10.1776C111.508 9.56079 112.398 9.07959 113.452 8.73413C114.506 8.38867 115.577 8.21594 116.667 8.21594C118.266 8.21594 119.471 8.58606 120.282 9.32642C121.094 10.0667 121.5 11.1277 121.5 12.5094V12.8055H116.486C113.7 12.8055 111.66 13.3422 110.364 14.4156C109.068 15.489 108.42 16.9139 108.42 18.6906C108.42 19.8256 108.717 20.8434 109.31 21.744C109.904 22.6447 110.745 23.3479 111.835 23.8538C112.925 24.3596 114.197 24.6125 115.65 24.6125C117.103 24.6125 118.345 24.3843 119.374 23.9279C120.404 23.4713 121.197 22.8113 121.754 21.9476V24.3534H126.041V12.7686C126.041 9.95557 125.284 7.85205 123.77 6.45789ZM116.59 21.2445C117.729 21.2445 118.74 20.9792 119.624 20.4487C120.508 19.9182 121.132 19.1594 121.495 18.1725V15.8777H116.808C114.192 15.8777 112.885 16.7537 112.885 18.5056C112.885 19.3445 113.211 20.0107 113.865 20.5043C114.52 20.9978 115.428 21.2445 116.59 21.2445ZM85.519 7.95862H81.9927C80.656 7.95862 79.6414 8.16064 78.9487 8.57141C78.2561 8.9823 77.9099 9.5238 77.9099 10.196C77.9099 10.943 78.2805 11.4722 79.0217 11.7833C79.7629 12.0946 80.9111 12.3872 82.4666 12.661C84.022 12.91 85.2979 13.1964 86.2942 13.52C87.2905 13.8438 88.1472 14.3915 88.8643 15.1635C89.5811 15.9353 89.9397 17.0308 89.9397 18.4501C89.9397 20.3175 89.1497 21.8114 87.5701 22.9319C85.9905 24.0524 83.8396 24.6125 81.1177 24.6125C79.5381 24.6125 77.9949 24.4009 76.488 23.9777C74.9812 23.5543 73.7783 23.019 72.8792 22.3717L74.6289 18.8236C75.5039 19.4211 76.5549 19.9004 77.7822 20.2615C79.0095 20.6226 80.2185 20.803 81.4094 20.803C84.1313 20.803 85.4922 20.0685 85.4922 18.5995C85.4922 17.9023 85.146 17.4167 84.4534 17.1428C84.1646 17.0287 83.8027 16.9166 83.3682 16.8068C82.7605 16.6531 82.0103 16.5037 81.1177 16.3585C79.5137 16.1096 78.2075 15.8232 77.199 15.4995C76.1904 15.1759 75.3154 14.6094 74.5742 13.8002C73.833 12.991 73.4624 11.8643 73.4624 10.4202C73.4624 8.52783 74.2341 7.01526 75.7773 5.88232C77.3206 4.74939 79.4043 4.18298 82.0291 4.18298H87.4578L85.519 7.95862ZM66.5032 6.57874C65.0198 5.104 63.05 4.3667 60.5938 4.3667C59.1589 4.3667 57.8701 4.60413 56.7273 5.0791C55.5842 5.55396 54.636 6.25378 53.8821 7.17859V4.59167H49.5413V24.6125H54.1008V14.4896C54.1008 12.54 54.5872 11.0466 55.5601 10.0093C56.5327 8.97205 57.8582 8.45337 59.5359 8.45337C61.0193 8.45337 62.1624 8.89697 62.9648 9.7843C63.7673 10.6716 64.1687 11.9901 64.1687 13.7397V24.6125H68.7283V13.1399C68.7283 10.2405 67.9866 8.05347 66.5032 6.57874ZM35.0273 24.6125C33.0579 24.6125 31.2827 24.1807 29.7021 23.3171C28.1218 22.4535 26.8877 21.2506 26.0002 19.7084C25.1128 18.1661 24.6689 16.4204 24.6689 14.4711C24.6689 12.5217 25.1128 10.7822 26.0002 9.25232C26.8877 7.72253 28.1218 6.52576 29.7021 5.66211C31.2827 4.79846 33.0579 4.3667 35.0273 4.3667C37.0212 4.3667 38.8083 4.79846 40.3889 5.66211C41.9695 6.52576 43.2034 7.72253 44.0908 9.25232C44.9785 10.7822 45.4221 12.5217 45.4221 14.4711C45.4221 16.4204 44.9785 18.1661 44.0908 19.7084C43.2034 21.2506 41.9695 22.4535 40.3889 23.3171C38.8083 24.1807 37.0212 24.6125 35.0273 24.6125ZM39.1853 18.9496C38.0911 20.0847 36.7051 20.6522 35.0273 20.6522C33.3496 20.6522 31.9697 20.0847 30.8877 18.9496C29.8057 17.8146 29.2646 16.3218 29.2646 14.4711C29.2646 12.6205 29.8057 11.1277 30.8877 9.99255C31.9697 8.85754 33.3496 8.29004 35.0273 8.29004C36.7051 8.29004 38.0911 8.85754 39.1853 9.99255C40.2795 11.1277 40.8267 12.6205 40.8267 14.4711C40.8267 16.3218 40.2795 17.8146 39.1853 18.9496Z" fill="black"/>
<path fill-rule="evenodd" clip-rule="evenodd" d="M21.197 7.19385C21.3464 6.88989 21.5063 6.5907 21.6765 6.29639C22.1018 5.56018 22.5771 4.87244 23.1028 4.23279C22.0857 3.26392 20.9109 2.49255 19.5779 1.9187C17.8359 1.16882 15.9102 0.793945 13.8003 0.793945C11.1997 0.793945 8.85059 1.37512 6.75293 2.53735C4.65527 3.69958 3.00537 5.30554 1.80322 7.3551C0.601074 9.40466 0 11.7167 0 14.2911C0 16.8656 0.594971 19.1776 1.78491 21.2273C2.97461 23.2769 4.61841 24.8827 6.71606 26.045C8.81372 27.2073 11.1628 27.7883 13.7634 27.7883C15.8733 27.7883 17.8054 27.4135 19.5596 26.6636C20.7588 26.151 21.8291 25.4806 22.7705 24.6523C22.375 24.1306 22.0103 23.5785 21.6765 22.9961C21.2578 22.2657 20.9014 21.5068 20.6067 20.7194C18.7971 22.5826 16.6018 23.5143 14.021 23.5143C12.2546 23.5143 10.6721 23.1206 9.27368 22.3333C7.87524 21.5459 6.78369 20.4524 5.99854 19.0527C5.21338 17.653 4.8208 16.0658 4.8208 14.2911C4.8208 12.5165 5.21338 10.9293 5.99854 9.52966C6.78369 8.12988 7.87524 7.03638 9.27368 6.24902C10.6721 5.46167 12.2546 5.06812 14.021 5.06812C16.7 5.06812 18.9631 6.05969 20.8113 8.04297C20.9312 7.75586 21.0598 7.47278 21.197 7.19385ZM91.8057 4.18298L89.8669 7.95862H104.959V4.18298H91.8057Z" fill="#FF5200"/>
</svg>
