<svg width="193" height="70" viewBox="0 0 193 70" fill="none" xmlns="http://www.w3.org/2000/svg">
<rect width="192.838" height="69.6071" fill="black" fill-opacity="0"/>
<path fill-rule="evenodd" clip-rule="evenodd" d="M117.714 33.5537H118.987V62.0432H117.714V33.5537ZM141.358 36.894C141.23 36.894 141.108 36.8765 140.992 36.8412C140.803 36.7839 140.629 36.6801 140.47 36.5293C140.213 36.2864 140.084 35.9985 140.084 35.6654C140.084 35.3074 140.206 35.0066 140.451 34.7632C140.609 34.6062 140.791 34.4999 140.997 34.4442C141.11 34.4137 141.23 34.3984 141.358 34.3984C141.691 34.3984 141.988 34.5201 142.245 34.7632C142.353 34.8651 142.438 34.9749 142.5 35.0923C142.587 35.2555 142.631 35.4338 142.631 35.6271C142.631 35.96 142.502 36.2545 142.245 36.51C141.988 36.7664 141.691 36.894 141.358 36.894ZM164.147 45.0148C165.343 46.2566 165.942 48.0547 165.942 50.4092V62.0432H167.215V50.3324C167.215 47.6447 166.494 45.578 165.054 44.1316C163.613 42.6857 161.646 41.9622 159.151 41.9622C157.17 41.9622 155.466 42.4104 154.039 43.3062C152.611 44.2025 151.575 45.4312 150.933 46.9921V42.1157H149.698V62.0432H150.972V51.2925C150.972 48.8099 151.691 46.8324 153.132 45.3602C154.572 43.8887 156.54 43.1526 159.035 43.1526C161.247 43.1526 162.951 43.7736 164.147 45.0148ZM190.485 67.2843C188.915 68.8326 186.549 69.6071 183.385 69.6071C181.533 69.6071 179.81 69.3252 178.215 68.7623C176.62 68.1991 175.347 67.4055 174.396 66.3818L175.129 65.422C176.157 66.3947 177.373 67.1433 178.775 67.6682C180.177 68.1924 181.7 68.4552 183.347 68.4552C186.15 68.4552 188.221 67.7959 189.559 66.4778C190.896 65.1593 191.565 63.0927 191.565 60.277V56.0535C190.819 57.6918 189.674 58.9847 188.131 59.9313C186.588 60.8788 184.826 61.3521 182.845 61.3521C180.968 61.3521 179.277 60.9363 177.772 60.1041C176.267 59.2726 175.083 58.1207 174.222 56.6486C173.36 55.177 172.93 53.5068 172.93 51.6378C172.93 49.7698 173.36 48.0996 174.222 46.6274C175.083 45.1559 176.267 44.0104 177.772 43.1908C179.277 42.3721 180.968 41.9622 182.845 41.9622C184.826 41.9622 186.594 42.4363 188.15 43.3829C189.706 44.3301 190.857 45.6356 191.604 47.2993V42.1157H192.838V60.1234C192.838 63.3486 192.053 65.7351 190.485 67.2843ZM190.465 47.2418C189.706 45.9495 188.664 44.9445 187.34 44.2277C186.015 43.5114 184.53 43.1526 182.884 43.1526C181.238 43.1526 179.752 43.5114 178.427 44.2277C177.102 44.9445 176.067 45.9495 175.322 47.2418C174.575 48.5347 174.203 50.0001 174.203 51.6379C174.203 53.3021 174.575 54.7805 175.322 56.0728C176.067 57.3657 177.102 58.3765 178.427 59.106C179.752 59.8356 181.238 60.2002 182.884 60.2002C184.53 60.2002 186.015 59.8356 187.34 59.106C188.664 58.3765 189.706 57.359 190.465 56.0535C191.223 54.748 191.604 53.2765 191.604 51.6379C191.604 50.0001 191.223 48.5347 190.465 47.2418ZM128.398 60.7953C129.285 61.7042 130.539 62.1583 132.16 62.1583C132.931 62.1583 133.677 62.0371 134.397 61.7936C135.117 61.5507 135.709 61.2117 136.172 60.776L135.516 59.8545C134.641 60.6484 133.561 61.0449 132.275 61.0449C130.989 61.0449 130.011 60.6866 129.343 59.9698C128.674 59.2537 128.34 58.2168 128.34 56.8596V43.2294H134.938V42.1157H128.34V37.7386H127.067V42.1157H123.286V43.2294H127.067V57.0518C127.067 58.6393 127.51 59.887 128.398 60.7953ZM105.756 60.8529C107.119 59.983 108.11 58.767 108.727 57.2054V62.0433H109.962V42.1158H108.688V52.8666C108.688 55.3499 107.994 57.3273 106.605 58.7988C105.216 60.271 103.326 61.0065 100.934 61.0065C98.6697 61.0065 96.927 60.3864 95.7056 59.1445C94.4834 57.9033 93.873 56.1052 93.873 53.7499V42.1158H92.5999V53.8267C92.5999 56.5144 93.3328 58.5752 94.7988 60.0082C96.2651 61.4421 98.2966 62.1583 100.895 62.1583C102.772 62.1583 104.393 61.7236 105.756 60.8529ZM77.5488 50.7742C78.3845 51.0428 79.5225 51.3181 80.9634 51.5996C82.5068 51.8816 83.7539 52.1821 84.7061 52.5018C85.6572 52.8221 86.4614 53.3273 87.1172 54.0184C87.7732 54.7095 88.1013 55.6696 88.1013 56.8982C88.1013 58.5109 87.4453 59.7911 86.1335 60.7378C84.8218 61.6849 82.9312 62.1582 80.4619 62.1582C78.8416 62.1582 77.3174 61.9153 75.8899 61.4288C74.4622 60.943 73.3494 60.3027 72.5525 59.5092L73.1699 58.5109C73.9929 59.2277 75.0537 59.8293 76.353 60.3153C77.6516 60.802 79.0344 61.0449 80.5005 61.0449C82.6611 61.0449 84.2556 60.6802 85.2847 59.9506C86.313 59.2212 86.8279 58.2036 86.8279 56.8982C86.8279 55.9767 86.5513 55.2471 85.9985 54.7095C85.4451 54.172 84.7571 53.7754 83.9343 53.5194C83.1108 53.2639 82.0054 53.0076 80.6165 52.7515C78.9958 52.4443 77.7031 52.131 76.7388 51.8107C75.7739 51.491 74.9573 50.9727 74.2888 50.2556C73.6196 49.5393 73.2856 48.541 73.2856 47.2607C73.2856 45.7509 73.9089 44.4904 75.1567 43.479C76.4041 42.4681 78.2241 41.9622 80.6165 41.9622C81.8511 41.9622 83.0857 42.1482 84.3203 42.5189C85.5549 42.8904 86.5581 43.3829 87.3296 43.9973L86.6736 44.9956C85.8762 44.3812 84.9434 43.9143 83.8762 43.594C82.8086 43.2743 81.7092 43.114 80.5776 43.114C78.5967 43.114 77.1052 43.4921 76.1021 44.2469C75.0989 45.0022 74.5974 45.9939 74.5974 47.2225C74.5974 48.1957 74.8801 48.9636 75.4463 49.5262C76.0117 50.0895 76.7126 50.5052 77.5488 50.7742ZM65.1736 45.0148C66.3694 46.2566 66.9678 48.0547 66.9678 50.4092V62.0432H68.2407V50.3324C68.2407 47.6447 67.5205 45.578 66.0801 44.1316C64.6392 42.6857 62.6716 41.9622 60.1772 41.9622C58.196 41.9622 56.4924 42.4104 55.0649 43.3062C53.6372 44.2025 52.6016 45.4312 51.959 46.9921V42.1157H50.7244V62.0432H51.9978V51.2925C51.9978 48.8099 52.7175 46.8324 54.1584 45.3602C55.5984 43.8887 57.5662 43.1526 60.0613 43.1526C62.2732 43.1526 63.9773 43.7736 65.1736 45.0148ZM41.1941 60.8721C39.7021 61.7299 38.0171 62.1582 36.1399 62.1582C34.2878 62.1582 32.6096 61.7299 31.1047 60.8721C29.6003 60.0148 28.4233 58.818 27.5747 57.2821C26.7258 55.7463 26.3013 54.0059 26.3013 52.0603C26.3013 50.1155 26.7258 48.3744 27.5747 46.8385C28.4233 45.3027 29.6003 44.1064 31.1047 43.2487C32.6096 42.3914 34.2878 41.9622 36.1399 41.9622C38.0171 41.9622 39.7021 42.3914 41.1941 43.2487C42.6858 44.1064 43.8564 45.3027 44.7051 46.8385C45.554 48.3744 45.9783 50.1155 45.9783 52.0603C45.9783 54.0059 45.554 55.7463 44.7051 57.2821C43.8564 58.818 42.6858 60.0148 41.1941 60.8721ZM40.519 44.2852C41.8176 45.0405 42.8401 46.09 43.5862 47.4336C44.332 48.7776 44.7053 50.3198 44.7053 52.0604C44.7053 53.8014 44.332 55.3499 43.5862 56.7061C42.8401 58.0632 41.8176 59.119 40.519 59.8738C39.2197 60.6292 37.7605 61.0065 36.1399 61.0065C34.5195 61.0065 33.0593 60.6292 31.761 59.8738C30.4617 59.119 29.4392 58.0632 28.6934 56.7061C27.9473 55.3499 27.5747 53.8014 27.5747 52.0604C27.5747 50.3198 27.9473 48.7776 28.6934 47.4336C29.4392 46.09 30.4617 45.0405 31.761 44.2852C33.0593 43.5304 34.5195 43.1526 36.1399 43.1526C37.7605 43.1526 39.2197 43.5304 40.519 44.2852ZM7.52368 59.3748C9.45288 60.463 11.5999 61.0063 13.9668 61.0063C17.3872 61.0063 20.2297 59.9187 22.4937 57.7429L23.3037 58.5876C22.1462 59.7651 20.7634 60.661 19.1562 61.2753C17.5483 61.8896 15.8057 62.1968 13.9285 62.1968C11.3047 62.1968 8.93164 61.6082 6.80981 60.4305C4.68774 59.2535 3.02197 57.6276 1.81348 55.5542C0.604248 53.4808 0 51.1646 0 48.6047C0 46.0455 0.604248 43.7284 1.81348 41.655C3.02197 39.5817 4.68774 37.9564 6.80981 36.7789C8.93164 35.6019 11.3047 35.0127 13.9285 35.0127C15.7803 35.0127 17.5164 35.3137 19.1367 35.9149C20.7573 36.5167 22.1462 37.4064 23.3037 38.5834L22.4937 39.4281C20.2559 37.278 17.4133 36.2029 13.9668 36.2029C11.5999 36.2029 9.45288 36.7471 7.52368 37.8347C5.59448 38.9229 4.07642 40.4138 2.97095 42.3079C1.8645 44.2025 1.31177 46.301 1.31177 48.6047C1.31177 50.9084 1.8645 53.0076 2.97095 54.9016C4.07642 56.7963 5.59448 58.2871 7.52368 59.3748ZM140.74 62.0433H142.013V42.1158H140.74V62.0433Z" fill="black" fill-opacity="0.7"/>
<path fill-rule="evenodd" clip-rule="evenodd" d="M99.4993 0H94.9304V17.7421C94.9304 19.915 95.5151 21.5695 96.6848 22.7053C97.8545 23.8412 99.5115 24.4092 101.656 24.4092C102.509 24.4092 103.319 24.2981 104.086 24.0758C104.854 23.8535 105.506 23.5203 106.042 23.0757L104.762 19.7792C104.08 20.3225 103.228 20.5941 102.204 20.5941C101.327 20.5941 100.657 20.3409 100.194 19.8347C99.7307 19.3286 99.4993 18.594 99.4993 17.6309V0ZM165.432 24.0758C166.211 23.8535 166.872 23.5203 167.415 23.0757L166.118 19.7792C165.426 20.3225 164.562 20.5941 163.524 20.5941C162.635 20.5941 161.955 20.3409 161.486 19.8347C161.016 19.3286 160.782 18.594 160.782 17.6309V7.89282H166.662V4.14844H160.782V0H156.149V4.14844H152.888V7.89282H156.149V17.7421C156.149 19.915 156.742 21.5695 157.928 22.7053C159.114 23.8412 160.794 24.4092 162.968 24.4092C163.833 24.4092 164.654 24.2981 165.432 24.0758ZM179.144 4.33069C182.01 4.33069 184.201 5.02197 185.719 6.40466C187.237 7.78723 187.996 9.87341 187.996 12.6631V24.1522H183.697V21.7664C183.139 22.6228 182.344 23.2775 181.311 23.7301C180.279 24.1829 179.035 24.4092 177.577 24.4092C176.12 24.4092 174.845 24.1583 173.753 23.6567C172.66 23.155 171.816 22.4576 171.221 21.5645C170.626 20.6713 170.328 19.6619 170.328 18.5361C170.328 16.7742 170.978 15.3611 172.277 14.2965C173.576 13.2321 175.623 12.6998 178.415 12.6998H183.442V12.4061C183.442 11.0358 183.036 9.98352 182.222 9.24939C181.408 8.51526 180.2 8.14819 178.597 8.14819C177.505 8.14819 176.43 8.31946 175.374 8.66211C174.317 9.00464 173.425 9.48181 172.696 10.0936L170.911 6.7533C171.931 5.97021 173.157 5.37073 174.59 4.95471C176.023 4.5387 177.541 4.33069 179.144 4.33069ZM178.526 21.069C179.667 21.069 180.681 20.8059 181.568 20.2798C182.454 19.7535 183.079 19.0011 183.444 18.0222V15.7465H178.744C176.122 15.7465 174.81 16.6152 174.81 18.3527C174.81 19.1847 175.138 19.8453 175.794 20.3348C176.449 20.8242 177.36 21.069 178.526 21.069ZM142.461 4.33069C144.924 4.33069 146.899 5.06189 148.386 6.52441C149.874 7.98694 150.617 10.1559 150.617 13.0314V24.4092H146.045V13.6263C146.045 11.8911 145.643 10.5835 144.839 9.70349C144.034 8.82361 142.888 8.38354 141.401 8.38354C139.718 8.38354 138.389 8.89795 137.414 9.92664C136.439 10.9553 135.951 12.4364 135.951 14.37V24.4092H131.379V4.55383H135.732V7.11938C136.488 6.20215 137.438 5.50818 138.584 5.03711C139.73 4.56616 141.023 4.33069 142.461 4.33069ZM124.098 6.40466C122.581 5.02197 120.389 4.33069 117.523 4.33069C115.92 4.33069 114.403 4.5387 112.97 4.95471C111.537 5.37073 110.311 5.97021 109.291 6.7533L111.076 10.0936C111.804 9.48181 112.697 9.00464 113.753 8.66211C114.809 8.31946 115.884 8.14819 116.977 8.14819C118.58 8.14819 119.788 8.51526 120.601 9.24939C121.415 9.98352 121.822 11.0358 121.822 12.4061V12.6998H116.795C114.002 12.6998 111.956 13.2321 110.657 14.2965C109.357 15.3611 108.708 16.7742 108.708 18.5361C108.708 19.6619 109.005 20.6713 109.6 21.5645C110.195 22.4576 111.039 23.155 112.132 23.6567C113.225 24.1583 114.5 24.4092 115.957 24.4092C117.414 24.4092 118.659 24.1829 119.691 23.7301C120.723 23.2775 121.518 22.6228 122.077 21.7664V24.1522H126.375V12.6631C126.375 9.87341 125.616 7.78723 124.098 6.40466ZM116.9 21.069C118.041 21.069 119.055 20.8059 119.941 20.2798C120.828 19.7535 121.453 19.0011 121.817 18.0222V15.7465H117.118C114.495 15.7465 113.184 16.6152 113.184 18.3527C113.184 19.1847 113.512 19.8453 114.168 20.3348C114.823 20.8242 115.734 21.069 116.9 21.069ZM85.7458 7.89282H82.2102C80.8699 7.89282 79.8528 8.09314 79.1582 8.50061C78.4636 8.90808 78.1165 9.44507 78.1165 10.1118C78.1165 10.8527 78.488 11.3773 79.2312 11.686C79.9746 11.9946 81.1257 12.2848 82.6853 12.5564C84.2449 12.8033 85.5242 13.0874 86.5232 13.4083C87.5222 13.7294 88.3811 14.2726 89.1001 15.0381C89.8188 15.8036 90.1782 16.8901 90.1782 18.2976C90.1782 20.1497 89.3862 21.6312 87.8025 22.7424C86.2185 23.8535 84.062 24.4092 81.333 24.4092C79.749 24.4092 78.2019 24.1992 76.6909 23.7795C75.1802 23.3597 73.9741 22.8289 73.0725 22.1868L74.8269 18.668C75.7041 19.2606 76.7581 19.736 77.9885 20.094C79.2192 20.4521 80.4314 20.6311 81.6255 20.6311C84.3545 20.6311 85.719 19.9027 85.719 18.4458C85.719 17.7544 85.3718 17.2728 84.6772 17.0012C83.9829 16.7296 82.8682 16.4703 81.333 16.2234C79.7246 15.9764 78.415 15.6925 77.4038 15.3715C76.3926 15.0504 75.5154 14.4886 74.7722 13.6862C74.0288 12.8837 73.6572 11.7662 73.6572 10.3341C73.6572 8.4574 74.4309 6.95728 75.9783 5.83374C77.5256 4.71021 79.615 4.14844 82.2468 4.14844H87.6897L85.7458 7.89282ZM66.6794 6.52441C65.1921 5.06189 63.217 4.33069 60.7544 4.33069C59.3159 4.33069 58.0237 4.56616 56.8777 5.03711C55.7317 5.50818 54.7808 6.20215 54.0249 7.11938V4.55383H49.6726V24.4092H54.2444V14.37C54.2444 12.4364 54.7319 10.9553 55.7073 9.92664C56.6826 8.89795 58.0115 8.38354 59.6938 8.38354C61.1812 8.38354 62.3271 8.82361 63.1318 9.70349C63.9365 10.5835 64.3386 11.8911 64.3386 13.6263V24.4092H68.9104V13.0314C68.9104 10.1559 68.1667 7.98694 66.6794 6.52441ZM35.1201 24.4092C33.1455 24.4092 31.3657 23.981 29.781 23.1245C28.1963 22.2679 26.959 21.0751 26.0691 19.5455C25.1792 18.0161 24.7344 16.2848 24.7344 14.3516C24.7344 12.4183 25.1792 10.6931 26.0691 9.1759C26.959 7.65869 28.1963 6.47192 29.781 5.61548C31.3657 4.75891 33.1455 4.33069 35.1201 4.33069C37.1194 4.33069 38.9114 4.75891 40.4961 5.61548C42.0808 6.47192 43.3181 7.65869 44.2078 9.1759C45.0977 10.6931 45.5427 12.4183 45.5427 14.3516C45.5427 16.2848 45.0977 18.0161 44.2078 19.5455C43.3181 21.0751 42.0808 22.2679 40.4961 23.1245C38.9114 23.981 37.1194 24.4092 35.1201 24.4092ZM39.2893 18.7931C38.1921 19.9187 36.8025 20.4816 35.1204 20.4816C33.4382 20.4816 32.0544 19.9187 30.9697 18.7931C29.8848 17.6674 29.3423 16.1869 29.3423 14.3516C29.3423 12.5162 29.8848 11.0358 30.9697 9.91003C32.0544 8.78442 33.4382 8.22156 35.1204 8.22156C36.8025 8.22156 38.1921 8.78442 39.2893 9.91003C40.3865 11.0358 40.9351 12.5162 40.9351 14.3516C40.9351 16.1869 40.3865 17.6674 39.2893 18.7931Z" fill="black"/>
<path fill-rule="evenodd" clip-rule="evenodd" d="M21.2957 7.0498C21.4333 6.77734 21.5793 6.50879 21.7339 6.24426C22.1604 5.51428 22.6372 4.83203 23.1641 4.19788C22.1443 3.23694 20.9663 2.47192 19.6299 1.90283C17.8833 1.15918 15.9524 0.787354 13.8369 0.787354C11.2292 0.787354 8.87402 1.36365 6.77075 2.51636C4.66772 3.66895 3.01343 5.2616 1.80811 7.29431C0.602783 9.3269 0 11.6199 0 14.173C0 16.7262 0.596436 19.0192 1.78955 21.0518C2.98267 23.0845 4.63062 24.677 6.73389 25.8297C8.83716 26.9824 11.1924 27.5587 13.8 27.5587C15.9155 27.5587 17.8525 27.1869 19.6113 26.4432C20.814 25.9348 21.8872 25.2699 22.8308 24.4486C22.4343 23.9312 22.0686 23.3835 21.7339 22.806C21.3142 22.0817 20.9568 21.3291 20.6614 20.5481C18.8469 22.396 16.646 23.3199 14.0583 23.3199C12.2871 23.3199 10.7004 22.9294 9.29834 22.1487C7.89624 21.3678 6.80151 20.2833 6.0144 18.8951C5.22729 17.5071 4.83374 15.933 4.83374 14.173C4.83374 12.4131 5.22729 10.839 6.0144 9.45081C6.80151 8.06274 7.89624 6.97827 9.29834 6.19739C10.7004 5.4165 12.2871 5.02612 14.0583 5.02612C16.7441 5.02612 19.0134 6.00952 20.8665 7.97644C20.999 7.6626 21.1421 7.35376 21.2957 7.0498ZM92.0493 4.14844L90.1055 7.89282H105.237V4.14844H92.0493Z" fill="#FF5200"/>
</svg>
