<svg width="188" height="63" viewBox="0 0 188 63" fill="none" xmlns="http://www.w3.org/2000/svg">
<rect width="187.647" height="62.6777" fill="black" fill-opacity="0"/>
<path fill-rule="evenodd" clip-rule="evenodd" d="M73.7991 61.1873C75.3264 60.1938 76.4624 58.8195 77.2075 57.0637V62.5616H78.4399V33.8334H77.1689V47.849C76.4238 46.1201 75.2878 44.7649 73.7605 43.7836C72.2327 42.8031 70.5063 42.3124 68.5808 42.3124C66.7573 42.3124 65.1011 42.7451 63.6125 43.6096C62.1233 44.4746 60.9485 45.6809 60.0886 47.2296C59.2283 48.7783 58.7986 50.5339 58.7986 52.4951C58.7986 54.4569 59.2283 56.212 60.0886 57.7607C60.9485 59.3093 62.1233 60.5162 63.6125 61.3807C65.1011 62.2457 66.7573 62.6776 68.5808 62.6776C70.5315 62.6776 72.2712 62.1813 73.7991 61.1873ZM155.774 50.8301V62.5616H157.045V50.7527C157.045 48.0425 156.326 45.9585 154.888 44.4999C153.45 43.0419 151.486 42.3124 148.996 42.3124C147.045 42.3124 145.363 42.7516 143.951 43.6287C142.539 44.5067 141.499 45.7195 140.832 47.2682V33.8334H139.561V62.5616H140.832V51.7208C140.832 49.2175 141.55 47.2234 142.988 45.7389C144.426 44.255 146.39 43.5127 148.881 43.5127C151.089 43.5127 152.79 44.1389 153.984 45.3906C155.177 46.6427 155.774 48.4558 155.774 50.8301ZM128.14 61.5161C126.496 61.5161 125.013 61.1357 123.691 60.374C122.369 59.6129 121.335 58.5483 120.591 57.1798C119.846 55.8121 119.474 54.2509 119.474 52.4951C119.474 50.7401 119.846 49.1849 120.591 47.8297C121.335 46.4747 122.369 45.4165 123.691 44.6549C125.013 43.8937 126.496 43.5127 128.14 43.5127C129.474 43.5127 130.701 43.771 131.817 44.2871C132.935 44.8038 133.852 45.5646 134.571 46.5713L135.534 45.7583C134.712 44.6228 133.653 43.7645 132.357 43.1836C131.06 42.603 129.654 42.3124 128.14 42.3124C126.239 42.3124 124.539 42.7451 123.037 43.6096C121.535 44.4746 120.353 45.6809 119.493 47.2296C118.633 48.7783 118.203 50.5339 118.203 52.4951C118.203 54.4569 118.633 56.212 119.493 57.7607C120.353 59.3094 121.535 60.5162 123.037 61.3807C124.539 62.2457 126.239 62.6777 128.14 62.6777C129.654 62.6777 131.06 62.3873 132.357 61.8068C133.653 61.2258 134.712 60.3682 135.534 59.2319L134.571 58.4576C133.852 59.4642 132.935 60.226 131.817 60.7418C130.701 61.2585 129.474 61.5161 128.14 61.5161ZM98.7202 57.2573C99.4905 58.5999 100.549 59.645 101.897 60.3936C103.245 61.1425 104.753 61.5161 106.423 61.5161C107.783 61.5161 109.042 61.2648 110.197 60.7612C111.352 60.2581 112.302 59.5164 113.047 58.535L113.855 59.3868C112.957 60.4456 111.865 61.2585 110.582 61.8259C109.298 62.3942 107.911 62.6777 106.423 62.6777C104.471 62.6777 102.731 62.2457 101.204 61.3807C99.6763 60.5162 98.4758 59.3094 97.603 57.7607C96.73 56.212 96.2937 54.4569 96.2937 52.4951C96.2937 50.5339 96.6982 48.7783 97.5071 47.2296C98.3157 45.6809 99.4385 44.4746 100.877 43.6096C102.314 42.7451 103.919 42.3124 105.691 42.3124C107.437 42.3124 109.022 42.7384 110.447 43.5902C111.872 44.442 112.995 45.6294 113.817 47.1522C114.638 48.6755 115.049 50.4044 115.049 52.3403V52.6886H97.5261C97.5515 54.3922 97.95 55.9155 98.7202 57.2573ZM112.604 47.4425C113.335 48.6947 113.752 50.0947 113.855 51.6434H97.5647C97.6416 50.0947 98.0396 48.6947 98.7585 47.4425C99.4771 46.1908 100.44 45.2163 101.647 44.5194C102.853 43.8225 104.201 43.4739 105.691 43.4739C107.18 43.4739 108.521 43.8225 109.715 44.5194C110.909 45.2163 111.872 46.1908 112.604 47.4425ZM91.1553 62.6777C89.5376 62.6777 88.2859 62.2198 87.4004 61.3033C86.5144 60.3873 86.0715 59.1292 86.0715 57.5284V43.5902H82.2974V42.4673H86.0715V38.0535H87.3425V42.4673H93.9282V43.5902H87.3425V57.3347C87.3425 58.7031 87.676 59.7487 88.344 60.4709C89.0112 61.1937 89.9866 61.5551 91.271 61.5551C92.5542 61.5551 93.6326 61.1552 94.5059 60.3546L95.1606 61.2838C94.6985 61.7231 94.1074 62.0649 93.3889 62.3099C92.6699 62.5554 91.9255 62.6777 91.1553 62.6777ZM76.0522 47.8296C75.3071 46.4746 74.2864 45.4165 72.9902 44.6548C71.6934 43.8937 70.2366 43.5127 68.6191 43.5127C67.0015 43.5127 65.5442 43.8937 64.248 44.6548C62.9512 45.4165 61.9304 46.4746 61.1863 47.8296C60.4414 49.1848 60.0693 50.74 60.0693 52.4951C60.0693 54.2507 60.4414 55.8121 61.1863 57.1798C61.9304 58.5482 62.9512 59.6129 64.248 60.374C65.5442 61.1357 67.0015 61.5161 68.6191 61.5161C70.2366 61.5161 71.6934 61.1357 72.9902 60.374C74.2864 59.6129 75.3071 58.5482 76.0522 57.1798C76.7964 55.8121 77.1689 54.2507 77.1689 52.4951C77.1689 50.74 76.7964 49.1848 76.0522 47.8296ZM42.4924 60.3936C41.1445 59.645 40.0857 58.5999 39.3154 57.2573C38.5452 55.9155 38.1465 54.3922 38.1213 52.6886H55.6445V52.3403C55.6445 50.4044 55.2334 48.6755 54.4121 47.1522C53.5901 45.6294 52.4673 44.442 51.0422 43.5902C49.6174 42.7384 48.0317 42.3124 46.2859 42.3124C44.5144 42.3124 42.9094 42.7451 41.4719 43.6096C40.0337 44.4746 38.9109 45.6809 38.1021 47.2296C37.2935 48.7783 36.8889 50.5339 36.8889 52.4951C36.8889 54.4569 37.3252 56.212 38.1982 57.7607C39.0708 59.3094 40.2712 60.5162 41.7991 61.3807C43.3264 62.2457 45.0662 62.6777 47.0178 62.6777C48.5066 62.6777 49.8931 62.3942 51.1772 61.8259C52.4604 61.2585 53.5515 60.4456 54.4507 59.3868L53.6421 58.535C52.897 59.5164 51.9475 60.2581 50.792 60.7612C49.6367 61.2648 48.3782 61.5161 47.0178 61.5161C45.3484 61.5161 43.8406 61.1425 42.4924 60.3936ZM54.4507 51.6434C54.3479 50.0947 53.9309 48.6947 53.199 47.4425C52.4675 46.1908 51.5046 45.2163 50.3108 44.5194C49.1167 43.8225 47.7749 43.4739 46.2861 43.4739C44.7969 43.4739 43.4487 43.8225 42.2424 44.5194C41.0354 45.2163 40.0723 46.1908 39.354 47.4425C38.635 48.6947 38.2371 50.0947 38.1602 51.6434H54.4507ZM28.21 51.8757C28.21 49.295 28.8645 47.2682 30.1741 45.797C31.4834 44.3257 33.2937 43.5902 35.6045 43.5902H35.9509V42.3124C33.9995 42.3124 32.3625 42.7451 31.0405 43.6096C29.718 44.4746 28.7617 45.7068 28.1714 47.307V42.4673H26.939V62.5616H28.21V51.8757ZM11.6794 53.4629H3.63037V62.5616H2.32104V35.4595H11.6794C15.0427 35.4595 17.668 36.2533 19.5554 37.8406C21.4424 39.4281 22.386 41.6289 22.386 44.4419C22.386 47.2816 21.4424 49.4946 19.5554 51.0818C17.668 52.6694 15.0427 53.4629 11.6794 53.4629ZM11.7563 36.6595C14.7603 36.6595 17.071 37.3373 18.6887 38.6923C20.3062 40.0475 21.115 41.964 21.115 44.4419C21.115 46.9457 20.3062 48.8751 18.6887 50.23C17.071 51.5853 14.7603 52.2628 11.7563 52.2628H3.63037V36.6595H11.7563Z" fill="black" fill-opacity="0.7"/>
<path fill-rule="evenodd" clip-rule="evenodd" d="M99.3147 0H94.7544V17.8899C94.7544 20.0809 95.3381 21.7491 96.5056 22.8945C97.6731 24.0399 99.3269 24.6125 101.467 24.6125C102.319 24.6125 103.127 24.5005 103.893 24.2765C104.659 24.0524 105.31 23.7162 105.845 23.2681L104.568 19.9441C103.887 20.4918 103.036 20.7657 102.014 20.7657C101.139 20.7657 100.47 20.5105 100.008 20C99.5459 19.4896 99.3147 18.7489 99.3147 17.7778V0ZM165.126 24.2765C165.902 24.0524 166.562 23.7162 167.104 23.2681L165.81 19.9441C165.12 20.4918 164.256 20.7657 163.221 20.7657C162.333 20.7657 161.655 20.5105 161.186 20C160.718 19.4896 160.484 18.7489 160.484 17.7778V7.95862H166.353V4.18298H160.484V0H155.86V4.18298H152.605V7.95862H155.86V17.8899C155.86 20.0809 156.452 21.7491 157.635 22.8945C158.819 24.0399 160.496 24.6125 162.666 24.6125C163.529 24.6125 164.349 24.5005 165.126 24.2765ZM178.811 4.3667C181.672 4.3667 183.859 5.06372 185.374 6.45789C186.889 7.85205 187.647 9.95557 187.647 12.7686V24.3534H183.356V21.9476C182.799 22.8113 182.005 23.4713 180.975 23.9279C179.945 24.3843 178.702 24.6125 177.248 24.6125C175.793 24.6125 174.521 24.3596 173.43 23.8538C172.339 23.3479 171.497 22.6447 170.903 21.744C170.309 20.8434 170.012 19.8256 170.012 18.6906C170.012 16.9139 170.661 15.489 171.958 14.4156C173.254 13.3422 175.297 12.8055 178.084 12.8055H183.102V12.5094C183.102 11.1277 182.696 10.0667 181.884 9.32642C181.072 8.58606 179.866 8.21594 178.266 8.21594C177.175 8.21594 176.103 8.38867 175.048 8.73413C173.994 9.07959 173.103 9.56079 172.376 10.1776L170.594 6.80957C171.612 6.0199 172.836 5.41541 174.266 4.99597C175.697 4.57642 177.211 4.3667 178.811 4.3667ZM178.195 21.2445C179.334 21.2445 180.346 20.9792 181.231 20.4487C182.116 19.9182 182.74 19.1594 183.104 18.1725V15.8777H178.413C175.795 15.8777 174.486 16.7537 174.486 18.5056C174.486 19.3445 174.813 20.0107 175.468 20.5043C176.122 20.9978 177.031 21.2445 178.195 21.2445ZM142.197 4.3667C144.655 4.3667 146.626 5.104 148.111 6.57874C149.596 8.05347 150.338 10.2405 150.338 13.1399V24.6125H145.775V13.7397C145.775 11.9901 145.373 10.6716 144.57 9.7843C143.767 8.89697 142.623 8.45337 141.138 8.45337C139.459 8.45337 138.133 8.97205 137.159 10.0093C136.186 11.0466 135.699 12.54 135.699 14.4896V24.6125H131.136V4.59167H135.48V7.17859C136.234 6.25378 137.184 5.55396 138.327 5.0791C139.471 4.60413 140.761 4.3667 142.197 4.3667ZM123.868 6.45789C122.353 5.06372 120.166 4.3667 117.305 4.3667C115.705 4.3667 114.19 4.57642 112.76 4.99597C111.33 5.41541 110.106 6.0199 109.088 6.80957L110.87 10.1776C111.597 9.56079 112.488 9.07959 113.542 8.73413C114.596 8.38867 115.669 8.21594 116.76 8.21594C118.36 8.21594 119.566 8.58606 120.378 9.32642C121.19 10.0667 121.596 11.1277 121.596 12.5094V12.8055H116.578C113.791 12.8055 111.748 13.3422 110.451 14.4156C109.155 15.489 108.506 16.9139 108.506 18.6906C108.506 19.8256 108.803 20.8434 109.397 21.744C109.991 22.6447 110.833 23.3479 111.924 23.8538C113.015 24.3596 114.287 24.6125 115.742 24.6125C117.196 24.6125 118.438 24.3843 119.469 23.9279C120.499 23.4713 121.293 22.8113 121.85 21.9476V24.3534H126.141V12.7686C126.141 9.95557 125.383 7.85205 123.868 6.45789ZM116.683 21.2445C117.822 21.2445 118.834 20.9792 119.719 20.4487C120.604 19.9182 121.228 19.1594 121.592 18.1725V15.8777H116.901C114.283 15.8777 112.974 16.7537 112.974 18.5056C112.974 19.3445 113.301 20.0107 113.956 20.5043C114.61 20.9978 115.519 21.2445 116.683 21.2445ZM85.5869 7.95862H82.0576C80.72 7.95862 79.7046 8.16064 79.0115 8.57141C78.3181 8.9823 77.9717 9.5238 77.9717 10.196C77.9717 10.943 78.3425 11.4722 79.0845 11.7833C79.8262 12.0946 80.9753 12.3872 82.532 12.661C84.0886 12.91 85.3655 13.1964 86.3628 13.52C87.3599 13.8438 88.2173 14.3915 88.9348 15.1635C89.6523 15.9353 90.011 17.0308 90.011 18.4501C90.011 20.3175 89.2205 21.8114 87.6396 22.9319C86.0586 24.0524 83.9062 24.6125 81.1821 24.6125C79.6013 24.6125 78.0569 24.4009 76.5488 23.9777C75.0408 23.5543 73.8369 23.019 72.937 22.3717L74.6882 18.8236C75.5637 19.4211 76.6157 19.9004 77.844 20.2615C79.0723 20.6226 80.2822 20.803 81.4741 20.803C84.198 20.803 85.5601 20.0685 85.5601 18.5995C85.5601 17.9023 85.2134 17.4167 84.5203 17.1428C83.8271 16.869 82.7144 16.6075 81.1821 16.3585C79.5769 16.1096 78.2695 15.8232 77.2603 15.4995C76.251 15.1759 75.3752 14.6094 74.6335 13.8002C73.8916 12.991 73.5208 11.8643 73.5208 10.4202C73.5208 8.52783 74.293 7.01526 75.8374 5.88232C77.3818 4.74939 79.4675 4.18298 82.0942 4.18298H87.5271L85.5869 7.95862ZM66.5559 6.57874C65.0713 5.104 63.1001 4.3667 60.6418 4.3667C59.2061 4.3667 57.916 4.60413 56.7722 5.0791C55.6284 5.55396 54.6792 6.25378 53.9248 7.17859V4.59167H49.5806V24.6125H54.1438V14.4896C54.1438 12.54 54.6306 11.0466 55.604 10.0093C56.5776 8.97205 57.9041 8.45337 59.5833 8.45337C61.0679 8.45337 62.2117 8.89697 63.0149 9.7843C63.8179 10.6716 64.2195 11.9901 64.2195 13.7397V24.6125H68.7827V13.1399C68.7827 10.2405 68.0405 8.05347 66.5559 6.57874ZM35.0552 24.6125C33.084 24.6125 31.3076 24.1807 29.7258 23.3171C28.144 22.4535 26.9089 21.2506 26.0208 19.7084C25.1326 18.1661 24.6885 16.4204 24.6885 14.4711C24.6885 12.5217 25.1326 10.7822 26.0208 9.25232C26.9089 7.72253 28.144 6.52576 29.7258 5.66211C31.3076 4.79846 33.084 4.3667 35.0552 4.3667C37.0505 4.3667 38.8391 4.79846 40.4209 5.66211C42.0027 6.52576 43.2375 7.72253 44.1257 9.25232C45.0142 10.7822 45.4583 12.5217 45.4583 14.4711C45.4583 16.4204 45.0142 18.1661 44.1257 19.7084C43.2375 21.2506 42.0027 22.4535 40.4209 23.3171C38.8391 24.1807 37.0505 24.6125 35.0552 24.6125ZM39.2163 18.9496C38.1213 20.0847 36.7344 20.6522 35.0552 20.6522C33.376 20.6522 31.9951 20.0847 30.9121 18.9496C29.8293 17.8146 29.2878 16.3218 29.2878 14.4711C29.2878 12.6205 29.8293 11.1277 30.9121 9.99255C31.9951 8.85754 33.376 8.29004 35.0552 8.29004C36.7344 8.29004 38.1213 8.85754 39.2163 9.99255C40.3115 11.1277 40.8589 12.6205 40.8589 14.4711C40.8589 16.3218 40.3115 17.8146 39.2163 18.9496Z" fill="black"/>
<path fill-rule="evenodd" clip-rule="evenodd" d="M21.3364 6.95044C21.45 6.72986 21.5691 6.51184 21.6936 6.29639C21.9424 5.86621 22.2083 5.45264 22.4912 5.05554C22.6926 4.77295 22.9026 4.49866 23.1211 4.23279C22.1033 3.26392 20.9275 2.49255 19.5935 1.9187C17.8501 1.16882 15.9229 0.793945 13.8113 0.793945C11.2085 0.793945 8.85767 1.37512 6.7583 2.53735C4.65894 3.69958 3.00781 5.30554 1.80469 7.3551C0.601562 9.40466 0 11.7167 0 14.2911C0 16.8656 0.595459 19.1776 1.78613 21.2273C2.97705 23.2769 4.62207 24.8827 6.72144 26.045C8.8208 27.2073 11.1716 27.7883 13.7744 27.7883C15.886 27.7883 17.8196 27.4135 19.575 26.6636C20.7754 26.151 21.8464 25.4806 22.7886 24.6523C22.3928 24.1306 22.0278 23.5785 21.6936 22.9961C21.2747 22.2657 20.9177 21.5068 20.623 20.7194C18.812 22.5826 16.615 23.5143 14.0322 23.5143C12.2644 23.5143 10.6807 23.1206 9.28101 22.3333C7.88159 21.5459 6.78906 20.4524 6.00317 19.0527C5.21753 17.653 4.82471 16.0658 4.82471 14.2911C4.82471 12.5165 5.21753 10.9293 6.00317 9.52966C6.78906 8.12988 7.88159 7.03638 9.28101 6.24902C10.6807 5.46167 12.2644 5.06812 14.0322 5.06812C16.7131 5.06812 18.9783 6.05969 20.8276 8.04297C20.9829 7.67188 21.1523 7.30774 21.3364 6.95044ZM91.8784 4.18298L89.9382 7.95862H105.042V4.18298H91.8784Z" fill="#FF5200"/>
</svg>
