<svg width="600" height="172" viewBox="0 0 600 172" fill="none" xmlns="http://www.w3.org/2000/svg">
<path fill-rule="evenodd" clip-rule="evenodd" d="M286.247 148.655C289.936 146.274 292.679 142.98 294.479 138.772V151.949H297.454V83.0926H294.385V116.686C292.586 112.542 289.842 109.294 286.154 106.942C282.464 104.591 278.296 103.415 273.646 103.415C269.242 103.415 265.242 104.452 261.647 106.524C258.051 108.598 255.215 111.489 253.138 115.201C251.06 118.913 250.022 123.121 250.022 127.822C250.022 132.524 251.06 136.73 253.138 140.442C255.215 144.154 258.051 147.047 261.647 149.119C265.242 151.192 269.242 152.227 273.646 152.227C278.356 152.227 282.558 151.037 286.247 148.655ZM484.21 123.831V151.949H487.278V123.645C487.278 117.149 485.542 112.154 482.07 108.658C478.597 105.164 473.854 103.415 467.841 103.415C463.128 103.415 459.066 104.468 455.657 106.57C452.247 108.675 449.735 111.581 448.124 115.293V83.0926H445.055V151.949H448.124V125.966C448.124 119.966 449.859 115.186 453.332 111.628C456.804 108.071 461.547 106.292 467.562 106.292C472.894 106.292 477.001 107.793 479.885 110.793C482.768 113.794 484.21 118.14 484.21 123.831ZM417.474 149.443C413.504 149.443 409.924 148.531 406.731 146.706C403.537 144.882 401.042 142.33 399.245 139.05C397.445 135.772 396.547 132.03 396.547 127.822C396.547 123.615 397.445 119.887 399.245 116.639C401.042 113.392 403.537 110.855 406.731 109.03C409.924 107.205 413.504 106.292 417.474 106.292C420.696 106.292 423.658 106.911 426.355 108.148C429.053 109.387 431.269 111.21 433.005 113.623L435.33 111.675C433.345 108.953 430.787 106.896 427.657 105.503C424.525 104.112 421.131 103.415 417.474 103.415C412.884 103.415 408.777 104.452 405.15 106.524C401.523 108.598 398.671 111.489 396.594 115.201C394.516 118.913 393.479 123.121 393.479 127.822C393.479 132.524 394.516 136.73 396.594 140.442C398.671 144.154 401.523 147.047 405.15 149.119C408.777 151.192 412.884 152.227 417.474 152.227C421.131 152.227 424.525 151.531 427.657 150.14C430.787 148.747 433.345 146.692 435.33 143.969L433.005 142.113C431.269 144.525 429.053 146.351 426.355 147.587C423.658 148.826 420.696 149.443 417.474 149.443ZM346.429 139.235C348.289 142.453 350.847 144.959 354.102 146.753C357.356 148.548 360.998 149.443 365.029 149.443C368.314 149.443 371.354 148.841 374.144 147.634C376.934 146.428 379.227 144.65 381.026 142.298L382.979 144.34C380.809 146.877 378.173 148.826 375.074 150.186C371.973 151.548 368.625 152.227 365.029 152.227C360.316 152.227 356.115 151.192 352.428 149.119C348.738 147.047 345.839 144.154 343.731 140.442C341.623 136.73 340.569 132.524 340.569 127.822C340.569 123.121 341.546 118.913 343.499 115.201C345.452 111.489 348.164 108.598 351.637 106.524C355.108 104.452 358.984 103.415 363.262 103.415C367.479 103.415 371.308 104.436 374.749 106.478C378.189 108.519 380.901 111.365 382.887 115.015C384.869 118.667 385.862 122.81 385.862 127.45V128.285H343.546C343.607 132.368 344.568 136.02 346.429 139.235ZM379.958 115.711C381.725 118.712 382.731 122.068 382.979 125.78H343.64C343.825 122.068 344.786 118.712 346.522 115.711C348.258 112.711 350.583 110.375 353.498 108.705C356.411 107.035 359.667 106.199 363.263 106.199C366.858 106.199 370.1 107.035 372.982 108.705C375.865 110.375 378.19 112.711 379.958 115.711ZM328.16 152.227C324.254 152.227 321.231 151.13 319.093 148.933C316.953 146.738 315.884 143.722 315.884 139.885V106.478H306.77V103.786H315.884V93.2073H318.953V103.786H334.856V106.478H318.953V139.421C318.953 142.701 319.758 145.207 321.371 146.938C322.982 148.671 325.339 149.536 328.439 149.536C331.539 149.536 334.143 148.578 336.252 146.659L337.833 148.887C336.717 149.939 335.289 150.759 333.555 151.346C331.818 151.934 330.021 152.227 328.16 152.227ZM291.688 116.639C289.89 113.391 287.425 110.855 284.294 109.03C281.163 107.205 277.645 106.292 273.738 106.292C269.832 106.292 266.313 107.205 263.183 109.03C260.051 110.855 257.586 113.391 255.789 116.639C253.99 119.887 253.092 123.615 253.092 127.822C253.092 132.03 253.99 135.772 255.789 139.05C257.586 142.33 260.051 144.882 263.183 146.706C266.313 148.531 269.832 149.443 273.738 149.443C277.645 149.443 281.163 148.531 284.294 146.706C287.425 144.882 289.89 142.33 291.688 139.05C293.485 135.772 294.386 132.03 294.386 127.822C294.386 123.615 293.485 119.887 291.688 116.639ZM210.646 146.753C207.391 144.959 204.833 142.453 202.973 139.235C201.112 136.02 200.15 132.368 200.09 128.285H242.406V127.45C242.406 122.81 241.413 118.667 239.431 115.015C237.445 111.365 234.733 108.519 231.292 106.478C227.852 104.436 224.022 103.415 219.806 103.415C215.528 103.415 211.652 104.452 208.181 106.524C204.708 108.598 201.996 111.489 200.043 115.201C198.09 118.913 197.113 123.121 197.113 127.822C197.113 132.524 198.167 136.73 200.275 140.442C202.383 144.154 205.281 147.047 208.971 149.119C212.659 151.192 216.86 152.227 221.573 152.227C225.169 152.227 228.517 151.548 231.618 150.186C234.717 148.826 237.352 146.877 239.522 144.34L237.57 142.298C235.771 144.65 233.478 146.428 230.688 147.634C227.897 148.841 224.858 149.443 221.573 149.443C217.542 149.443 213.9 148.548 210.646 146.753ZM239.523 125.78C239.275 122.068 238.269 118.712 236.501 115.711C234.734 112.711 232.409 110.375 229.526 108.705C226.643 107.035 223.402 106.199 219.807 106.199C216.211 106.199 212.955 107.035 210.042 108.705C207.127 110.375 204.802 112.711 203.066 115.711C201.33 118.712 200.369 122.068 200.184 125.78H239.523ZM176.155 126.337C176.155 120.151 177.736 115.293 180.898 111.767C184.061 108.241 188.432 106.478 194.012 106.478H194.849V103.415C190.137 103.415 186.184 104.452 182.991 106.524C179.797 108.598 177.488 111.551 176.062 115.387V103.786H173.086V151.949H176.155V126.337ZM136.235 130.141H116.798V151.949H113.636V86.9901H136.235C144.357 86.9901 150.697 88.8926 155.255 92.6971C159.812 96.5021 162.09 101.777 162.09 108.519C162.09 115.326 159.812 120.63 155.255 124.434C150.697 128.239 144.357 130.141 136.235 130.141ZM136.421 89.8666C143.676 89.8666 149.256 91.4911 153.162 94.7386C157.068 97.9869 159.021 102.58 159.021 108.519C159.021 114.521 157.068 119.145 153.162 122.393C149.256 125.641 143.676 127.265 136.421 127.265H116.798V89.8666H136.421Z" fill="black" fill-opacity="0.7"/>
<path fill-rule="evenodd" clip-rule="evenodd" d="M312.834 2H301.821V44.8789C301.821 50.1306 303.23 54.129 306.05 56.8743C308.869 59.6194 312.863 60.9921 318.032 60.9921C320.088 60.9921 322.041 60.7235 323.891 60.1864C325.741 59.6493 327.312 58.8436 328.604 57.7694L325.521 49.8024C323.876 51.1153 321.82 51.7717 319.354 51.7717C317.239 51.7717 315.624 51.16 314.508 49.9366C313.392 48.7133 312.834 46.9378 312.834 44.6104V2ZM471.761 60.1864C473.637 59.6493 475.229 58.8436 476.539 57.7694L473.413 49.8024C471.746 51.1153 469.661 51.7717 467.16 51.7717C465.017 51.7717 463.379 51.16 462.248 49.9366C461.116 48.7133 460.551 46.9378 460.551 44.6104V21.0754H474.725V12.0259H460.551V2H449.385V12.0259H441.524V21.0754H449.385V44.8789C449.385 50.1306 450.814 54.129 453.673 56.8743C456.531 59.6194 460.58 60.9921 465.82 60.9921C467.904 60.9921 469.885 60.7235 471.761 60.1864ZM504.811 12.4663C511.718 12.4663 517.001 14.137 520.659 17.4786C524.318 20.8201 526.147 25.8619 526.147 32.6041V60.371H515.786V54.6047C514.439 56.6747 512.522 58.2567 510.035 59.3508C507.547 60.445 504.547 60.9921 501.035 60.9921C497.522 60.9921 494.449 60.3859 491.815 59.1735C489.181 57.961 487.146 56.2755 485.713 54.1168C484.278 51.9581 483.562 49.5186 483.562 46.798C483.562 42.5398 485.127 39.1245 488.259 36.5518C491.391 33.9791 496.322 32.6927 503.055 32.6927H515.172V31.983C515.172 28.6711 514.191 26.1281 512.23 24.3538C510.27 22.5795 507.356 21.6924 503.493 21.6924C500.859 21.6924 498.269 22.1064 495.723 22.9344C493.176 23.7624 491.025 24.9156 489.269 26.3942L484.967 18.3214C487.425 16.4288 490.381 14.9799 493.835 13.9744C497.288 12.969 500.947 12.4663 504.811 12.4663ZM503.321 52.9192C506.072 52.9192 508.517 52.2834 510.653 51.0119C512.79 49.7404 514.297 47.9218 515.175 45.5561V40.0559H503.849C497.526 40.0559 494.365 42.1554 494.365 46.3545C494.365 48.3653 495.155 49.9622 496.736 51.145C498.316 52.3278 500.512 52.9192 503.321 52.9192ZM416.391 12.4663C422.326 12.4663 427.087 14.2336 430.672 17.7682C434.258 21.3028 436.05 26.5447 436.05 33.4941V60.9921H425.03V34.9319C425.03 30.7383 424.061 27.5782 422.121 25.4514C420.182 23.3247 417.419 22.2613 413.834 22.2613C409.778 22.2613 406.576 23.5044 404.225 25.9906C401.874 28.4768 400.698 32.0563 400.698 36.7292V60.9921H389.679V13.0055H400.17V19.206C401.991 16.9894 404.283 15.312 407.046 14.1737C409.809 13.0355 412.923 12.4663 416.391 12.4663ZM372.129 17.4786C368.471 14.137 363.188 12.4663 356.28 12.4663C352.417 12.4663 348.758 12.969 345.305 13.9744C341.851 14.9799 338.895 16.4288 336.437 18.3214L340.738 26.3942C342.495 24.9156 344.646 23.7624 347.192 22.9344C349.738 22.1064 352.329 21.6924 354.963 21.6924C358.826 21.6924 361.739 22.5795 363.7 24.3538C365.661 26.1281 366.642 28.6711 366.642 31.983V32.6927H354.524C347.792 32.6927 342.86 33.9791 339.729 36.5518C336.597 39.1245 335.031 42.5398 335.031 46.798C335.031 49.5186 335.748 51.9581 337.183 54.1168C338.616 56.2755 340.65 57.961 343.285 59.1735C345.919 60.3859 348.992 60.9921 352.505 60.9921C356.017 60.9921 359.017 60.445 361.505 59.3508C363.992 58.2567 365.909 56.6747 367.256 54.6047V60.371H377.617V32.6041C377.617 25.8619 375.788 20.8201 372.129 17.4786ZM354.776 52.9192C357.527 52.9192 359.972 52.2834 362.108 51.0119C364.245 49.7404 365.752 47.9218 366.63 45.5561V40.0559H355.304C348.981 40.0559 345.82 42.1554 345.82 46.3545C345.82 48.3653 346.61 49.9622 348.191 51.145C349.771 52.3278 351.967 52.9192 354.776 52.9192ZM279.683 21.0754H271.16C267.93 21.0754 265.478 21.5596 263.804 22.5443C262.13 23.5289 261.293 24.827 261.293 26.4383C261.293 28.2286 262.188 29.4968 263.98 30.2427C265.771 30.9888 268.547 31.6899 272.306 32.3464C276.064 32.9432 279.148 33.6295 281.557 34.4053C283.965 35.1812 286.035 36.4941 287.768 38.3441C289.5 40.1942 290.366 42.8199 290.366 46.2216C290.366 50.6976 288.458 54.2782 284.64 56.9637C280.822 59.6493 275.624 60.9921 269.046 60.9921C265.229 60.9921 261.498 60.4848 257.856 59.4702C254.215 58.4557 251.308 57.1726 249.135 55.621L253.363 47.1168C255.479 48.5491 258.019 49.6979 260.984 50.5632C263.95 51.4286 266.873 51.8613 269.751 51.8613C276.329 51.8613 279.618 50.1008 279.618 46.5797C279.618 44.9087 278.781 43.745 277.107 43.0885C275.434 42.4321 272.746 41.8055 269.046 41.2087C265.169 40.6119 262.013 39.9256 259.575 39.1498C257.138 38.374 255.022 37.0163 253.231 35.0767C251.44 33.1371 250.544 30.4367 250.544 26.9754C250.544 22.4398 252.409 18.8144 256.139 16.099C259.868 13.3836 264.905 12.0259 271.248 12.0259H284.368L279.683 21.0754ZM233.725 17.7682C230.14 14.2336 225.379 12.4663 219.443 12.4663C215.976 12.4663 212.861 13.0355 210.099 14.1737C207.336 15.312 205.044 16.9894 203.223 19.206V13.0055H192.731V60.9921H203.751V36.7292C203.751 32.0563 204.927 28.4768 207.277 25.9906C209.629 23.5044 212.831 22.2613 216.887 22.2613C220.472 22.2613 223.234 23.3247 225.174 25.4514C227.113 27.5782 228.083 30.7383 228.083 34.9319V60.9921H239.103V33.4941C239.103 26.5447 237.311 21.3028 233.725 17.7682ZM157.654 60.9921C152.895 60.9921 148.604 59.9571 144.784 57.8871C140.965 55.8171 137.982 52.934 135.838 49.2376C133.692 45.5413 132.62 41.3571 132.62 36.6848C132.62 32.0126 133.692 27.8431 135.838 24.1763C137.982 20.5096 140.965 17.6412 144.784 15.5712C148.604 13.5013 152.895 12.4663 157.654 12.4663C162.474 12.4663 166.792 13.5013 170.612 15.5712C174.432 17.6412 177.414 20.5096 179.56 24.1763C181.704 27.8431 182.776 32.0126 182.776 36.6848C182.776 41.3571 181.704 45.5413 179.56 49.2376C177.414 52.934 174.432 55.8171 170.612 57.8871C166.792 59.9571 162.474 60.9921 157.654 60.9921ZM167.703 47.4191C165.059 50.1396 161.709 51.4998 157.654 51.4998C153.6 51.4998 150.265 50.1396 147.649 47.4191C145.034 44.6985 143.727 41.1205 143.727 36.6849C143.727 32.2492 145.034 28.6712 147.649 25.9506C150.265 23.2301 153.6 21.8699 157.654 21.8699C161.709 21.8699 165.059 23.2301 167.703 25.9506C170.348 28.6712 171.67 32.2492 171.67 36.6849C171.67 41.1205 170.348 44.6985 167.703 47.4191Z" fill="black"/>
<path fill-rule="evenodd" clip-rule="evenodd" d="M123.297 21.2775C123.902 19.8392 124.6 18.4438 125.388 17.0912C126.416 15.3269 127.564 13.6783 128.835 12.1454C126.377 9.82294 123.538 7.97412 120.316 6.59882C116.106 4.80157 111.452 3.90295 106.353 3.90295C100.067 3.90295 94.3896 5.29584 89.3203 8.08154C84.251 10.8673 80.2637 14.7164 77.3584 19.6289C74.4531 24.5414 73 30.0828 73 36.2534C73 42.424 74.4375 47.9655 77.3135 52.878C80.1895 57.7905 84.1621 61.6396 89.2314 64.4253C94.3008 67.2111 99.9785 68.6039 106.264 68.6039C111.363 68.6039 116.032 67.7053 120.271 65.9081C123.17 64.6793 125.757 63.0724 128.032 61.0875C127.076 59.8368 126.194 58.5135 125.388 57.1176C124.376 55.3671 123.515 53.5482 122.803 51.6606C118.429 56.1266 113.124 58.3596 106.886 58.3596C102.617 58.3596 98.793 57.4161 95.4131 55.5289C92.0332 53.6418 89.3945 51.0209 87.4971 47.666C85.5996 44.3111 84.6514 40.507 84.6514 36.2534C84.6514 31.9999 85.5996 28.1958 87.4971 24.8409C89.3945 21.486 92.0332 18.8651 95.4131 16.978C98.793 15.0908 102.617 14.1473 106.886 14.1473C113.36 14.1473 118.83 16.524 123.297 21.2775ZM294.877 12.0259L290.191 21.0754H326.665V12.0259H294.877Z" fill="#FF5200"/>
</svg>
